<?xml version="1.0" encoding="iso-8859-1"?>
<!-- Uploaded to: SVG Repo, www.svgrepo.com, Generator: SVG Repo Mixer Tools -->
<svg fill="#000000" height="800px" width="800px" version="1.1" id="Layer_1" xmlns="http://www.w3.org/2000/svg" xmlns:xlink="http://www.w3.org/1999/xlink" 
	 viewBox="0 0 496 496" xml:space="preserve">
<g>
	<g>
		<g>
			<path d="M456,164.688V96h-76.872l-84.064-77.592C282.208,6.536,265.496,0,248,0c-17.504,0-34.208,6.536-47.064,18.408L116.872,96
				H72v32H40v36.688l-40,40V456c0,22.056,17.944,40,40,40h416c22.056,0,40-17.944,40-40V204.688L456,164.688z M456,187.312
				l18.016,18.024l-18.016,7.8V187.312z M211.8,30.152C221.68,21.032,234.536,16,248,16s26.32,5.032,36.2,14.152L355.536,96H140.464
				L211.8,30.152z M88,112h352v108.064l-16,6.928V128H88V112z M284.952,144H408v89.912l-94.84,41.056
				C322.64,259.96,328,242.48,328,224C328,190.624,310.864,161.208,284.952,144z M312,224c0,27.792-14.16,53.128-37.872,67.872
				L248,303.184l-83.2-36.016C156.496,254.272,152,239.424,152,224c0-44.112,35.888-80,80-80S312,179.888,312,224z M56,144h123.048
				C153.136,161.208,136,190.624,136,224c0,11.488,2.072,22.712,5.992,33.288L56,220.064V144z M40,187.312v25.824l-18.024-7.8
				L40,187.312z M456,480H40c-5.248,0-10.072-1.744-14.024-4.608L170.2,389.92c1.112,3.552,2.68,6.936,4.6,10.128
				c0.08,0.136,0.16,0.264,0.24,0.4c0.84,1.368,1.752,2.688,2.728,3.976c0.184,0.248,0.36,0.496,0.552,0.736
				c1.128,1.416,2.32,2.792,3.616,4.096L248,475.312l66.056-66.056c1.296-1.296,2.488-2.672,3.608-4.088
				c0.2-0.256,0.384-0.52,0.584-0.784c0.968-1.264,1.864-2.568,2.688-3.912c0.096-0.152,0.184-0.304,0.272-0.456
				c1.912-3.184,3.472-6.56,4.584-10.096l144.232,85.464C466.072,478.256,461.248,480,456,480z M184.064,374.92
				C184.44,357.816,198.416,344,215.6,344c8.44,0,16.376,3.288,22.344,9.256L248,363.312l10.056-10.056
				C264.024,347.288,271.96,344,280.4,344c17.192,0,31.16,13.824,31.536,30.92l-0.08,1.88c-0.232,6.032-2.104,11.752-5.36,16.584
				c-0.72,1.056-1.6,2.016-2.464,2.992c-0.448,0.512-0.808,1.088-1.296,1.568L248,452.688l-54.744-54.752
				c-0.472-0.472-0.824-1.032-1.264-1.528c-0.872-0.984-1.76-1.96-2.496-3.032c-3.256-4.832-5.128-10.544-5.36-16.592
				L184.064,374.92z M480,456c0,2.144-0.376,4.184-0.904,6.168l-151.248-89.624C326.256,347.72,305.616,328,280.4,328
				c-12.128,0-23.56,4.504-32.4,12.736C239.16,332.504,227.728,328,215.6,328c-25.216,0-45.848,19.712-47.448,44.528l-151.248,89.64
				C16.376,460.184,16,458.144,16,456V220.184l232,100.44l232-100.44V456z"/>
			<path d="M244,176h-4v-16h-16v16h-4c-15.44,0-28,12.56-28,28s12.56,28,28,28h24c6.616,0,12,5.384,12,12c0,6.616-5.384,12-12,12
				h-24c-6.616,0-12-5.384-12-12v-4h-16v4c0,15.44,12.56,28,28,28h4v16h16v-16h4c15.44,0,28-12.56,28-28s-12.56-28-28-28h-24
				c-6.616,0-12-5.384-12-12c0-6.616,5.384-12,12-12h24c6.616,0,12,5.384,12,12v4h16v-4C272,188.56,259.44,176,244,176z"/>
		</g>
	</g>
</g>
</svg>