<?xml version="1.0" encoding="iso-8859-1"?>
<!-- Uploaded to: SVG Repo, www.svgrepo.com, Generator: SVG Repo Mixer Tools -->
<svg fill="#000000" height="800px" width="800px" version="1.1" id="Layer_1" xmlns="http://www.w3.org/2000/svg" xmlns:xlink="http://www.w3.org/1999/xlink" 
	 viewBox="0 0 512 512" xml:space="preserve">
<g>
	<g>
		<path d="M465.308,62.214l-15.105,61.603l1.205,11.873c20.108-1.327,36.022-18.035,36.05-38.484
			C487.479,81.75,478.415,68.406,465.308,62.214z"/>
	</g>
</g>
<g>
	<g>
		<path d="M468.546,153.697l-15.341-0.315l1.664,16.398l-20.654-53.181l23.353-95.24c2.268-9.251-3.393-18.59-12.644-20.858
			c-9.246-2.269-18.59,3.393-20.858,12.644l-24.648,100.523c-0.843,3.438-0.607,7.052,0.674,10.351l22.623,58.249l-12.15-16.327
			c-2.497,4.131-3.857,8.898-3.87,13.809c-0.015,5.876-0.304,310.105-0.304,310.105c0,12.092,9.802,21.896,21.896,21.896
			s21.896-9.802,21.896-21.896V325.572h18.03v164.465c0,7.165-1.945,13.873-5.322,19.639c2.945,1.474,6.258,2.324,9.776,2.324
			c12.092,0,21.896-9.803,21.896-21.896l0.221-308.276C494.8,166.311,483.054,153.716,468.546,153.697z"/>
	</g>
</g>
<g>
	<g>
		<path d="M384.435,113.402c-0.128-1.917-1.784-3.369-3.701-3.243l-99.804,6.551c-1.917,0.126-3.37,1.783-3.244,3.7l0.953,14.517
			c-58.873,3.221-131.169,7.057-137.723,7.057c-11.736,0-68.767,0-80.389,0c-23.579,0-43.193,19.183-43.311,42.76v133.417
			c-0.051,10.03,7.703,18.202,17.732,18.251c0.032,0.001,0.063,0.001,0.093,0.001c9.986-0.001,18.443-8.071,18.492-18.069V184.925
			c0-0.018,0-0.036,0-0.055c0.031-2.071,1.726-3.731,3.799-3.715c2.071,0.015,3.742,1.7,3.742,3.771l0.008,305.281
			c0,12.036,9.756,21.792,21.792,21.792s21.792-9.756,21.792-21.792V316.019h9.41v174.189c0,12.036,9.756,21.792,21.792,21.792
			s21.594-9.756,21.594-21.792c0-285.487,0-127.875,0-312.54c28.263-1.319,84.975-4.39,119.764-6.291l-1.16,2.872
			c-2.656,6.569,0.518,14.049,7.087,16.704c6.596,2.664,14.057-0.541,16.704-7.087l5.687-14.072
			c7.236-0.613,13.173-5.403,15.529-11.863l5.548-0.365c1.749-0.115,3.253-1.28,3.801-2.944l5.192-15.787l31.099-2.041
			c1.917-0.125,3.37-1.783,3.244-3.7l-0.612-9.331l12.227-0.803c1.917-0.127,3.37-1.783,3.244-3.7L384.435,113.402z
			 M323.168,149.184l-1.179,0.077c-0.48-3.525-1.961-6.697-4.135-9.26l8.517-0.559L323.168,149.184z"/>
	</g>
</g>
<g>
	<g>
		<circle cx="109.545" cy="93.791" r="38.16"/>
	</g>
</g>
</svg>