<?xml version="1.0" encoding="utf-8"?><!-- Uploaded to: SVG Repo, www.svgrepo.com, Generator: SVG Repo Mixer Tools -->
<svg version="1.1" id="Uploaded to svgrepo.com" xmlns="http://www.w3.org/2000/svg" xmlns:xlink="http://www.w3.org/1999/xlink" 
	 width="800px" height="800px" viewBox="0 0 32 32" xml:space="preserve">
<style type="text/css">
	.linesandangles_een{fill:#111918;}
</style>
<path class="linesandangles_een" d="M18,10V9h2V4h-8v2h-1C9.346,6,8,7.346,8,9v1H6v18h20V10H18z M14,6h4v1h-4V6z M10,9
	c0-0.551,0.449-1,1-1h1v1h2v1h-4V9z M24,26H8V12h16V26z M12.586,21l2-2l-2-2L14,15.586l2,2l2-2L19.414,17l-2,2l2,2L18,22.414l-2-2
	l-2,2L12.586,21z"/>
</svg>