<?xml version="1.0" encoding="iso-8859-1"?>
<!-- Uploaded to: SVG Repo, www.svgrepo.com, Generator: SVG Repo Mixer Tools -->
<svg fill="#000000" height="800px" width="800px" version="1.1" id="Layer_1" xmlns="http://www.w3.org/2000/svg" xmlns:xlink="http://www.w3.org/1999/xlink" 
	 viewBox="0 0 512.001 512.001" xml:space="preserve">
<g>
	<g>
		<path d="M434.643,210.806l-62.214-4.134l-29.052-50.718l32.454,32.879l2.403,0.16l-7.99-43.664
			c-2.149-11.746-11.672-20.235-22.741-20.235h-40.1c-11.092,0-20.587,8.466-22.741,20.235l-21.588,117.986l2.397,0.241
			c16.777,1.692,29.005,16.663,27.312,33.44c-1.587,15.734-14.857,27.468-30.34,27.468c-1.026,0-2.059-0.051-3.101-0.157
			l-7.294-0.736l-2.832,15.479c-1.208,6.605,3.489,12.743,9.669,12.743h23.37v137.175c0,12.721,10.311,23.031,23.031,23.031
			c3.11,0,6.072-0.624,8.778-1.741c-4.267-6.021-6.785-13.364-6.785-21.289V351.794h13.889V488.97
			c0,12.72,10.311,23.031,23.031,23.031s23.031-10.312,23.031-23.031V351.794h28.79c6.192,0,10.879-6.128,9.669-12.743
			l-14.073-76.909c-38.076-2.529-30.191-2.008-39.988-2.651c-9.849-0.671-18.626-7.487-21.321-17.556l-18.214-68.062l33.855,59.103
			c3,5.238,8.423,8.627,14.445,9.026l71.857,4.774c0.407,0.028,0.812,0.041,1.212,0.041c9.411,0,17.335-7.304,17.968-16.832
			C452.094,220.053,444.576,211.465,434.643,210.806z"/>
	</g>
</g>
<g>
	<g>
		<path d="M287.198,26.543l-26.42-24.47c-3.154-2.92-8.082-2.733-11.003,0.422c-2.922,3.156-2.733,8.082,0.422,11.004l26.42,24.47
			c1.498,1.387,3.396,2.073,5.289,2.073c2.093,0,4.18-0.839,5.714-2.495C290.541,34.391,290.352,29.465,287.198,26.543z"/>
	</g>
</g>
<g>
	<g>
		<path d="M270.397,43.938l-52.044-11.642c-4.198-0.945-8.359,1.702-9.298,5.898c-0.939,4.197,1.702,8.359,5.897,9.298
			l52.044,11.642c0.573,0.128,1.145,0.19,1.707,0.19c3.565,0,6.78-2.465,7.591-6.089C277.234,49.04,274.593,44.876,270.397,43.938z"
			/>
	</g>
</g>
<g>
	<g>
		<path d="M444.609,194.506c11.127,3.614,19.753,12.451,23.223,23.455v-23.455H444.609z"/>
	</g>
</g>
<g>
	<g>
		<path d="M490.451,194.506h-7.803v26.942h7.803c2.193,0,3.972-1.779,3.972-3.971v-18.998
			C494.423,196.284,492.645,194.506,490.451,194.506z"/>
	</g>
</g>
<g>
	<g>
		<path d="M501.504,155.82h-11.447v26.942h11.447c2.193,0,3.972-1.779,3.972-3.972v-18.997
			C505.476,157.599,503.698,155.82,501.504,155.82z"/>
	</g>
</g>
<g>
	<g>
		<path d="M422.407,155.82c-2.195,0-3.972,1.779-3.972,3.972v18.997c0,2.195,1.779,3.972,3.972,3.972h52.835V155.82H422.407z"/>
	</g>
</g>
<g>
	<g>
		<path d="M486.997,115.755h-62.556v26.942h62.556c2.193-0.001,3.972-1.779,3.972-3.972v-18.998
			C490.969,117.532,489.191,115.755,486.997,115.755z"/>
	</g>
</g>
<g>
	<g>
		<path d="M407.9,115.754c-2.193,0-3.972,1.779-3.972,3.972v18.998c0,2.195,1.779,3.972,3.972,3.972h5.576v-26.942H407.9z"/>
	</g>
</g>
<g>
	<g>
		<circle cx="327.457" cy="70.542" r="39.778"/>
	</g>
</g>
<g>
	<g>
		<circle cx="177.888" cy="175.586" r="37.573"/>
	</g>
</g>
<g>
	<g>
		<path d="M264.115,276.993l-68.783-6.937l-47.35-31.666l19.12,4.619c-0.224-5.236-1.882-10.355-4.868-14.766
			c-4.263-6.296-10.864-10.627-18.336-12.032l-25.772-4.846c-15.579-2.93-30.561,7.427-33.335,23.025l-16.924,95.19
			c-1.328,7.466,0.375,15.154,4.729,21.363c4.356,6.209,11.005,10.425,18.477,11.718l5.452,0.943H58.739L34.445,240.014
			c-1.5-7.636-8.902-12.611-16.544-11.108c-7.636,1.502-12.61,8.908-11.108,16.544l26.53,134.965
			c1.299,6.608,7.092,11.374,13.827,11.374h2.476L19.597,469.65c-1.868,4.841,0.544,10.278,5.385,12.145
			c4.838,1.868,10.278-0.543,12.145-5.385l32.637-84.623h53.412l18.429,47.787l-5.88,14.857
			c-4.151,10.491,0.988,22.36,11.479,26.511c10.473,4.147,22.354-0.974,26.51-11.478l46.37-117.184
			c2.493-6.3,1.7-13.426-2.117-19.025c-3.807-5.581-10.125-8.919-16.879-8.919c-0.02,0-0.04,0-0.06,0l-49.15,0.143l4.539-22.042
			l-40.603-47.996c28.34,20.554,33.892,24.581,63.246,45.87c2.435,1.765,5.293,2.854,8.285,3.157
			c78.903,7.96,73.798,7.486,75.08,7.486c8.632,0,16.031-6.544,16.917-15.316C280.286,286.285,273.468,277.937,264.115,276.993z
			 M145.785,391.788c7.783,0,14.09-6.309,14.09-14.092c0-5.33-2.961-9.967-7.327-12.362l18.452-0.053l-19.2,48.522l-8.491-22.015
			H145.785z"/>
	</g>
</g>
</svg>