<?xml version="1.0" encoding="utf-8"?>
<!-- Uploaded to: SVG Repo, www.svgrepo.com, Generator: SVG Repo Mixer Tools -->
<svg fill="#000000" version="1.1" id="Layer_1" xmlns="http://www.w3.org/2000/svg" xmlns:xlink="http://www.w3.org/1999/xlink" 
	 width="800px" height="800px" viewBox="0 0 256 209" xml:space="preserve">
<path d="M65.9,26.7c0-13.6,11-24.6,24.6-24.6s24.6,11,24.6,24.6s-11,24.6-24.6,24.6S65.9,40.3,65.9,26.7z M254,191.2
	c0,8.7-7.1,15.8-15.8,15.8h-78.8c-8.7,0-15.8-7.1-15.8-15.8v-27.5H74.8v30.4c0,7.1-5.7,12.8-12.8,12.8H14.8
	c-7.1,0-12.8-5.7-12.8-12.8s5.7-12.8,12.8-12.8h34.5c0,0,0.1-36.7,0.1-37.3c-0.4-7.9,5.2-14.9,13.1-16.3l45.9-7.7c0,0,0-59.2,0-59.2
	c0-11.7,9.5-21.3,21.3-21.3c3.7,0,7.2,0.9,10.2,2.6c8.4,4.5,41.9,29.7,61.1,44c8.8,6.6,13.9,16.9,13.9,27.8l0.1,61.4h23.3
	C246.9,175.4,254,182.5,254,191.2z M183.5,175.4l-0.2-36c0-10.4-4.8-20.1-13-26.5L134,84.7v31.1l10.9-1.8c0,0,0.1,0,0.1,0
	c7.5-1.2,15.2,0.9,21,5.8c5.8,4.9,9.2,12.1,9.3,19.7c0,0.1,0,0.1,0,0.2v35.7h7.9H183.5z M16.5,140.3c12.4,5.6,26.3-0.3,32.6-12.3
	c8-15.5,4.5-33.1-2.4-42.9c0,0,0,0,0,0c-4.8,5.8-12.2,7.6-19.6,8.1C15.3,94,8.4,98.4,4.2,107.7C-1.4,120.1,4.1,134.7,16.5,140.3z"/>
</svg>