<?xml version="1.0" encoding="iso-8859-1"?>
<!-- Uploaded to: SVG Repo, www.svgrepo.com, Generator: SVG Repo Mixer Tools -->
<!DOCTYPE svg PUBLIC "-//W3C//DTD SVG 1.1//EN" "http://www.w3.org/Graphics/SVG/1.1/DTD/svg11.dtd">
<svg fill="#000000" version="1.1" id="Capa_1" xmlns="http://www.w3.org/2000/svg" xmlns:xlink="http://www.w3.org/1999/xlink" 
	 width="800px" height="800px" viewBox="0 0 111.731 111.731"
	 xml:space="preserve">
<g>
	<g>
		<circle cx="95.115" cy="12.528" r="12.096"/>
		<path d="M94.735,26.555c-2.023-1.916-4.765-3.081-7.77-3.04c-6.125,0.083-11.021,5.117-10.938,11.241l1.051,13.767
			C78.066,40.854,80.929,28.24,94.735,26.555z"/>
		<path d="M98.509,58.45c0.009-0.208,0.021-0.414,0.019-0.625l-0.32-23.373c-0.142-4.043-3.047-7.098-3.047-7.098
			c-17.34,1.854-18.391,22.702-18.435,26.584h-2.445c0.409-0.305,0.76-0.698,0.996-1.189c0.785-1.634,0.097-3.595-1.537-4.379
			l-18.634-8.956l-9.028-11.275c-0.098-0.121-0.206-0.245-0.317-0.359c-0.544-0.56-1.191-0.948-1.88-1.198
			c-0.929-0.682-1.976-1.233-3.136-1.601c-1.854-0.587-3.745-0.642-5.519-0.263c-0.722-0.11-1.479-0.069-2.224,0.16l-13.878,4.274
			l-0.425,0.131c-0.895,0.278-1.687,0.892-2.169,1.781l-4.946,9.104L9.14,44.754l-1.212,2.331L7.32,48.292l-0.324,0.676
			l-0.204,0.447c-0.161,0.381-0.283,0.787-0.359,1.186c-0.252,1.793,0.999,3.45,2.793,3.701c1.793,0.251,3.45-1,3.701-2.793
			c0.005,0.199-0.036,0.406-0.115,0.588l-0.03,0.066l0.017-0.027l0.033-0.056l0.067-0.11l0.282-0.461l0.658-1.04l1.384-2.126
			l2.845-4.271l4.686-6.917l2.969-0.604l-5.461,17.246c-0.486,1.534-0.602,3.093-0.417,4.591c-0.234,0.575-0.379,1.198-0.401,1.855
			l-0.468,13.566L5.003,97.625c-0.916,1.574-0.502,3.63,1.013,4.7c1.603,1.137,3.822,0.756,4.957-0.848l16.771-23.69
			c0.365-0.52,0.622-1.148,0.702-1.822l0.05-0.406l0.931-7.729c0.172,0.021,0.343,0.037,0.514,0.047l11.777,13.713l-4.961,22.283
			c-0.392,1.787,0.643,3.619,2.422,4.169c1.876,0.579,3.866-0.472,4.446-2.348l7.465-24.175c0.366-1.215,0.188-2.604-0.618-3.71
			l-0.216-0.298l-10.59-14.549c0.518-0.8,0.943-1.675,1.244-2.625l5.537-17.489l2.735,2.814l0.29,0.3
			c0.338,0.345,0.756,0.624,1.238,0.804l19.217,7.172h-1.085v19.229l13.483,0.642l-0.19,34.26c-0.004,1.863,1.414,3.471,3.305,3.646
			c2.002,0.186,3.776-1.286,3.962-3.289l3.801-40.985c0.256-0.156,0.502-0.326,0.744-0.502l-9.979-16.961
			c-0.129-0.219-0.231-0.447-0.323-0.68c0.398,0.15,0.805,0.281,1.208,0.42l10.706,18.194c0.874,1.477,2.75,2.082,4.332,1.335
			c1.679-0.792,2.396-2.795,1.604-4.475L98.509,58.45z M76.725,53.956c-0.004,0.367,0.001,0.587,0.001,0.609L76.3,54.579
			L76.725,53.956z M84.067,55.858V72.53l-13.946-0.642v-16.67L84.067,55.858z"/>
		<polygon points="82.911,57.015 71.277,56.374 71.277,61.706 82.911,62.347 		"/>
		<polygon points="82.911,63.332 80.8,63.247 80.8,64.804 77.838,64.633 77.838,62.991 76.257,62.946 76.172,64.589 73.295,64.418 
			73.295,62.904 71.277,62.861 71.277,70.733 82.911,71.374 		"/>
		<path d="M34.867,6.136l0.728-2.445c0.82-2.734,3.7-4.292,6.431-3.473l10.9,3.252c2.74,0.821,4.293,3.699,3.476,6.437l-0.588,1.978
			c1.369,1.486,2.442,3.264,1.9,4.888c-0.48,1.441-2.063,0.822-3.818-0.471c-0.044,0.173-0.076,0.347-0.128,0.521
			c-1.675,5.603-7.572,8.788-13.174,7.113c-5.603-1.672-8.781-7.567-7.113-13.171c0.348-1.164,0.885-2.216,1.559-3.148
			C34.713,7.393,34.618,6.964,34.867,6.136z"/>
	</g>
</g>
</svg>