<?xml version="1.0" encoding="utf-8"?>
<!-- Uploaded to: SVG Repo, www.svgrepo.com, Generator: SVG Repo Mixer Tools -->
<svg fill="#000000" width="800px" height="800px" viewBox="0 0 32 32" version="1.1" xmlns="http://www.w3.org/2000/svg">
<title>arson</title>
<path d="M21.138 7.185c1.205 1.743 0.735 3.768-0.55 4.615 0.845-4.262-7.538-6.567-2.326-10.783l0-0.004c-6.968 0.887-8.46 6.238-5.942 10.392-2.697-1.117-3.862-2.762-2.728-5.155-2.604 1.351-3.979 4.039-3.921 6.939 0.045 2.268 0.953 4.038 2.359 5.322-0.709-1.811-0.894-3.702-0.442-5.298 2.234 3.083 8.612-1.25 9.194-4.955-0.002 3.98 3.999 7.398 7.044 3.274 0.543 2.247 0.422 4.575-0.152 6.448 1.172-1.235 1.917-2.834 1.973-4.79 0.079-2.805-1.316-4.654-4.509-6.005zM25.65 21.799l-9.617-7.359-9.617 7.359zM22.959 19.74v-4.592h-3.945v1.574zM9.021 21.799v9.45h13.938v-9.45h-13.938zM13.358 28.579h-2.313v-2.224h2.313v2.224zM13.358 24.733h-2.313v-2.224h2.313v2.224zM17.095 28.579h-2.313v-2.224h2.313v2.224zM17.095 24.733h-2.313v-2.224h2.313v2.224zM18.563 22.509h2.313v2.224h-2.313v-2.224zM20.921 30.981h-2.313v-4.582h2.313v4.582z"></path>
</svg>