<?xml version="1.0" encoding="iso-8859-1"?>
<!-- Uploaded to: SVG Repo, www.svgrepo.com, Generator: SVG Repo Mixer Tools -->
<svg height="800px" width="800px" version="1.1" id="Capa_1" xmlns="http://www.w3.org/2000/svg" xmlns:xlink="http://www.w3.org/1999/xlink" 
	 viewBox="0 0 60.727 60.727" xml:space="preserve">
<g>
	<g>
		<circle style="fill:#010002;" cx="36.003" cy="37.59" r="2.313"/>
		<path style="fill:#010002;" d="M41.281,39.909c-1.502,1.019-3.092,1.489-4.828,1.506c-0.725-0.644-1.854-0.879-2.802-0.123
			c-1.069-1.831-2.179-3.638-3.303-5.438c-0.94-1.505-3.327-0.121-2.382,1.391c1.213,1.94,2.413,3.892,3.559,5.872
			c-0.777,0.674-1.557,1.348-2.336,2.021c-2.161-1.852-4.902-2.406-7.703-1.373c-1.653,0.613-0.939,3.276,0.732,2.66
			c1.868-0.689,3.456-0.479,4.874,0.584c-0.009,0.01-0.019,0.021-0.027,0.03c-3.01-0.042-5.909,0.698-8.528,2.377
			c-1.491,0.957-0.109,3.347,1.392,2.384c2.376-1.526,5.074-2.229,7.863-2.016c0.733,0.451,1.715,0.53,2.542-0.188
			c2.058-1.78,4.117-3.562,6.178-5.344c0.028-0.024,0.047-0.055,0.075-0.08c2.168-0.021,4.26-0.648,6.084-1.89
			C44.133,41.297,42.755,38.907,41.281,39.909z"/>
		<path style="fill:#010002;" d="M38.328,18.496c8.189-0.734,14.01-2.597,14.01-4.781c0-2.166-5.728-4.016-13.813-4.76
			c-1.175-1.966-4.278-3.37-7.926-3.37c-3.647,0-6.751,1.404-7.926,3.37C14.586,9.7,8.858,11.549,8.858,13.715
			c0,2.145,5.614,3.98,13.571,4.739L0,55.142h4.708l19.383-36.546c2.054,0.152,4.238,0.233,6.505,0.233
			c2.104,0,4.133-0.072,6.06-0.203L56.017,55.14h4.71L38.328,18.496z"/>
		<circle style="fill:#010002;" cx="35.098" cy="28.977" r="0.549"/>
		<circle style="fill:#010002;" cx="20.649" cy="31.018" r="1.494"/>
		<circle style="fill:#010002;" cx="13.557" cy="47.857" r="0.941"/>
	</g>
</g>
</svg>