<?xml version="1.0" encoding="iso-8859-1"?>
<!-- Uploaded to: SVG Repo, www.svgrepo.com, Generator: SVG Repo Mixer Tools -->
<svg fill="#000000" height="800px" width="800px" version="1.1" id="Layer_1" xmlns="http://www.w3.org/2000/svg" xmlns:xlink="http://www.w3.org/1999/xlink" 
	 viewBox="0 0 512.001 512.001" xml:space="preserve">
<g>
	<g>
		<path d="M219.33,183.844l-68.403-8.024l-44.733-44.448l42.431,22.245l16.754,1.966V136.13c0-16.843-13.654-30.498-30.498-30.498
			H80.494c-16.843,0-30.498,13.654-30.498,30.498l-0.537,349.656C49.418,500.222,61.088,511.959,75.526,512c0.026,0,0.05,0,0.076,0
			c14.402,0,26.097-11.654,26.138-26.066l0.547-193.255c0-0.024-0.001-0.049-0.001-0.073h10.162l0.014,193.257
			c0.001,14.436,11.706,26.139,26.142,26.138c14.436-0.001,26.139-11.706,26.138-26.142l-0.008-104.198
			c-11.64-4.281-19.965-15.479-19.965-28.585c0-7.82,0-68.253,0-75.809c0-13.346,8.636-24.705,20.611-28.803v-5.15l-29.542-3.465
			c-8.695-1.02-19.377-0.814-25.632-12.366l-34.719-65.206l50.073,49.753c3.46,3.437,7.973,5.614,12.816,6.182l75.879,8.901
			c11.972,1.401,22.773-7.169,24.172-19.097C239.828,196.067,231.278,185.245,219.33,183.844z"/>
	</g>
</g>
<g>
	<g>
		<path d="M234.49,318.039v9.266c2.352-0.553,4.217-1.867,4.217-4.356C238.708,320.666,236.98,319.214,234.49,318.039z"/>
	</g>
</g>
<g>
	<g>
		<path d="M226.192,300.889c0,2.006,1.798,3.251,4.425,4.356v-8.229C227.506,297.639,226.192,299.229,226.192,300.889z"/>
	</g>
</g>
<g>
	<g>
		<path d="M295.473,265.719H272.64c0-13.797,0-16.193,0-32.273c0-6.138-4.975-11.113-11.113-11.113h-4.562
			c-4.103,9.793-11.626,17.633-20.93,22.227h14.378v21.16H220.27v-16.808c-5.472,0.432-7.862-0.079-22.227-1.764v18.571H175.21
			c-6.379,0-11.549,5.171-11.549,11.549v75.809c0,6.379,5.171,11.549,11.549,11.549h120.262c6.379,0,11.549-5.171,11.549-11.549
			v-75.809C307.022,270.89,301.851,265.719,295.473,265.719z M235.182,336.917v2.006c0,0.968-1.314,1.867-2.628,1.867
			c-1.521,0-2.627-0.899-2.627-1.867v-1.729c-8.298-0.277-15.075-4.564-15.075-8.99c0-2.352,2.075-5.809,4.702-5.809
			c2.905,0,5.255,4.08,10.373,4.979v-11.202c-6.362-2.42-13.83-5.394-13.83-14.245c0-1.873,0.31-3.526,0.847-4.998
			c1.978-5.428,7.217-8.225,12.984-9.041v-1.936c0-0.968,1.107-1.867,2.627-1.867c1.315,0,2.628,0.899,2.628,1.867v1.729
			c4.287,0.139,12.378,1.245,12.378,6.017c0,0.856-0.266,2.116-0.841,3.232c-0.681,1.32-1.798,2.438-3.446,2.438
			c-2.099,0-3.386-1.869-7.077-2.438c-0.321-0.049-0.653-0.092-1.013-0.12v0.12v9.976c6.293,2.352,13.623,5.602,13.623,14.937
			C248.804,330.416,243.272,335.603,235.182,336.917z"/>
	</g>
</g>
<g>
	<g>
		<path d="M462.065,317.034c-7.922,15.852-25.458,25.458-43.881,22.5c-2.908-0.467-5.697-1.229-8.343-2.243l0.42,148.643
			C410.303,500.346,421.997,512,436.4,512c0.024,0,0.051,0,0.076,0c14.437-0.041,26.107-11.778,26.066-26.214L462.065,317.034z"/>
	</g>
</g>
<g>
	<g>
		<circle cx="106.81" cy="45.146" r="45.146"/>
	</g>
</g>
<g>
	<g>
		<circle cx="372.294" cy="45.146" r="45.146"/>
	</g>
</g>
<g>
	<g>
		<path d="M462.006,161.042c0-30.601-24.807-55.408-55.408-55.408h-29.477c-16.843,0-30.498,13.654-30.498,30.498v7.146
			l-34.932,36.751l-52.279,16.435c0.481,2.274,0.786,4.603,0.895,6.976c18.64,0,30.5,13.665,31.189,28.605l38.635-12.146
			c3.525-1.108,6.71-3.095,9.256-5.773l7.236-7.613c0,0-0.457,44.725-0.475,279.343c-0.001,14.437,11.701,26.141,26.138,26.142
			c0.001,0,0.001,0,0.001,0c14.436,0,26.139-11.702,26.141-26.138l0.011-155.197c-11.288-9.235-17.187-23.93-14.788-38.876
			l12.602-78.472l-5.187-58.95l23.937,67.591l-11.721,72.984c-1.907,11.88,6.176,23.057,18.055,24.964
			c11.85,1.907,23.05-6.153,24.961-18.053l12.602-78.472c0.579-3.601,0.243-7.288-0.974-10.725l-25.792-72.828l29.87,44.396V161.042
			z"/>
	</g>
</g>
</svg>