<svg width="27" height="27" viewBox="0 0 27 27" fill="none" xmlns="http://www.w3.org/2000/svg">
<path d="M4.5 14.125C4.5 12.2394 4.5 11.2966 5.08579 10.7108C5.67157 10.125 6.61438 10.125 8.5 10.125H9.59315C10.4106 10.125 10.8194 10.125 11.1869 10.2772C11.5545 10.4295 11.8435 10.7185 12.4216 11.2966L13.4534 12.3284C14.0315 12.9065 14.3205 13.1955 14.6881 13.3478C15.0556 13.5 15.4644 13.5 16.2819 13.5H18.5C20.3856 13.5 21.3284 13.5 21.9142 14.0858C22.5 14.6716 22.5 15.6144 22.5 17.5V18.5C22.5 20.3856 22.5 21.3284 21.9142 21.9142C21.3284 22.5 20.3856 22.5 18.5 22.5H8.5C6.61438 22.5 5.67157 22.5 5.08579 21.9142C4.5 21.3284 4.5 20.3856 4.5 18.5V14.125Z" stroke="white" stroke-width="2"/>
<path d="M20.25 13.5V8.5C20.25 6.61438 20.25 5.67157 19.6642 5.08579C19.0784 4.5 18.1356 4.5 16.25 4.5H10.75C8.86438 4.5 7.92157 4.5 7.33579 5.08579C6.75 5.67157 6.75 6.61438 6.75 8.5V10.125" stroke="white" stroke-width="2"/>
</svg>
