<svg width="64" height="64" viewBox="0 0 64 64" fill="none" xmlns="http://www.w3.org/2000/svg">
<path d="M12 55C12.0016 56.5908 12.6342 58.116 13.7591 59.2409C14.884 60.3658 16.4092 60.9984 18 61H52V59H18C16.9391 59 15.9217 58.5786 15.1716 57.8284C14.4214 57.0783 14 56.0609 14 55C14 53.9391 14.4214 52.9217 15.1716 52.1716C15.9217 51.4214 16.9391 51 18 51H52V49H18C16.4092 49.0016 14.884 49.6342 13.7591 50.7591C12.6342 51.884 12.0016 53.4092 12 55Z" fill="#FFF8F8"/>
<path d="M18 53C17.4696 53 16.9609 53.2107 16.5858 53.5858C16.2107 53.9609 16 54.4696 16 55C16 55.5304 16.2107 56.0391 16.5858 56.4142C16.9609 56.7893 17.4696 57 18 57H49.406C49.1377 56.3673 48.9995 55.6872 48.9995 55C48.9995 54.3128 49.1377 53.6327 49.406 53H18Z" fill="#FFF8F8"/>
<path d="M33.18 11L33.943 7.18297L32 3.94397L30.057 7.18297L30.82 11H33.18Z" fill="#FFF8F8"/>
<path d="M33 17H31V20H33V17Z" fill="#FFF8F8"/>
<path d="M28.387 23.277C28.268 23.3564 28.1704 23.4639 28.1029 23.59C28.0354 23.7161 28.0001 23.857 28.0001 24C28.0001 24.143 28.0354 24.2839 28.1029 24.41C28.1704 24.5361 28.268 24.6436 28.387 24.723L30.3 26H33.7L35.616 24.723C35.735 24.6436 35.8326 24.5361 35.9001 24.41C35.9676 24.2839 36.0029 24.143 36.0029 24C36.0029 23.857 35.9676 23.7161 35.9001 23.59C35.8326 23.4639 35.735 23.3564 35.616 23.277L33.7 22H30.3L28.387 23.277ZM34 47V42C34.0003 41.8926 34.0178 41.7859 34.052 41.684L34.592 40.065C34.8622 39.2523 34.9999 38.4014 35 37.545C35.0032 36.6443 34.8603 35.749 34.577 34.894L33.052 30.316C33.0178 30.2141 33.0003 30.1074 33 30V28H31V30C30.9998 30.1074 30.9822 30.2141 30.948 30.316L29.408 34.936C29.1378 35.7483 29 36.5989 29 37.455C28.9966 38.3557 29.1395 39.251 29.423 40.106L29.949 41.684C29.9824 41.786 29.9996 41.8927 30 42V47H34Z" fill="#FFF8F8"/>
<path d="M54.6 30L48.136 18H51C51.5304 18 52.0391 17.7893 52.4142 17.4142C52.7893 17.0391 53 16.5304 53 16V12.685C53.0004 12.5175 52.9395 12.3557 52.8286 12.2301C52.7178 12.1045 52.5648 12.0239 52.3986 12.0034C52.2324 11.983 52.0644 12.0241 51.9265 12.1191C51.7885 12.2141 51.6902 12.3564 51.65 12.519L51 15.144C50.936 16 50.261 16 48.866 16H43.116C42.3128 16.0016 41.5172 15.8441 40.7752 15.5365C40.0332 15.2289 39.3595 14.7774 38.793 14.208C38.4114 13.8238 37.9573 13.5192 37.4571 13.3118C36.9569 13.1045 36.4205 12.9985 35.879 13H28.121C27.5796 12.9985 27.0433 13.1044 26.5431 13.3116C26.0429 13.5188 25.5888 13.8231 25.207 14.207C24.6407 14.7767 23.967 15.2285 23.225 15.5363C22.483 15.844 21.6873 16.0016 20.884 16H15.139C13.744 16 13.069 16 13.005 15.144L12.35 12.519C12.3098 12.3564 12.2115 12.2141 12.0735 12.1191C11.9356 12.0241 11.7676 11.983 11.6014 12.0034C11.4352 12.0239 11.2822 12.1045 11.1714 12.2301C11.0605 12.3557 10.9996 12.5175 11 12.685V16C11 16.5304 11.2107 17.0391 11.5858 17.4142C11.9609 17.7893 12.4696 18 13 18H15.864L9.4 30H9C9 32.1217 9.84285 34.1565 11.3431 35.6568C12.8434 37.1571 14.8783 38 17 38C19.1217 38 21.1566 37.1571 22.6569 35.6568C24.1571 34.1565 25 32.1217 25 30H24.6L18.136 18H21.878C22.4196 18.0015 22.9562 17.8955 23.4566 17.6881C23.9569 17.4807 24.4112 17.1762 24.793 16.792C25.3601 16.222 26.0346 15.7701 26.7775 15.4625C27.5204 15.1549 28.3169 14.9977 29.121 15H34.879C35.6831 14.9977 36.4796 15.1549 37.2225 15.4625C37.9654 15.7701 38.6399 16.222 39.207 16.792C39.5888 17.1762 40.0431 17.4807 40.5434 17.6881C41.0438 17.8955 41.5804 18.0015 42.122 18H45.864L39.4 30H39C39 32.1217 39.8429 34.1565 41.3431 35.6568C42.8434 37.1571 44.8783 38 47 38C49.1217 38 51.1566 37.1571 52.6569 35.6568C54.1571 34.1565 55 32.1217 55 30H54.6ZM11.674 30L17 20.109L22.326 30H11.674ZM41.674 30L47 20.109L52.326 30H41.674Z" fill="#FFF8F8"/>
</svg>
