<svg width="247" height="234" viewBox="0 0 247 234" fill="none" xmlns="http://www.w3.org/2000/svg">
<g clip-path="url(#clip0_27_141)">
<path d="M240.647 131.516C233.685 152.625 218.682 175.757 196.597 183.292C163.236 194.672 160.258 222.062 99.7076 221.845C90.8676 221.86 82.0523 220.914 73.4169 219.022C69.1949 218.084 65.0369 216.877 60.9683 215.41C25.0985 202.471 5.4605 171.7 2.64769 138.819C-1.04767 95.5735 28.3862 73.7523 47.5494 60.8857C66.7126 48.019 88.5958 0.268322 148.124 -0.0155398C157.211 -0.0924145 166.277 0.877382 175.143 2.87469C195.353 7.51969 216.153 18.7038 228.648 35.751C229.58 37.031 230.48 38.3419 231.347 39.6838C248.219 65.9178 250.144 102.737 240.647 131.516Z" fill="#92AAE7"/>
<path d="M65.5358 93.2615H14.3737V168.031H65.5358V93.2615Z" stroke="black" stroke-width="0.516112" stroke-linecap="round" stroke-linejoin="round"/>
<path d="M62.7128 97.3904H17.1969V163.907H62.7128V97.3904Z" stroke="black" stroke-width="0.516112" stroke-linecap="round" stroke-linejoin="round"/>
<path d="M51.6215 113.596H28.283V147.701H51.6215V113.596Z" stroke="black" stroke-width="0.516112" stroke-linecap="round" stroke-linejoin="round"/>
<path d="M235.419 93.2614H184.257V168.031H235.419V93.2614Z" stroke="black" stroke-width="0.516112" stroke-linecap="round" stroke-linejoin="round"/>
<path d="M232.596 97.3904H187.08V163.907H232.596V97.3904Z" stroke="black" stroke-width="0.516112" stroke-linecap="round" stroke-linejoin="round"/>
<path d="M221.505 113.596H198.171V147.701H221.505V113.596Z" stroke="black" stroke-width="0.516112" stroke-linecap="round" stroke-linejoin="round"/>
<path d="M212.349 16.7788H37.7742C37.2214 16.7788 36.674 16.8878 36.1633 17.0995C35.6526 17.3112 35.1887 17.6215 34.798 18.0126C34.4074 18.4038 34.0977 18.8681 33.8866 19.379C33.6755 19.8899 33.5672 20.4375 33.5679 20.9903V156.888C33.5679 157.44 33.6767 157.987 33.8881 158.497C34.0994 159.008 34.4093 159.471 34.7999 159.862C35.1905 160.253 35.6542 160.562 36.1645 160.774C36.6748 160.985 37.2218 161.094 37.7742 161.094H143.665L156.051 170.725L154.178 161.094H212.349C213.465 161.094 214.534 160.651 215.323 159.862C216.112 159.073 216.555 158.003 216.555 156.888V20.9903C216.556 20.4375 216.448 19.8899 216.237 19.379C216.025 18.8681 215.716 18.4038 215.325 18.0126C214.934 17.6215 214.47 17.3112 213.96 17.0995C213.449 16.8878 212.902 16.7788 212.349 16.7788Z" fill="black" stroke="black" stroke-width="0.516112" stroke-linecap="round" stroke-linejoin="round"/>
<path d="M215.415 12.5674H40.8399C39.7243 12.5674 38.6544 13.0105 37.8655 13.7994C37.0767 14.5882 36.6335 15.6581 36.6335 16.7737V152.671C36.6335 153.787 37.0767 154.857 37.8655 155.645C38.6544 156.434 39.7243 156.877 40.8399 156.877H146.725L159.112 166.508L157.244 156.877H215.415C216.53 156.877 217.6 156.434 218.389 155.645C219.178 154.857 219.621 153.787 219.621 152.671V16.7737C219.621 15.6581 219.178 14.5882 218.389 13.7994C217.6 13.0105 216.53 12.5674 215.415 12.5674Z" fill="#0E204E"/>
<path d="M84.5442 78.8722C84.5442 78.8722 79.8476 71.0479 72.6736 70.6144C65.4997 70.1809 64.1784 76.4258 61.7217 77.9948C59.2651 79.5638 57.2522 76.6529 54.1194 77.7677C50.9866 78.8825 51.4356 80.6734 48.9583 81.7934C46.481 82.9134 44.7107 80.0025 42.2489 81.1224C39.787 82.2424 39.1212 83.5791 39.1212 83.5791H94.3452C94.3452 83.5791 92.7968 79.3315 90.3195 78.6658C87.8422 78 87.228 80.885 84.5442 78.8722Z" fill="white"/>
<path d="M209.288 49.8874C209.288 49.8874 205.856 44.1637 200.618 43.8334C195.379 43.5031 194.399 48.0913 192.603 49.2371C190.806 50.3828 189.33 48.2513 187.039 49.0719C184.747 49.8925 185.072 51.1983 183.276 52.0189C181.48 52.8395 180.18 50.708 178.368 51.5028C176.557 52.2976 176.077 53.304 176.077 53.304H216.514C216.514 53.304 215.368 50.2074 213.572 49.6912C211.776 49.1751 211.275 51.3634 209.288 49.8874Z" fill="white"/>
<path d="M193.526 28.1694C193.526 28.1694 187.183 17.5942 177.527 16.9904C167.87 16.3865 166.038 24.8456 162.715 26.972C159.391 29.0984 156.671 25.1604 152.444 26.6726C148.217 28.1848 148.831 30.6002 145.497 32.1073C142.163 33.6143 139.758 29.6919 136.434 31.2041C133.11 32.7163 132.207 34.5278 132.207 34.5278H206.816C206.816 34.5278 204.7 28.7887 201.382 27.8803C198.063 26.972 197.149 30.8841 193.526 28.1694Z" fill="white"/>
<g opacity="0.15">
<path d="M55.7917 136.666C55.6748 136.444 55.5121 136.249 55.3143 136.094C55.1165 135.94 54.8881 135.828 54.6442 135.768C54.4003 135.708 54.1465 135.701 53.8994 135.746C53.6524 135.792 53.4178 135.889 53.2111 136.032C52.3131 136.594 51.9312 137.843 51.8434 138.844C51.7402 140.016 52.6434 142.493 52.6434 142.493C52.6434 142.493 54.0988 141.404 54.1917 141.327C55.1517 140.388 56.4626 138.013 55.7917 136.666Z" fill="black"/>
<path d="M41.5522 149.75C41.7793 149.445 41.9806 149.172 42.0064 149.13C42.6877 147.974 43.3173 145.342 42.3161 144.217C42.1449 144.036 41.9374 143.892 41.7072 143.797C41.477 143.701 41.2291 143.655 40.9798 143.661C40.7305 143.667 40.4854 143.726 40.2603 143.833C40.0352 143.941 39.8353 144.094 39.6736 144.284C38.9562 145.064 38.9149 146.349 39.0955 147.355C39.2762 148.361 40.4374 150.096 40.7522 150.55L40.0813 151.221C39.0491 152.253 38.0168 153.326 36.9846 154.317C37.0716 154.516 37.1734 154.707 37.2891 154.89L37.3356 154.849C38.3678 153.786 39.431 152.676 40.4735 151.572L41.4387 150.57C41.547 150.746 42.827 152.821 43.7663 153.445C44.5973 154.003 45.8308 154.477 46.8165 154.137C47.0547 154.062 47.2747 153.939 47.4622 153.774C47.6497 153.609 47.8006 153.407 47.9051 153.18C48.0097 152.954 48.0656 152.708 48.0692 152.458C48.0728 152.209 48.0241 151.961 47.9262 151.732C47.2914 150.369 44.6231 149.905 43.2812 150.07C43.1831 150.07 41.8257 150.405 41.4851 150.508C42.1922 149.77 42.9044 149.043 43.6321 148.356C44.6089 147.424 45.6432 146.553 46.7288 145.75C46.7804 145.833 48.112 148.005 49.072 148.645C49.9029 149.203 51.1364 149.678 52.1222 149.337C52.3608 149.263 52.5813 149.14 52.7693 148.975C52.9572 148.811 53.1084 148.609 53.2131 148.382C53.3177 148.155 53.3735 147.909 53.3767 147.659C53.3799 147.409 53.3306 147.161 53.2318 146.932C52.597 145.569 49.9287 145.105 48.5868 145.27C48.4836 145.27 47.0385 145.636 46.7649 145.719C46.8269 145.673 46.8888 145.616 46.9559 145.574C48.0736 144.801 49.2585 144.129 50.4964 143.567C51.1777 143.252 51.8435 142.984 52.4989 142.741C52.7054 143.169 53.6757 145.12 54.4705 145.796C55.2653 146.473 56.3956 147.051 57.4278 146.829C57.6734 146.782 57.9064 146.683 58.1116 146.54C58.3167 146.397 58.4894 146.213 58.6185 145.998C58.7475 145.784 58.8299 145.545 58.8604 145.297C58.891 145.049 58.8688 144.797 58.7955 144.558C58.3155 143.133 55.6988 142.38 54.3724 142.4C54.3002 142.4 53.557 142.488 53.0202 142.566C53.3196 142.457 53.6241 142.344 53.9079 142.251C54.9866 141.884 55.9724 141.621 56.891 141.394C57.4072 141.265 57.8665 141.162 58.3 141.069C58.7232 141.389 60.4419 142.617 61.4431 142.865C62.4444 143.113 63.7295 143.092 64.5398 142.406C64.7354 142.251 64.8962 142.057 65.0118 141.836C65.1274 141.615 65.1952 141.372 65.2107 141.124C65.2263 140.875 65.1893 140.626 65.1022 140.392C65.0151 140.159 64.8797 139.946 64.705 139.768C63.6211 138.736 60.9632 139.252 59.7813 139.887C59.678 139.939 58.1813 140.981 58.202 140.997H58.2278C57.8046 141.074 57.3555 141.167 56.8704 141.275C55.9672 141.487 54.9505 141.729 53.8615 142.07C52.6829 142.422 51.5264 142.844 50.3984 143.335C49.1395 143.878 47.9307 144.531 46.7856 145.285L46.7443 145.316C47.023 144.971 47.7765 143.985 47.8075 143.907C48.4887 142.746 49.1236 140.114 48.1223 138.989C47.9507 138.807 47.7428 138.664 47.5121 138.568C47.2815 138.472 47.0332 138.426 46.7835 138.432C46.5338 138.439 46.2882 138.497 46.0627 138.605C45.8372 138.712 45.6369 138.866 45.4747 139.056C44.7624 139.835 44.716 141.12 44.8966 142.127C45.1031 143.242 46.5017 145.249 46.6153 145.409C45.463 146.208 44.3663 147.084 43.3328 148.031C42.7341 148.604 42.1406 149.172 41.5522 149.75Z" fill="black"/>
<path d="M36.6337 150.281V152.671C36.6331 152.945 36.659 153.218 36.7111 153.487C37.0156 152.387 37.1085 151.092 36.6337 150.281Z" fill="black"/>
<path d="M58.8523 103.357C60.2045 101.426 61.6806 96.9051 60.0858 94.7994C59.8112 94.457 59.4674 94.1763 59.0769 93.9757C58.6865 93.7751 58.2581 93.6591 57.8198 93.6352C57.3815 93.6114 56.9431 93.6802 56.5331 93.8372C56.1232 93.9942 55.751 94.2359 55.4408 94.5465C54.0783 95.811 53.8202 98.0922 54.0009 99.8418C54.2125 101.906 56.5814 105.88 56.5814 105.88C56.5814 105.88 58.7336 103.542 58.8523 103.357Z" fill="black"/>
<path d="M76.5239 97.2458C74.3201 95.8006 69.9074 97.5864 68.0752 99.0625C67.9203 99.1915 65.6701 101.478 65.7165 101.499H65.763C65.0662 101.772 64.323 102.077 63.5127 102.428C62.0263 103.083 60.3541 103.836 58.5839 104.781C56.6694 105.778 54.8151 106.886 53.0305 108.1C51.0227 109.445 49.14 110.969 47.4049 112.652L47.343 112.714C47.7094 112.032 48.659 110.092 48.7158 109.937C49.5106 107.718 49.748 102.964 47.6475 101.359C47.2941 101.098 46.8893 100.915 46.4598 100.822C46.0303 100.73 45.586 100.729 45.1564 100.822C44.7268 100.914 44.3218 101.097 43.9682 101.357C43.6146 101.618 43.3206 101.951 43.1057 102.335C42.1251 103.919 42.4812 106.185 43.1057 107.826C43.8179 109.674 46.8939 112.683 47.1417 112.925C45.4171 114.679 43.8119 116.546 42.3367 118.515C41.4696 119.655 40.6335 120.837 39.8077 122.024C40.1019 121.426 40.3651 120.889 40.3909 120.806C41.1858 118.592 41.4232 113.839 39.3226 112.234C38.9453 111.941 38.5017 111.745 38.031 111.664C37.5603 111.583 37.0768 111.619 36.6233 111.769V121.431C37.4646 122.427 38.3368 123.309 38.6878 123.666C38.3781 124.125 38.0633 124.579 37.7536 125.044L36.6182 126.731V128.527C37.253 127.536 37.893 126.545 38.5278 125.549C38.9665 124.863 39.4103 124.187 39.8542 123.485C40.0968 123.753 42.9921 126.912 44.814 127.686C46.4346 128.372 48.69 128.801 50.3054 127.872C50.695 127.669 51.0369 127.386 51.3087 127.041C51.5804 126.696 51.7757 126.298 51.8816 125.872C51.9876 125.446 52.0017 125.002 51.923 124.57C51.8443 124.138 51.6747 123.728 51.4254 123.366C49.8771 121.224 45.134 121.302 42.8889 122.019C42.7238 122.071 40.489 123.077 39.9368 123.361C40.9122 121.859 41.9031 120.373 42.9354 118.948C44.322 117.014 45.834 115.173 47.4617 113.436C47.5752 113.56 50.5583 116.868 52.4473 117.663C54.0627 118.35 56.3181 118.778 57.9336 117.849C58.3235 117.647 58.666 117.364 58.9382 117.019C59.2105 116.675 59.4064 116.276 59.5128 115.85C59.6192 115.424 59.6337 114.98 59.5554 114.548C59.4771 114.116 59.3078 113.705 59.0587 113.343C57.5104 111.201 52.7621 111.279 50.5222 111.996C50.3467 112.048 47.9417 113.137 47.5236 113.364C47.6217 113.261 47.7094 113.147 47.8023 113.049C49.4815 111.354 51.307 109.81 53.2576 108.435C54.326 107.661 55.3943 106.985 56.442 106.371C56.9581 107.047 59.2445 110.102 60.8444 111.016C62.4444 111.929 64.5708 112.564 66.2791 111.805C66.6888 111.647 67.0601 111.403 67.3684 111.09C67.6766 110.777 67.9148 110.403 68.0671 109.991C68.2194 109.579 68.2823 109.139 68.2517 108.701C68.221 108.263 68.0975 107.836 67.8894 107.449C66.5991 105.147 61.8612 104.698 59.5542 105.168C59.4251 105.194 58.1813 105.596 57.2781 105.901C57.7529 105.622 58.2432 105.323 58.7077 105.065C60.447 104.084 62.0986 103.295 63.5643 102.608C64.4056 102.226 65.1695 101.896 65.892 101.576C66.723 101.978 70.0983 103.578 71.8996 103.64C73.7008 103.702 75.9149 103.284 77.0607 101.834C77.3462 101.506 77.56 101.122 77.6885 100.706C77.817 100.291 77.8572 99.8532 77.8067 99.4212C77.7562 98.9893 77.616 98.5726 77.3951 98.198C77.1742 97.8234 76.8774 97.499 76.5239 97.2458Z" fill="black"/>
<path d="M36.6337 133.002V138.762C36.7791 138.847 36.9289 138.925 37.0827 138.994C38.7033 139.681 40.9587 140.109 42.5741 139.18C42.9636 138.977 43.3056 138.694 43.5773 138.349C43.8491 138.004 44.0444 137.606 44.1503 137.18C44.2562 136.754 44.2703 136.31 44.1917 135.878C44.113 135.446 43.9434 135.036 43.6941 134.674C42.4451 132.93 39.0594 132.651 36.6337 133.002Z" fill="black"/>
<path d="M37.7898 155.561C38.1813 155.977 38.6539 156.309 39.1786 156.535C39.7032 156.762 40.2686 156.878 40.84 156.877H42.1561C41.2787 155.799 39.0078 155.422 37.7898 155.561Z" fill="black"/>
<path d="M186.791 90.8976C186.848 90.8976 184.464 87.801 184.288 87.6152C182.291 85.5507 177.217 82.7689 174.337 84.1985C172.273 85.2307 171.798 87.8113 172.98 89.6848C174.162 91.5583 176.851 92.4305 178.988 92.6111C181.491 92.8279 186.791 90.8976 186.791 90.8976Z" fill="black"/>
<path d="M219.611 152.547V150.441C218.656 149.972 217.665 149.502 216.648 149.027C217.095 147.47 217.448 145.888 217.706 144.289C218.353 144.219 218.99 144.086 219.611 143.892V137.183C218.239 136.514 216.768 136.073 215.255 135.877C215.037 135.699 214.804 135.542 214.558 135.407C212.612 134.339 210.063 134.968 209.165 137.1C207.916 140.057 211.012 144.95 213.185 146.824C213.309 146.932 214.837 147.974 215.807 148.62C215.177 148.325 214.573 148.036 213.918 147.747C212.638 147.164 211.337 146.617 209.944 146.024L207.88 145.229C207.193 144.95 206.434 144.744 205.702 144.491C204.004 143.949 202.249 143.458 200.478 143.046C200.995 141.92 202.734 137.884 202.749 135.748C202.765 133.611 202.176 130.876 200.38 129.498C198.584 128.12 196.004 128.388 194.791 130.354C193.103 133.09 195.426 138.395 197.289 140.579C197.402 140.713 198.915 142.127 199.761 142.886C198.693 142.633 197.63 142.369 196.541 142.158C193.392 141.523 190.192 140.981 186.998 140.424C186.022 140.253 185.047 140.073 184.076 139.908C184.262 139.51 186.445 134.772 186.456 132.367C186.456 130.225 185.888 127.49 184.087 126.117C183.675 125.778 183.196 125.529 182.681 125.388C182.167 125.246 181.628 125.215 181.1 125.296C180.573 125.377 180.068 125.568 179.62 125.857C179.171 126.146 178.789 126.527 178.497 126.974C176.815 129.709 179.132 135.015 180.995 137.193C181.14 137.358 183.318 139.386 183.896 139.877C181.749 139.484 179.617 139.072 177.527 138.581C174.705 137.933 171.928 137.104 169.212 136.099C169.3 135.913 171.602 130.979 171.618 128.512C171.618 126.37 171.045 123.64 169.243 122.262C168.832 121.923 168.353 121.676 167.839 121.535C167.325 121.393 166.787 121.362 166.26 121.443C165.733 121.524 165.229 121.715 164.781 122.004C164.333 122.292 163.951 122.672 163.659 123.119C161.971 125.854 164.294 131.16 166.157 133.338C166.302 133.508 168.65 135.691 169.104 136.057C168.944 136.001 168.774 135.954 168.619 135.892C165.927 134.806 163.336 133.483 160.877 131.939C159.51 131.103 158.245 130.225 157.037 129.358C157.553 128.481 159.902 124.455 160.16 122.236C160.408 120.11 160.134 117.333 158.493 115.764C156.852 114.195 154.266 114.179 152.847 116.006C150.87 118.535 152.594 124.068 154.204 126.437C154.292 126.566 155.329 127.779 156.098 128.651C155.556 128.244 154.994 127.836 154.483 127.438C152.568 125.947 150.906 124.46 149.445 123.134C148.62 122.375 147.897 121.668 147.211 121.002C147.278 119.877 147.484 115.325 146.694 113.261C145.905 111.196 144.408 108.92 142.23 108.285C140.052 107.651 137.745 108.802 137.327 111.098C136.744 114.257 140.816 118.37 143.34 119.728C143.562 119.846 147.18 121.276 147.185 121.235C147.19 121.193 147.185 121.183 147.185 121.168C147.825 121.823 148.516 122.515 149.285 123.258C150.72 124.62 152.382 126.148 154.245 127.686C156.266 129.366 158.382 130.927 160.583 132.362C163.034 133.983 165.624 135.38 168.325 136.537L168.423 136.574C167.489 136.486 164.862 136.331 164.655 136.341C161.796 136.491 156.351 138.473 155.53 141.575C155.408 142.094 155.397 142.634 155.497 143.158C155.597 143.682 155.806 144.179 156.11 144.617C156.415 145.055 156.809 145.424 157.265 145.701C157.722 145.977 158.232 146.153 158.761 146.22C161.001 146.576 163.38 145.115 164.924 143.639C166.663 141.962 168.593 137.095 168.748 136.708C171.538 137.824 174.401 138.752 177.315 139.484C179.008 139.918 180.722 140.305 182.446 140.671C181.635 140.62 180.897 140.584 180.804 140.589C177.94 140.744 172.5 142.72 171.679 145.822C171.086 148.062 172.712 150.116 174.91 150.467C177.109 150.818 179.529 149.363 181.073 147.887C182.616 146.411 184.365 142.261 184.809 141.177L186.796 141.58C189.981 142.209 193.16 142.824 196.262 143.515C197.356 143.763 198.424 144.031 199.493 144.32C198.77 144.279 198.161 144.248 198.068 144.253C195.209 144.403 189.764 146.385 188.943 149.487C188.35 151.721 189.976 153.781 192.174 154.132C194.373 154.483 196.819 153.027 198.337 151.551C199.854 150.075 201.459 146.328 201.996 145.027C203.08 145.342 204.169 145.662 205.206 146.018C205.908 146.276 206.605 146.478 207.296 146.777L209.361 147.613C210.646 148.196 211.977 148.79 213.216 149.389C214.083 149.796 214.899 150.204 215.724 150.612C214.641 150.354 212.504 149.894 212.318 149.879C209.469 149.595 203.787 150.725 202.512 153.672C202.285 154.192 202.185 154.758 202.222 155.324C202.259 155.89 202.431 156.438 202.724 156.924H211.714C213.608 155.376 215.972 151.407 216.277 150.885C217.433 151.417 218.579 151.985 219.611 152.547Z" fill="black"/>
<path d="M214.718 122.752C214.718 122.928 215.234 124.94 215.508 126.04C214.754 125.24 214.011 124.44 213.221 123.655C210.95 121.39 208.576 119.17 206.223 116.946C205.5 116.265 204.788 115.578 204.076 114.881C204.447 114.649 208.881 111.903 210.223 109.901C211.415 108.125 212.437 105.524 211.694 103.382C210.95 101.241 208.659 100.038 206.532 101.013C203.622 102.366 202.631 108.069 202.982 110.918C203.007 111.129 203.704 114.014 203.921 114.752C202.373 113.245 200.793 111.723 199.322 110.164C197.342 108.068 195.499 105.845 193.805 103.511C193.981 103.408 198.62 100.559 199.998 98.5103C201.185 96.7297 202.213 94.1337 201.469 91.9918C200.726 89.8499 198.429 88.6474 196.334 89.6228C193.418 90.9751 192.427 96.6781 192.778 99.527C192.809 99.749 193.557 102.866 193.738 103.419C193.64 103.284 193.521 103.15 193.423 103.016C191.778 100.622 190.346 98.0889 189.145 95.4446C188.463 93.9892 187.896 92.5647 187.369 91.1609C188.288 90.7222 192.463 88.6577 193.903 86.9494C195.343 85.2411 196.587 82.8205 196.086 80.6322C195.586 78.4439 193.433 76.9729 191.24 77.711C188.195 78.7432 186.595 84.2966 186.595 87.1662C186.595 87.321 186.791 88.9055 186.951 90.0512C186.724 89.4164 186.481 88.7661 186.275 88.1519C185.501 85.8501 184.933 83.6979 184.448 81.7831C184.18 80.6941 183.958 79.7187 183.762 78.7742C184.438 77.871 187.111 74.1963 187.591 72.0647C188.071 69.9332 188.107 67.1875 186.616 65.4533C185.124 63.7192 182.58 63.4302 180.975 65.0972C178.745 67.4094 179.875 73.0866 181.227 75.6156C181.346 75.8323 183.565 79.0374 183.602 78.9909L183.643 78.9393C183.818 79.8374 184.009 80.7973 184.242 81.8399C184.691 83.7701 185.212 85.9688 185.94 88.2706C186.696 90.7833 187.599 93.2493 188.644 95.6562C189.8 98.3552 191.194 100.946 192.809 103.398C192.831 103.424 192.852 103.452 192.871 103.48C192.138 102.892 190.037 101.313 189.862 101.21C187.39 99.7593 181.759 98.4019 179.359 100.539C178.968 100.905 178.658 101.35 178.451 101.845C178.244 102.34 178.143 102.872 178.156 103.408C178.17 103.945 178.296 104.472 178.527 104.956C178.759 105.439 179.09 105.869 179.498 106.216C181.171 107.764 183.958 107.836 186.063 107.449C188.443 107.016 192.737 104.017 193.077 103.78C194.785 106.24 196.654 108.585 198.672 110.799C199.844 112.094 201.062 113.379 202.285 114.618C201.64 114.128 201.051 113.694 200.964 113.643C198.491 112.192 192.861 110.84 190.466 112.977C188.737 114.525 188.964 117.106 190.6 118.654C192.236 120.202 195.064 120.275 197.17 119.888C199.276 119.501 203.018 117.018 203.993 116.347L205.428 117.782C207.74 120.063 210.073 122.329 212.256 124.615C213.03 125.426 213.768 126.246 214.506 127.067C213.928 126.633 213.438 126.272 213.355 126.226C210.883 124.775 205.252 123.423 202.858 125.56C201.129 127.108 201.356 129.689 202.992 131.211C204.628 132.734 207.456 132.837 209.562 132.45C211.668 132.063 215.048 129.818 216.209 129.028C216.942 129.89 217.675 130.752 218.346 131.609C218.769 132.187 219.213 132.718 219.611 133.312V130.731C219.595 130.714 219.581 130.695 219.569 130.674C218.449 129.281 217.247 127.924 216.003 126.587C217.251 125.802 218.457 124.953 219.616 124.042V112.533C219.15 112.554 218.692 112.666 218.269 112.863C215.358 114.195 214.367 119.903 214.718 122.752Z" fill="black"/>
<path d="M99.2639 156.15C98.5001 155.68 97.793 155.19 97.1169 154.699C97.4111 154.183 98.722 151.959 98.8665 150.715C99.0111 149.471 98.8665 147.969 97.9324 147.102C97.7233 146.889 97.4718 146.722 97.1941 146.613C96.9165 146.503 96.6189 146.453 96.3206 146.465C96.0224 146.478 95.7301 146.553 95.4628 146.686C95.1954 146.819 94.9589 147.006 94.7686 147.236C93.6641 148.656 94.6293 151.747 95.5325 153.074C95.5789 153.146 96.1621 153.827 96.5647 154.312C96.2602 154.085 95.9453 153.858 95.6615 153.636C94.588 152.8 93.659 151.969 92.8435 151.226C92.379 150.803 91.9713 150.405 91.5945 150.034C91.6307 149.404 91.7442 146.865 91.3107 145.714C90.8771 144.563 90.0307 143.288 88.8127 142.932C88.5309 142.838 88.2327 142.804 87.9371 142.833C87.6415 142.861 87.3551 142.951 87.0965 143.097C86.8378 143.243 86.6126 143.442 86.4353 143.68C86.2579 143.918 86.1325 144.191 86.067 144.48C85.7418 146.245 88.023 148.547 89.432 149.311C89.5559 149.378 91.579 150.183 91.5842 150.152V150.116C91.9455 150.483 92.3326 150.87 92.7609 151.288C93.5661 152.047 94.4796 152.898 95.5376 153.76C96.666 154.704 97.85 155.58 99.0833 156.382L99.8575 156.862H100.492C100.09 156.64 99.6665 156.397 99.2639 156.15Z" fill="black"/>
<path d="M96.7764 154.746C96.7764 154.72 94.7119 154.013 94.5932 153.987C93.0449 153.647 89.7985 153.91 88.916 155.463C88.6697 155.891 88.5924 156.395 88.6992 156.877H94.9854C95.6246 156.203 96.2226 155.492 96.7764 154.746Z" fill="black"/>
<path d="M124.646 147.742C124.238 147.36 123.841 146.973 123.444 146.591C123.65 146.462 126.132 144.924 126.881 143.804C127.547 142.808 128.12 141.358 127.707 140.155C127.618 139.87 127.471 139.607 127.274 139.383C127.077 139.159 126.835 138.978 126.564 138.854C126.293 138.729 125.998 138.663 125.7 138.66C125.402 138.656 125.106 138.716 124.832 138.834C123.201 139.588 122.649 142.782 122.845 144.372C122.845 144.491 123.247 146.111 123.361 146.519C122.478 145.678 121.611 144.826 120.78 143.938C119.671 142.761 118.636 141.515 117.684 140.207C117.782 140.15 120.378 138.555 121.147 137.41C121.813 136.414 122.386 134.958 121.967 133.761C121.879 133.476 121.733 133.213 121.536 132.988C121.34 132.764 121.099 132.584 120.828 132.458C120.557 132.333 120.264 132.267 119.966 132.262C119.667 132.258 119.372 132.317 119.098 132.434C117.467 133.193 116.91 136.388 117.106 137.977C117.106 138.101 117.544 139.846 117.622 140.155L117.446 139.928C116.525 138.589 115.723 137.171 115.052 135.691C114.67 134.881 114.355 134.081 114.061 133.296C114.577 133.049 116.91 131.898 117.715 130.943C118.52 129.988 119.217 128.641 118.938 127.407C118.881 127.114 118.764 126.836 118.593 126.59C118.422 126.345 118.201 126.139 117.945 125.985C117.689 125.83 117.403 125.732 117.107 125.695C116.81 125.658 116.509 125.684 116.223 125.771C114.52 126.344 113.643 129.456 113.643 131.061C113.643 131.149 113.751 132.032 113.839 132.677C113.715 132.321 113.576 131.96 113.462 131.614C113.028 130.329 112.708 129.121 112.43 128.053C112.28 127.438 112.156 126.886 112.043 126.365C112.419 125.849 113.921 123.784 114.19 122.608C114.458 121.431 114.463 119.877 113.643 118.907C113.458 118.673 113.226 118.48 112.961 118.341C112.697 118.202 112.406 118.121 112.108 118.102C111.81 118.083 111.512 118.127 111.232 118.231C110.952 118.335 110.697 118.497 110.484 118.706C109.235 120.001 109.87 123.18 110.629 124.595C110.69 124.713 111.934 126.509 111.955 126.484V126.453C112.048 126.969 112.156 127.485 112.29 128.078C112.538 129.157 112.832 130.37 113.24 131.691C113.664 133.095 114.167 134.473 114.747 135.82C115.397 137.332 116.177 138.784 117.08 140.161L117.116 140.207C116.708 139.877 115.532 138.994 115.434 138.937C114.05 138.122 110.897 137.389 109.555 138.561C109.339 138.766 109.168 139.014 109.053 139.29C108.939 139.565 108.883 139.861 108.891 140.16C108.898 140.458 108.968 140.751 109.095 141.021C109.223 141.29 109.406 141.53 109.632 141.724C110.567 142.581 112.13 142.633 113.307 142.416C114.639 142.173 117.039 140.496 117.23 140.351C118.185 141.729 119.232 143.041 120.362 144.279C121.018 145.007 121.699 145.714 122.391 146.416C122.029 146.142 121.699 145.9 121.653 145.874C120.264 145.058 117.116 144.326 115.774 145.497C115.558 145.702 115.387 145.951 115.272 146.226C115.158 146.502 115.102 146.798 115.11 147.096C115.117 147.394 115.187 147.688 115.315 147.957C115.442 148.227 115.625 148.467 115.852 148.661C116.786 149.518 118.35 149.569 119.526 149.352C120.703 149.136 122.798 147.747 123.345 147.371L124.151 148.176C125.441 149.451 126.731 150.715 127.97 152C128.403 152.449 128.816 152.908 129.229 153.373C128.904 153.125 128.63 152.924 128.584 152.898C127.201 152.088 124.053 151.35 122.711 152.527C122.493 152.731 122.322 152.98 122.207 153.255C122.092 153.531 122.036 153.827 122.044 154.126C122.051 154.424 122.121 154.718 122.249 154.987C122.378 155.257 122.561 155.496 122.788 155.69C123.722 156.547 125.281 156.599 126.463 156.382C127.645 156.165 129.534 154.906 130.184 154.467C130.592 154.947 130.999 155.432 131.376 155.917C131.603 156.232 131.846 156.521 132.063 156.841H133.157L132.847 156.408C132.615 156.067 132.331 155.737 132.057 155.376C131.433 154.596 130.762 153.827 130.065 153.084C130.654 152.718 132.708 151.381 133.379 150.38C134.05 149.378 134.617 147.928 134.204 146.731C134.116 146.446 133.968 146.182 133.772 145.958C133.575 145.734 133.333 145.553 133.062 145.428C132.791 145.303 132.497 145.236 132.198 145.232C131.9 145.228 131.604 145.287 131.33 145.404C129.699 146.163 129.141 149.358 129.343 150.947C129.343 151.045 129.621 152.176 129.781 152.79C129.363 152.341 128.945 151.892 128.501 151.453C127.283 150.245 125.957 149.002 124.646 147.742Z" fill="black"/>
<path d="M113.581 156.387C113.581 155.19 113.261 153.662 112.254 152.888C112.023 152.699 111.755 152.562 111.467 152.483C111.18 152.405 110.879 152.388 110.584 152.433C110.289 152.478 110.007 152.585 109.756 152.746C109.505 152.907 109.291 153.119 109.127 153.368C108.58 154.261 108.791 155.639 109.271 156.877H113.534C113.561 156.715 113.577 156.551 113.581 156.387Z" fill="black"/>
<path d="M144.259 136.047C146.323 136.981 149.007 136.197 150.886 135.17C153.094 133.967 156.449 129.441 156.449 129.436C156.449 129.43 152.774 128.13 152.516 128.078C149.714 127.469 143.944 127.939 142.328 130.716C142.076 131.187 141.925 131.706 141.886 132.24C141.848 132.773 141.922 133.309 142.104 133.812C142.286 134.315 142.572 134.774 142.943 135.159C143.314 135.544 143.763 135.847 144.259 136.047Z" fill="black"/>
<path d="M139.051 153.935C138.921 153.667 138.736 153.429 138.508 153.236C138.28 153.044 138.014 152.902 137.727 152.819C137.44 152.736 137.139 152.715 136.844 152.756C136.548 152.797 136.264 152.9 136.011 153.058C135.01 153.724 134.654 155.396 134.654 156.888H139.098C139.47 155.936 139.454 154.875 139.051 153.935Z" fill="black"/>
<path d="M109.4 134.143C110.799 134.261 113.767 133.183 113.767 133.183C113.767 133.183 112.461 131.443 112.368 131.345C111.248 130.194 108.409 128.63 106.799 129.43C106.532 129.57 106.297 129.765 106.111 130.002C105.924 130.239 105.791 130.514 105.718 130.806C105.646 131.099 105.637 131.404 105.692 131.701C105.746 131.998 105.863 132.279 106.035 132.527C106.711 133.575 108.203 134.039 109.4 134.143Z" fill="black"/>
<path d="M121.369 154.792C121.138 154.603 120.87 154.464 120.582 154.386C120.294 154.307 119.993 154.289 119.698 154.335C119.403 154.38 119.121 154.487 118.87 154.648C118.619 154.81 118.405 155.022 118.241 155.272C117.976 155.763 117.867 156.323 117.932 156.877H122.551C122.412 156.066 121.994 155.328 121.369 154.792Z" fill="black"/>
<path d="M105.277 154.23C105.277 153.032 104.957 151.505 103.95 150.736C103.72 150.546 103.452 150.406 103.164 150.327C102.876 150.248 102.574 150.23 102.279 150.276C101.984 150.321 101.701 150.428 101.45 150.59C101.199 150.752 100.985 150.965 100.822 151.216C99.8935 152.723 101.142 155.628 102.18 156.893H104.6C104.96 156.045 105.188 155.147 105.277 154.23Z" fill="black"/>
<path d="M37.2323 45.6139C37.6194 44.9843 38.022 44.4062 38.4246 43.8488C38.8271 44.0914 40.6748 45.1701 41.6967 45.2888C42.7186 45.4075 43.9521 45.2888 44.6695 44.5198C44.8425 44.3489 44.9779 44.1436 45.067 43.9173C45.156 43.691 45.1967 43.4485 45.1865 43.2055C45.1763 42.9625 45.1154 42.7243 45.0077 42.5062C44.9 42.2882 44.7479 42.095 44.5611 41.9392C43.3999 41.0309 40.8554 41.8257 39.7664 42.5637C39.7097 42.605 39.1523 43.0798 38.7342 43.4359C38.92 43.1882 39.1058 42.9198 39.2916 42.6927C39.9781 41.8102 40.6593 41.0464 41.2683 40.3754C41.6193 39.9986 41.9444 39.6632 42.2489 39.3432C42.7651 39.3741 44.8553 39.467 45.7998 39.1109C46.7443 38.7548 47.792 38.0787 48.0862 37.0465C48.1625 36.8137 48.189 36.5675 48.1639 36.3239C48.1388 36.0803 48.0627 35.8446 47.9405 35.6324C47.8183 35.4201 47.6527 35.2359 47.4546 35.0919C47.2565 34.9478 47.0303 34.8471 46.7907 34.7962C45.3405 34.5279 43.4463 36.4013 42.8218 37.5574C42.7702 37.6607 42.1044 39.3225 42.1302 39.3277H42.1612C41.8619 39.6219 41.5419 39.9419 41.2012 40.2928C40.5716 40.9534 39.8748 41.707 39.1678 42.574C38.3925 43.502 37.6738 44.4757 37.0156 45.4901C36.8814 45.6965 36.7472 45.9081 36.6182 46.1249V46.641C36.8298 46.2952 37.0311 45.9494 37.2323 45.6139Z" fill="black"/>
<path d="M38.3833 43.5701C38.3833 43.5701 38.9871 41.8928 39.0078 41.7792C39.2916 40.4889 39.0749 37.8361 37.7949 37.0981C37.4444 36.8937 37.0297 36.8292 36.6337 36.9174V42.0786C37.1869 42.6098 37.7712 43.1079 38.3833 43.5701Z" fill="black"/>
<path d="M44.1327 66.4597L45.0772 65.474C45.1856 65.6494 46.4449 67.6829 47.3636 68.3023C48.1842 68.8493 49.3764 69.3345 50.3622 68.9784C50.5965 68.9063 50.813 68.7857 50.9975 68.6244C51.1821 68.4631 51.3306 68.2647 51.4333 68.0422C51.5361 67.8196 51.5908 67.578 51.5938 67.3329C51.5969 67.0878 51.5483 66.8448 51.4512 66.6197C50.8319 65.2778 48.21 64.8237 46.8991 64.9836C46.801 64.9836 45.4695 65.3191 45.134 65.4172C45.8307 64.6895 46.5275 63.9772 47.2449 63.3011C48.2098 62.3775 49.232 61.5156 50.3054 60.7206C50.357 60.8031 51.6628 62.9347 52.6073 63.5695C53.4279 64.1166 54.6201 64.6017 55.6059 64.2456C55.8399 64.1723 56.0559 64.0507 56.2401 63.8888C56.4242 63.7268 56.5723 63.5281 56.6749 63.3054C56.7775 63.0827 56.8323 62.8409 56.8358 62.5957C56.8392 62.3505 56.7912 62.1073 56.6949 61.8818C56.0704 60.5451 53.4485 60.0857 52.1428 60.2509C52.0396 60.2509 50.5945 60.607 50.3519 60.6896L50.5377 60.5451C51.636 59.7867 52.8002 59.1286 54.0163 58.5787C54.6872 58.2639 55.3427 58.0058 55.9878 57.7632C56.1891 58.1865 57.1387 60.1064 57.9232 60.767C58.7077 61.4276 59.8122 62.0005 60.8289 61.7683C61.0693 61.7217 61.2973 61.6252 61.498 61.485C61.6988 61.3448 61.8679 61.164 61.9943 60.9543C62.1208 60.7447 62.2019 60.5108 62.2323 60.2678C62.2627 60.0248 62.2418 59.7782 62.1708 59.5438C61.696 58.1452 59.1413 57.402 57.8252 57.4175C57.7529 57.4175 57.0252 57.5103 56.4936 57.5826C56.7878 57.4794 57.0871 57.3658 57.371 57.2729C58.4032 56.9168 59.4354 56.6536 60.2974 56.4317C60.8135 56.3078 61.2522 56.2046 61.6805 56.1168C62.0934 56.4265 63.7863 57.6652 64.7772 57.8768C65.7681 58.0884 67.0223 58.1039 67.8171 57.4278C68.007 57.2756 68.1631 57.0855 68.2755 56.8697C68.3878 56.6538 68.4538 56.4168 68.4693 56.174C68.4849 55.9311 68.4496 55.6877 68.3657 55.4592C68.2819 55.2308 68.1512 55.0223 67.9823 54.8472C66.9191 53.815 64.3075 54.3311 63.1463 54.9659C63.0482 55.0227 61.5721 56.0446 61.5979 56.0601C61.1851 56.1427 60.7464 56.2304 60.2664 56.3388C59.3787 56.5452 58.3774 56.7826 57.3091 57.1181C56.1519 57.4655 55.0162 57.8809 53.9079 58.3619C52.6634 58.8905 51.4697 59.5314 50.3416 60.2767L50.3003 60.3025C50.5738 59.967 51.3015 59.0019 51.3325 58.9193C51.9983 57.7839 52.6228 55.193 51.637 54.0937C51.4692 53.9179 51.2666 53.779 51.042 53.6861C50.8175 53.5931 50.576 53.5481 50.333 53.554C50.0901 53.5598 49.851 53.6163 49.6312 53.7199C49.4113 53.8235 49.2156 53.9719 49.0564 54.1556C48.3494 54.9246 48.3081 56.2201 48.4887 57.1749C48.69 58.269 50.037 60.2406 50.1764 60.4006C49.044 61.1868 47.9663 62.0489 46.9507 62.9811C46.352 63.4973 45.7688 64.0805 45.1908 64.6482C45.4179 64.3488 45.6191 64.0805 45.6398 64.0392C46.3107 62.9037 46.9301 60.3128 45.9494 59.2135C45.7813 59.0384 45.5785 58.9002 45.354 58.8077C45.1295 58.7152 44.8883 58.6705 44.6455 58.6763C44.4028 58.6821 44.164 58.7384 43.9442 58.8415C43.7244 58.9447 43.5285 59.0925 43.3689 59.2755C42.667 60.0445 42.6257 61.3399 42.8012 62.2947C42.9766 63.2495 44.1224 64.9837 44.4269 65.4327L43.7715 66.0933C42.7392 67.1513 41.707 68.2197 40.6283 69.2313C40.2567 69.5874 39.88 69.9228 39.5032 70.2635L39.8903 69.7474C40.5561 68.6119 41.1754 66.021 40.1948 64.9217C40.027 64.7459 39.8244 64.6071 39.5998 64.5141C39.3753 64.4212 39.1338 64.3762 38.8908 64.382C38.6479 64.3878 38.4088 64.4444 38.189 64.548C37.9691 64.6516 37.7734 64.8 37.6142 64.9836C36.9072 65.7527 36.8659 67.0481 37.0414 68.0029C37.2168 68.9577 38.2542 70.5267 38.5897 71.0583C38.1923 71.3938 37.7949 71.7344 37.3975 72.0389C37.1394 72.2299 36.8814 72.426 36.6388 72.6015V73.5047L36.9949 73.2466C37.2736 73.0556 37.5471 72.8182 37.8258 72.6015C38.471 72.0854 39.0903 71.5331 39.7097 70.9654C40.009 71.4454 41.1083 73.1331 41.9289 73.6853C42.7496 74.2375 43.9418 74.7175 44.9275 74.3614C45.1618 74.2894 45.3783 74.1688 45.5629 74.0075C45.7474 73.8462 45.8959 73.6478 45.9987 73.4252C46.1014 73.2027 46.1561 72.961 46.1592 72.7159C46.1623 72.4708 46.1137 72.2278 46.0165 72.0028C45.3972 70.6609 42.7702 70.2067 41.4644 70.3667C41.3819 70.3667 40.458 70.5989 39.9522 70.7331C40.3187 70.3873 40.6851 70.0415 41.0464 69.7009C42.0683 68.6326 43.1005 67.5436 44.1327 66.4597Z" fill="black"/>
<path d="M37.0362 57.3761C38.022 57.3761 39.2762 57.118 39.911 56.2871C40.0686 56.0972 40.1841 55.8761 40.2499 55.6382C40.3158 55.4004 40.3304 55.1513 40.2928 54.9074C40.2552 54.6635 40.1664 54.4304 40.032 54.2234C39.8977 54.0164 39.721 53.8402 39.5136 53.7065C38.7807 53.2575 37.6504 53.433 36.6337 53.8253V57.3297C36.7666 57.3545 36.9011 57.37 37.0362 57.3761Z" fill="black"/>
<path d="M39.0594 78.3045C39.2801 78.1977 39.4759 78.0455 39.6339 77.8579C39.7918 77.6703 39.9085 77.4515 39.9762 77.2158C40.0439 76.9801 40.0611 76.7327 40.0267 76.4899C39.9924 76.2471 39.9072 76.0142 39.7768 75.8065C39.2607 74.9859 37.862 74.6866 36.6337 74.6917V78.3355C37.4151 78.6434 38.2861 78.6323 39.0594 78.3045Z" fill="black"/>
<path d="M55.3119 53.944C55.2138 55.0949 56.1015 57.5568 56.1015 57.5568C56.1015 57.5568 57.5312 56.4833 57.6137 56.4058C58.5531 55.4872 59.8382 53.1543 59.1621 51.8331C59.047 51.6165 58.8877 51.4265 58.6945 51.2754C58.5012 51.1243 58.2784 51.0156 58.0404 50.9562C57.8024 50.8968 57.5546 50.8882 57.3131 50.9308C57.0715 50.9733 56.8416 51.0663 56.6383 51.2034C55.7764 51.7454 55.3996 52.9582 55.3119 53.944Z" fill="black"/>
<path d="M38.3472 63.776C38.505 63.5864 38.6209 63.3655 38.6871 63.1279C38.7533 62.8903 38.7684 62.6414 38.7313 62.3975C38.6942 62.1536 38.6059 61.9204 38.472 61.7132C38.3382 61.506 38.162 61.3295 37.9549 61.1954C37.5527 60.9724 37.0903 60.882 36.6337 60.9374V64.7308C37.2982 64.6207 37.9039 64.2832 38.3472 63.776Z" fill="black"/>
<path d="M38.8064 50.5531C39.7922 50.5531 41.0464 50.295 41.6812 49.4641C41.839 49.2745 41.9549 49.0537 42.0211 48.8161C42.0873 48.5784 42.1024 48.3295 42.0653 48.0856C42.0283 47.8417 41.9399 47.6085 41.8061 47.4013C41.6722 47.1941 41.496 47.0176 41.2889 46.8835C40.0451 46.1197 37.6761 47.1468 36.6439 47.9932V49.9854C37.3316 50.2839 38.0608 50.4753 38.8064 50.5531Z" fill="black"/>
</g>
<path d="M215.415 12.5674H40.8399C39.7243 12.5674 38.6544 13.0105 37.8655 13.7994C37.0767 14.5882 36.6335 15.6581 36.6335 16.7737V152.671C36.6335 153.787 37.0767 154.857 37.8655 155.645C38.6544 156.434 39.7243 156.877 40.8399 156.877H146.725L159.112 166.508L157.244 156.877H215.415C216.53 156.877 217.6 156.434 218.389 155.645C219.178 154.857 219.621 153.787 219.621 152.671V16.7737C219.621 15.6581 219.178 14.5882 218.389 13.7994C217.6 13.0105 216.53 12.5674 215.415 12.5674Z" stroke="black" stroke-width="0.516112" stroke-linecap="round" stroke-linejoin="round"/>
<path d="M178.198 42.4812H140.155C138.503 40.388 136.397 38.6963 133.997 37.5333C131.597 36.3703 128.965 35.7661 126.298 35.7661C123.631 35.7661 120.998 36.3703 118.598 37.5333C116.198 38.6963 114.093 40.388 112.44 42.4812H74.3974C73.168 42.4893 71.9913 42.9813 71.1219 43.8507C70.2525 44.72 69.7606 45.8968 69.7524 47.1262V127.124C69.7538 128.357 70.2428 129.541 71.1128 130.416C71.9829 131.291 73.1636 131.786 74.3974 131.794H178.198C179.432 131.786 180.612 131.291 181.482 130.416C182.352 129.541 182.841 128.357 182.843 127.124V47.1262C182.835 45.8968 182.343 44.72 181.473 43.8507C180.604 42.9813 179.427 42.4893 178.198 42.4812Z" fill="black"/>
<path d="M180.025 40.3135H76.2297C73.7926 40.3135 71.8169 42.2891 71.8169 44.7262V124.718C71.8169 127.156 73.7926 129.131 76.2297 129.131H180.025C182.462 129.131 184.438 127.156 184.438 124.718V44.7262C184.438 42.2891 182.462 40.3135 180.025 40.3135Z" fill="white" stroke="black" stroke-width="0.516112" stroke-linecap="round" stroke-linejoin="round"/>
<path d="M145.559 51.0331C145.559 54.4815 144.536 57.8525 142.62 60.7196C140.704 63.5868 137.981 65.8214 134.795 67.1408C131.609 68.4602 128.103 68.8052 124.721 68.132C121.339 67.4589 118.233 65.798 115.795 63.3592C113.357 60.9205 111.697 57.8135 111.025 54.4312C110.353 51.049 110.699 47.5434 112.019 44.3578C113.339 41.1722 115.575 38.4497 118.442 36.5346C121.31 34.6195 124.681 33.5979 128.13 33.5989C130.421 33.59 132.692 34.0349 134.811 34.908C136.93 35.7811 138.855 37.065 140.476 38.6858C142.096 40.3065 143.379 42.2321 144.252 44.3513C145.124 46.4704 145.568 48.7414 145.559 51.0331Z" fill="white" stroke="black" stroke-width="0.516112" stroke-linecap="round" stroke-linejoin="round"/>
<path d="M135.407 48.3029C135.408 46.8621 134.982 45.4535 134.182 44.2551C133.382 43.0567 132.245 42.1225 130.914 41.5707C129.583 41.0189 128.118 40.8742 126.705 41.1551C125.292 41.4359 123.994 42.1296 122.975 43.1483C121.957 44.1671 121.263 45.4652 120.982 46.8783C120.701 48.2914 120.846 49.7561 121.398 51.0869C121.95 52.4178 122.884 53.5551 124.082 54.3549C125.28 55.1547 126.689 55.5811 128.13 55.5801C130.06 55.5801 131.911 54.8134 133.276 53.4486C134.64 52.0839 135.407 50.2329 135.407 48.3029Z" fill="black" stroke="black" stroke-width="0.516112" stroke-linecap="round" stroke-linejoin="round"/>
<path d="M138.896 64.736C135.827 67.1503 132.035 68.4629 128.13 68.4629C124.225 68.4629 120.433 67.1503 117.364 64.736C117.904 62.283 119.266 60.088 121.224 58.5145C123.182 56.9409 125.618 56.0831 128.13 56.0831C130.642 56.0831 133.078 56.9409 135.036 58.5145C136.994 60.088 138.356 62.283 138.896 64.736Z" fill="black" stroke="black" stroke-width="0.516112" stroke-linecap="round" stroke-linejoin="round"/>
<path d="M157.961 87.8784H98.2986V97.2613H157.961V87.8784Z" stroke="black" stroke-width="0.516112" stroke-linecap="round" stroke-linejoin="round"/>
<path d="M157.961 106.221H98.2986V115.604H157.961V106.221Z" stroke="black" stroke-width="0.516112" stroke-linecap="round" stroke-linejoin="round"/>
<path d="M118.499 94.8975C118.238 94.9117 117.978 94.845 117.756 94.7065C117.581 94.5713 117.457 94.38 117.405 94.1646C117.339 93.8962 117.308 93.6204 117.312 93.344V90.3918H117.906V93.375C117.904 93.5477 117.916 93.7203 117.942 93.8911C117.959 94.0296 118.018 94.1594 118.112 94.2627C118.222 94.3528 118.36 94.4021 118.502 94.4021C118.644 94.4021 118.782 94.3528 118.891 94.2627C118.982 94.1577 119.039 94.0285 119.057 93.8911C119.082 93.7203 119.094 93.5477 119.093 93.375V90.3918H119.681V93.344C119.685 93.6204 119.654 93.8962 119.588 94.1646C119.537 94.38 119.413 94.5713 119.237 94.7065C119.018 94.8465 118.759 94.9134 118.499 94.8975Z" fill="#0E204E"/>
<path d="M121.389 94.8975C121.165 94.9053 120.942 94.848 120.749 94.7324C120.576 94.6218 120.439 94.4618 120.357 94.273C120.264 94.0596 120.213 93.8299 120.208 93.5969L120.755 93.4524C120.764 93.6061 120.79 93.7583 120.832 93.9066C120.862 94.0409 120.926 94.1653 121.018 94.2679C121.121 94.3558 121.252 94.4042 121.387 94.4042C121.522 94.4042 121.653 94.3558 121.756 94.2679C121.845 94.1593 121.889 94.0209 121.88 93.8808C121.894 93.6979 121.845 93.5156 121.74 93.3647C121.635 93.2318 121.52 93.1075 121.395 92.9931L120.646 92.3324C120.507 92.2199 120.396 92.0768 120.321 91.9144C120.246 91.7367 120.211 91.5446 120.218 91.3518C120.209 91.2129 120.229 91.0736 120.277 90.9429C120.325 90.8123 120.4 90.6931 120.497 90.5931C120.599 90.4983 120.719 90.4252 120.85 90.3782C120.982 90.3312 121.121 90.3112 121.26 90.3196C121.418 90.3176 121.575 90.342 121.725 90.3919C121.853 90.4323 121.969 90.5052 122.06 90.6035C122.159 90.7056 122.234 90.8292 122.277 90.9647C122.334 91.1319 122.37 91.3051 122.386 91.4809L121.869 91.6254C121.861 91.4879 121.84 91.3515 121.807 91.2176C121.776 91.1057 121.716 91.0041 121.632 90.9235C121.558 90.8616 121.468 90.8218 121.372 90.8085C121.277 90.7952 121.18 90.809 121.091 90.8482C121.003 90.8874 120.928 90.9506 120.874 91.0305C120.82 91.1104 120.789 91.2038 120.786 91.3002C120.782 91.4162 120.807 91.5314 120.858 91.6357C120.916 91.7374 120.991 91.8283 121.08 91.9041L121.833 92.5647C122.005 92.7152 122.154 92.889 122.277 93.0808C122.411 93.2976 122.479 93.5486 122.473 93.8034C122.479 94.0018 122.431 94.1981 122.334 94.3711C122.247 94.5273 122.116 94.6547 121.957 94.7375C121.785 94.8399 121.589 94.8951 121.389 94.8975Z" fill="#0E204E"/>
<path d="M122.938 94.8459V90.3918H124.646V90.8512H123.562V92.3273H124.46V92.766H123.562V94.402H124.677V94.8459H122.938Z" fill="#0E204E"/>
<path d="M125.162 94.8459V90.3919H126.06C126.312 90.3828 126.562 90.4232 126.798 90.5106C126.981 90.5817 127.133 90.7151 127.227 90.8873C127.332 91.1001 127.382 91.3364 127.371 91.5738C127.372 91.7321 127.353 91.8899 127.314 92.0434C127.282 92.1734 127.223 92.295 127.139 92.3995C127.056 92.5002 126.944 92.5738 126.819 92.6111L127.454 94.8459H126.865L126.282 92.7815H125.802V94.8459H125.162ZM125.787 92.3118H126.019C126.166 92.3177 126.314 92.2949 126.453 92.2447C126.511 92.2259 126.564 92.1945 126.609 92.1525C126.653 92.1105 126.688 92.0592 126.711 92.0021C126.769 91.8617 126.795 91.7101 126.788 91.5583C126.805 91.3605 126.756 91.1627 126.649 90.9957C126.572 90.9273 126.482 90.8762 126.384 90.8459C126.286 90.8157 126.183 90.8069 126.081 90.8202H125.807L125.787 92.3118Z" fill="#0E204E"/>
<path d="M128.032 94.8459V90.3918H128.46L129.725 93.3492V90.3918H130.241V94.8459H129.843L128.563 91.806V94.8459H128.032Z" fill="#0E204E"/>
<path d="M130.695 94.8459L131.645 90.3918H132.243L133.193 94.8459H132.605L132.403 93.7259H131.495L131.278 94.8459H130.695ZM131.577 93.2976H132.321L131.944 91.2899L131.577 93.2976Z" fill="#0E204E"/>
<path d="M133.637 94.8459L133.719 90.3918H134.328L135.113 94.0046L135.908 90.3918H136.517L136.599 94.8459H136.083L136.032 91.6099L135.278 94.8459H134.927L134.179 91.6099L134.132 94.8459H133.637Z" fill="#0E204E"/>
<path d="M137.275 94.8459V90.3918H139.004V90.8512H137.9V92.3273H138.793V92.766H137.9V94.402H139.015V94.8459H137.275Z" fill="#0E204E"/>
<path d="M116.904 113.287V108.827H118.009C118.231 108.816 118.453 108.866 118.649 108.972C118.81 109.069 118.934 109.218 119 109.395C119.078 109.608 119.114 109.834 119.108 110.061C119.113 110.271 119.071 110.479 118.984 110.67C118.907 110.837 118.779 110.976 118.618 111.067C118.434 111.171 118.225 111.221 118.014 111.212H117.498V113.276L116.904 113.287ZM117.524 110.763H117.808C117.953 110.767 118.097 110.748 118.236 110.706C118.333 110.667 118.411 110.591 118.453 110.494C118.504 110.358 118.527 110.212 118.52 110.066C118.525 109.901 118.509 109.737 118.473 109.576C118.461 109.524 118.437 109.475 118.403 109.434C118.369 109.393 118.326 109.36 118.277 109.338C118.13 109.287 117.974 109.265 117.818 109.271H117.524V110.763Z" fill="#0E204E"/>
<path d="M119.108 113.287L120.053 108.827H120.651L121.606 113.287H121.033L120.827 112.161H119.919L119.707 113.287H119.108ZM119.986 111.738H120.729L120.357 109.731L119.986 111.738Z" fill="#0E204E"/>
<path d="M123.098 113.333C122.873 113.341 122.651 113.284 122.458 113.168C122.287 113.058 122.152 112.9 122.071 112.714C121.976 112.499 121.923 112.267 121.916 112.032L122.463 111.888C122.473 112.042 122.499 112.194 122.54 112.342C122.569 112.477 122.633 112.602 122.726 112.703C122.829 112.791 122.96 112.84 123.095 112.84C123.231 112.84 123.361 112.791 123.464 112.703C123.554 112.595 123.598 112.456 123.588 112.316C123.597 112.144 123.548 111.973 123.449 111.831C123.346 111.696 123.23 111.572 123.103 111.46L122.355 110.799C122.218 110.682 122.108 110.538 122.029 110.376C121.956 110.197 121.921 110.006 121.926 109.813C121.919 109.674 121.94 109.536 121.988 109.405C122.036 109.275 122.11 109.156 122.205 109.054C122.308 108.961 122.428 108.888 122.559 108.842C122.691 108.796 122.83 108.777 122.969 108.786C123.126 108.783 123.283 108.805 123.433 108.853C123.561 108.894 123.677 108.967 123.769 109.065C123.867 109.168 123.941 109.291 123.985 109.426C124.042 109.593 124.078 109.766 124.094 109.942L123.578 110.087C123.569 109.951 123.548 109.816 123.516 109.684C123.486 109.57 123.425 109.467 123.34 109.385C123.24 109.304 123.113 109.263 122.984 109.271C122.914 109.258 122.841 109.263 122.772 109.284C122.704 109.306 122.642 109.343 122.591 109.394C122.54 109.445 122.503 109.507 122.481 109.576C122.46 109.644 122.455 109.717 122.468 109.787C122.465 109.903 122.49 110.019 122.54 110.123C122.597 110.226 122.672 110.317 122.762 110.391L123.516 111.052C123.687 111.202 123.836 111.376 123.96 111.568C124.093 111.785 124.161 112.036 124.156 112.291C124.161 112.49 124.113 112.688 124.016 112.863C123.928 113.018 123.797 113.145 123.64 113.23C123.47 113.306 123.284 113.342 123.098 113.333Z" fill="#0E204E"/>
<path d="M125.709 113.333C125.484 113.341 125.262 113.283 125.069 113.168C124.898 113.058 124.764 112.9 124.682 112.714C124.59 112.498 124.537 112.267 124.527 112.032L125.074 111.888C125.087 112.041 125.113 112.193 125.152 112.342C125.182 112.477 125.248 112.602 125.343 112.703C125.444 112.792 125.575 112.841 125.709 112.841C125.844 112.841 125.974 112.792 126.076 112.703C126.165 112.595 126.209 112.456 126.2 112.316C126.209 112.144 126.16 111.973 126.06 111.831C125.958 111.696 125.842 111.571 125.714 111.46L124.966 110.799C124.83 110.682 124.719 110.538 124.641 110.376C124.568 110.197 124.533 110.006 124.538 109.813C124.531 109.674 124.552 109.536 124.6 109.405C124.648 109.275 124.721 109.156 124.816 109.054C125.027 108.867 125.304 108.77 125.585 108.786C125.743 108.782 125.9 108.805 126.05 108.853C126.177 108.895 126.293 108.968 126.385 109.065C126.48 109.169 126.552 109.292 126.597 109.426C126.656 109.592 126.692 109.766 126.705 109.942L126.189 110.087C126.179 109.951 126.156 109.816 126.122 109.684C126.092 109.57 126.032 109.466 125.947 109.385C125.848 109.305 125.723 109.265 125.596 109.271C125.464 109.265 125.335 109.309 125.234 109.395C125.189 109.444 125.153 109.502 125.131 109.565C125.109 109.628 125.1 109.695 125.105 109.762C125.1 109.877 125.123 109.992 125.172 110.097C125.229 110.2 125.304 110.291 125.394 110.365L126.148 111.026C126.321 111.176 126.472 111.35 126.597 111.542C126.726 111.761 126.792 112.011 126.788 112.265C126.793 112.465 126.745 112.662 126.649 112.838C126.56 112.993 126.429 113.119 126.272 113.204C126.098 113.293 125.905 113.337 125.709 113.333Z" fill="#0E204E"/>
<path d="M127.841 113.287L127.113 108.827H127.629L128.109 112.027L128.708 108.843H129.147L129.756 112.048L130.22 108.827H130.736L130.024 113.287H129.57L128.951 109.983L128.321 113.287H127.841Z" fill="#0E204E"/>
<path d="M132.388 113.333C132.135 113.346 131.884 113.285 131.665 113.158C131.482 113.035 131.347 112.852 131.283 112.641C131.2 112.395 131.16 112.137 131.165 111.878V110.185C131.16 109.929 131.2 109.674 131.283 109.431C131.353 109.23 131.49 109.059 131.67 108.946C131.889 108.824 132.138 108.767 132.388 108.781C132.637 108.768 132.884 108.827 133.1 108.951C133.278 109.065 133.414 109.233 133.487 109.431C133.568 109.674 133.607 109.929 133.601 110.185V111.883C133.606 112.14 133.568 112.397 133.487 112.641C133.419 112.852 133.283 113.033 133.1 113.158C132.886 113.288 132.638 113.349 132.388 113.333ZM132.388 112.817C132.52 112.828 132.652 112.792 132.759 112.714C132.85 112.643 132.91 112.542 132.93 112.43C132.963 112.288 132.978 112.142 132.976 111.996V110.066C132.979 109.922 132.963 109.778 132.93 109.638C132.91 109.528 132.849 109.43 132.759 109.364C132.649 109.292 132.519 109.258 132.388 109.266C132.255 109.259 132.124 109.293 132.011 109.364C131.922 109.431 131.859 109.528 131.836 109.638C131.807 109.779 131.793 109.922 131.794 110.066V112.017C131.793 112.162 131.807 112.308 131.836 112.45C131.861 112.562 131.923 112.662 132.011 112.734C132.12 112.814 132.253 112.852 132.388 112.843V112.817Z" fill="#0E204E"/>
<path d="M134.194 113.287V108.827H135.092C135.342 108.82 135.59 108.861 135.825 108.946C136.012 109.016 136.166 109.152 136.259 109.328C136.36 109.54 136.408 109.774 136.398 110.009C136.401 110.167 136.383 110.325 136.346 110.479C136.314 110.611 136.255 110.734 136.171 110.84C136.085 110.938 135.974 111.011 135.851 111.052L136.48 113.287H135.882L135.299 111.191H134.813V113.287H134.194ZM134.813 110.747H135.051C135.197 110.753 135.342 110.73 135.479 110.68C135.532 110.661 135.581 110.631 135.623 110.593C135.664 110.555 135.698 110.509 135.722 110.458C135.78 110.316 135.806 110.163 135.799 110.009C135.817 109.811 135.766 109.612 135.655 109.447C135.579 109.379 135.489 109.329 135.392 109.298C135.295 109.268 135.193 109.259 135.092 109.271H134.813V110.747Z" fill="#0E204E"/>
<path d="M137.033 113.287V108.827H138.003C138.273 108.816 138.541 108.868 138.787 108.977C138.974 109.076 139.12 109.237 139.2 109.431C139.288 109.673 139.328 109.928 139.319 110.185V111.826C139.328 112.098 139.288 112.369 139.2 112.626C139.125 112.83 138.983 113.002 138.798 113.116C138.569 113.24 138.31 113.299 138.049 113.287H137.033ZM137.652 112.838H138.008C138.18 112.854 138.352 112.809 138.493 112.709C138.594 112.604 138.654 112.467 138.664 112.321C138.686 112.119 138.696 111.916 138.695 111.712V110.262C138.698 110.075 138.683 109.888 138.648 109.705C138.64 109.642 138.618 109.582 138.586 109.527C138.553 109.473 138.509 109.426 138.457 109.39C138.315 109.313 138.154 109.279 137.993 109.292H137.652V112.838Z" fill="#0E204E"/>
<path d="M118.706 80.8592V73.6337H119.712V80.1315H121.549V80.8489L118.706 80.8592Z" fill="black"/>
<path d="M124.037 80.9418C123.629 80.9648 123.223 80.866 122.871 80.6579C122.576 80.4651 122.356 80.1774 122.246 79.8425C122.115 79.4359 122.054 79.0101 122.066 78.5831V75.8477C122.057 75.4298 122.123 75.0138 122.262 74.6194C122.376 74.2966 122.594 74.0208 122.881 73.8349C123.237 73.6385 123.641 73.5456 124.047 73.5665C124.451 73.5443 124.853 73.6393 125.204 73.8401C125.493 74.0241 125.711 74.3006 125.823 74.6246C125.96 75.0175 126.024 75.4319 126.014 75.8477V78.5831C126.023 79.0023 125.958 79.4198 125.823 79.8166C125.712 80.1492 125.494 80.4358 125.204 80.6321C124.854 80.8492 124.448 80.957 124.037 80.9418ZM124.037 80.147C124.252 80.1643 124.465 80.1059 124.641 79.9818C124.786 79.8647 124.884 79.7002 124.92 79.5173C124.97 79.2886 124.995 79.0548 124.992 78.8206V75.6568C124.995 75.4242 124.971 75.1921 124.92 74.9652C124.883 74.7887 124.784 74.6312 124.641 74.5213C124.462 74.4054 124.25 74.3511 124.037 74.3665C123.823 74.3536 123.61 74.4077 123.428 74.5213C123.282 74.6293 123.181 74.7874 123.144 74.9652C123.093 75.1921 123.069 75.4242 123.072 75.6568V78.8206C123.069 79.0548 123.093 79.2886 123.144 79.5173C123.179 79.7016 123.28 79.8668 123.428 79.9818C123.608 80.1 123.823 80.1528 124.037 80.1315V80.147Z" fill="black"/>
<path d="M128.718 80.9521C128.336 80.9711 127.957 80.8701 127.634 80.6631C127.35 80.4536 127.143 80.156 127.046 79.8167C126.913 79.3874 126.85 78.9395 126.86 78.4903V76.0749C126.852 75.6186 126.908 75.1635 127.025 74.7226C127.119 74.3816 127.327 74.0829 127.614 73.8762C127.969 73.6615 128.381 73.559 128.796 73.582C129.174 73.5641 129.55 73.6422 129.89 73.8091C130.165 73.961 130.378 74.2063 130.489 74.5007C130.623 74.8798 130.686 75.2805 130.674 75.6826V75.951H129.73V75.7291C129.735 75.4696 129.714 75.2103 129.668 74.9549C129.641 74.7809 129.551 74.6229 129.415 74.511C129.236 74.4002 129.026 74.3495 128.816 74.3665C128.581 74.3451 128.348 74.4175 128.166 74.5678C128.025 74.7217 127.938 74.9174 127.918 75.1252C127.884 75.3905 127.866 75.6577 127.867 75.9252V78.5832C127.861 78.8724 127.887 79.1614 127.944 79.4451C127.977 79.6455 128.08 79.8281 128.233 79.9612C128.411 80.0851 128.626 80.1451 128.842 80.1315C129.059 80.1457 129.274 80.0796 129.446 79.9457C129.602 79.7992 129.706 79.605 129.74 79.3935C129.801 79.0947 129.829 78.79 129.823 78.4851V77.969H128.904V77.2568H130.731V80.8283H130.096L129.998 80.0025C129.912 80.2582 129.758 80.4863 129.554 80.6631C129.32 80.8578 129.023 80.9605 128.718 80.9521Z" fill="black"/>
<path d="M131.815 80.8592V73.6337H132.806V80.8592H131.815Z" fill="black"/>
<path d="M133.972 80.8592V73.6337H134.659L136.723 78.4283V73.6337H137.549V80.8592H136.904L134.839 75.9304V80.8592H133.972Z" fill="black"/>
<path d="M182.146 179.85C182.894 180.046 183.666 180.131 184.438 180.102C184.438 180.102 184.092 179.039 184.061 178.972C183.7 178.224 182.575 176.99 181.656 177.114C181.503 177.139 181.358 177.196 181.229 177.28C181.1 177.365 180.99 177.476 180.907 177.606C180.824 177.736 180.769 177.882 180.746 178.035C180.723 178.188 180.732 178.343 180.773 178.492C180.89 178.805 181.073 179.088 181.31 179.322C181.547 179.557 181.832 179.737 182.146 179.85Z" fill="black"/>
<path d="M182.709 184.562C183.474 184.558 184.234 184.44 184.964 184.211C185.206 185.041 185.5 185.855 185.847 186.647C186.048 187.111 186.265 187.571 186.487 188.03L186.213 187.638C185.671 187.013 184.257 186.12 183.4 186.482C183.263 186.547 183.14 186.64 183.04 186.755C182.94 186.87 182.865 187.004 182.819 187.15C182.773 187.295 182.758 187.448 182.775 187.6C182.792 187.751 182.839 187.898 182.915 188.03C183.11 188.3 183.361 188.525 183.652 188.688C183.943 188.851 184.265 188.949 184.598 188.974C185.342 188.974 186.081 188.861 186.791 188.639L187.054 189.155C187.472 189.996 187.896 190.827 188.288 191.658C188.427 191.952 188.551 192.247 188.675 192.541C188.556 192.365 188.458 192.221 188.438 192.2C187.896 191.576 186.481 190.683 185.63 191.049C185.491 191.113 185.367 191.206 185.266 191.32C185.165 191.435 185.09 191.57 185.044 191.716C184.998 191.862 184.983 192.015 185.001 192.167C185.018 192.319 185.067 192.466 185.145 192.598C185.339 192.868 185.591 193.093 185.881 193.256C186.172 193.419 186.495 193.517 186.827 193.542C187.552 193.547 188.273 193.439 188.964 193.222C189.083 193.527 189.201 193.831 189.305 194.13C189.372 194.337 189.449 194.533 189.501 194.739C189.552 194.946 189.614 195.157 189.671 195.359C189.769 195.756 189.867 196.164 189.95 196.551C190.012 196.824 190.063 197.067 190.115 197.341C189.986 197.046 189.707 196.479 189.681 196.437C189.243 195.735 187.978 194.636 187.101 194.889C186.953 194.931 186.815 195.003 186.696 195.102C186.578 195.201 186.482 195.323 186.414 195.461C186.346 195.6 186.309 195.751 186.303 195.905C186.298 196.059 186.325 196.212 186.383 196.355C186.535 196.652 186.749 196.912 187.011 197.118C187.273 197.324 187.577 197.47 187.901 197.547C188.655 197.659 189.422 197.659 190.177 197.547C190.259 197.975 190.342 198.393 190.409 198.791C190.564 199.668 190.683 200.458 190.77 201.124H191.379C191.271 200.432 191.132 199.611 190.951 198.693C190.863 198.254 190.765 197.79 190.657 197.31C191.092 197.138 191.516 196.94 191.926 196.716C192.485 197.195 193.107 197.596 193.774 197.908C193.609 198.311 193.444 198.708 193.258 199.075C192.923 199.849 192.603 200.535 192.324 201.139H192.979C193.222 200.597 193.495 199.983 193.764 199.307C193.934 198.894 194.11 198.45 194.28 197.991C195.022 198.163 195.786 198.223 196.546 198.166C196.875 198.115 197.19 197.993 197.467 197.807C197.744 197.622 197.978 197.378 198.151 197.093C198.219 196.954 198.257 196.803 198.263 196.649C198.269 196.495 198.242 196.342 198.184 196.198C198.127 196.055 198.04 195.926 197.929 195.819C197.819 195.711 197.687 195.628 197.542 195.575C196.664 195.281 195.322 196.277 194.832 196.948C194.801 196.984 194.533 197.464 194.373 197.743C194.44 197.552 194.512 197.372 194.579 197.181C194.719 196.799 194.848 196.412 194.987 195.994C195.049 195.792 195.111 195.591 195.173 195.379C195.235 195.168 195.281 194.956 195.338 194.739C195.457 194.223 195.555 193.707 195.642 193.191C196.328 193.475 197.055 193.65 197.795 193.707C198.128 193.707 198.457 193.633 198.758 193.491C199.06 193.349 199.326 193.143 199.539 192.887C199.628 192.761 199.689 192.618 199.719 192.467C199.749 192.315 199.746 192.16 199.711 192.01C199.677 191.86 199.611 191.719 199.518 191.596C199.425 191.473 199.308 191.371 199.173 191.297C198.347 190.874 196.871 191.658 196.282 192.241C196.246 192.278 195.87 192.758 195.673 193.005C195.72 192.69 195.771 192.376 195.813 192.061C195.926 191.142 196.014 190.208 196.102 189.274C196.133 188.99 196.164 188.706 196.19 188.422C196.902 188.702 197.651 188.876 198.414 188.938C198.748 188.936 199.077 188.862 199.379 188.72C199.681 188.578 199.949 188.373 200.164 188.118C200.252 187.992 200.314 187.849 200.343 187.698C200.373 187.547 200.37 187.391 200.336 187.241C200.301 187.091 200.235 186.95 200.143 186.827C200.05 186.704 199.932 186.602 199.797 186.528C198.971 186.1 197.495 186.884 196.907 187.467C196.86 187.514 196.324 188.185 196.195 188.36C196.262 187.736 196.334 187.111 196.432 186.502C196.551 185.675 196.723 184.856 196.948 184.051C197.665 184.333 198.42 184.507 199.188 184.567C199.521 184.566 199.85 184.493 200.152 184.351C200.453 184.209 200.72 184.003 200.933 183.746C201.021 183.62 201.083 183.477 201.112 183.326C201.142 183.175 201.139 183.019 201.105 182.869C201.07 182.719 201.004 182.578 200.912 182.455C200.819 182.333 200.701 182.231 200.566 182.157C199.74 181.733 198.264 182.518 197.676 183.101C197.629 183.148 197.051 183.87 196.959 184.009C196.959 183.963 196.959 183.911 196.995 183.865C197.247 183.065 197.572 182.289 197.965 181.548C198.177 181.135 198.398 180.753 198.626 180.386C199.291 180.739 200.006 180.99 200.747 181.13C201.078 181.166 201.413 181.129 201.729 181.022C202.044 180.915 202.333 180.74 202.574 180.51C202.676 180.394 202.753 180.258 202.799 180.111C202.845 179.964 202.859 179.808 202.841 179.655C202.823 179.501 202.773 179.353 202.694 179.221C202.615 179.088 202.509 178.973 202.383 178.884C201.609 178.368 200.055 178.988 199.405 179.504L198.811 180.097C198.915 179.932 199.023 179.762 199.126 179.607C199.513 179.024 199.906 178.513 200.256 178.059C200.458 177.801 200.644 177.579 200.819 177.367C201.569 177.375 202.315 177.269 203.033 177.052C203.343 176.931 203.623 176.743 203.853 176.502C204.083 176.262 204.257 175.974 204.365 175.659C204.402 175.509 204.408 175.354 204.382 175.202C204.355 175.05 204.297 174.906 204.211 174.778C204.124 174.651 204.012 174.543 203.881 174.461C203.75 174.38 203.604 174.327 203.451 174.307C202.527 174.208 201.433 175.473 201.093 176.226C201.067 176.294 200.726 177.367 200.747 177.367C200.576 177.568 200.391 177.78 200.195 178.017C199.833 178.461 199.426 178.967 199.028 179.566C198.587 180.183 198.182 180.826 197.815 181.491C197.403 182.234 197.057 183.013 196.783 183.818C196.783 183.818 196.783 183.818 196.783 183.844C196.783 183.576 196.783 182.812 196.783 182.755C196.675 181.935 195.988 180.412 195.075 180.242C194.923 180.218 194.767 180.227 194.619 180.268C194.471 180.308 194.332 180.38 194.213 180.477C194.094 180.574 193.996 180.695 193.927 180.833C193.858 180.97 193.818 181.12 193.81 181.274C193.822 181.607 193.907 181.934 194.059 182.23C194.21 182.527 194.425 182.787 194.688 182.993C195.325 183.41 196.021 183.73 196.752 183.942C196.493 184.767 196.29 185.609 196.143 186.461C196.055 186.977 195.983 187.462 195.911 187.968C195.911 187.731 195.911 187.519 195.911 187.493C195.802 186.667 195.116 185.145 194.203 184.975C194.05 184.951 193.895 184.96 193.747 185.001C193.598 185.041 193.46 185.112 193.341 185.21C193.222 185.307 193.124 185.428 193.055 185.565C192.985 185.703 192.946 185.853 192.938 186.007C192.951 186.34 193.037 186.667 193.189 186.964C193.342 187.261 193.557 187.52 193.821 187.725C194.443 188.136 195.123 188.451 195.839 188.66L195.761 189.238C195.653 190.172 195.544 191.101 195.41 192.009C195.364 192.329 195.307 192.639 195.25 192.954C195.25 192.747 195.25 192.572 195.25 192.541C195.142 191.72 194.455 190.198 193.542 190.027C193.39 190.004 193.235 190.013 193.086 190.053C192.938 190.094 192.799 190.165 192.68 190.262C192.561 190.36 192.464 190.481 192.394 190.618C192.325 190.755 192.285 190.906 192.277 191.06C192.291 191.393 192.376 191.72 192.529 192.016C192.681 192.313 192.897 192.573 193.16 192.778C193.762 193.18 194.422 193.488 195.116 193.692C195.049 194.012 194.982 194.332 194.904 194.636C194.842 194.848 194.801 195.049 194.729 195.255C194.657 195.462 194.6 195.663 194.533 195.865C194.393 196.246 194.254 196.644 194.104 197.015C194.006 197.273 193.908 197.532 193.81 197.764C193.857 197.444 193.944 196.819 193.944 196.768C193.935 196.042 193.738 195.33 193.372 194.703C193.379 194.623 193.379 194.541 193.372 194.461C193.352 194.308 193.3 194.16 193.22 194.029C193.14 193.897 193.032 193.783 192.905 193.696C192.778 193.608 192.634 193.548 192.482 193.52C192.331 193.492 192.175 193.496 192.025 193.532C191.132 193.769 190.564 195.343 190.517 196.169C190.517 196.221 190.548 196.752 190.574 197.088C190.528 196.892 190.487 196.701 190.44 196.499C190.347 196.107 190.239 195.71 190.13 195.292L189.945 194.677C189.883 194.471 189.8 194.259 189.728 194.048C189.547 193.563 189.346 193.083 189.129 192.603C189.853 192.449 190.549 192.186 191.194 191.823C191.471 191.639 191.706 191.396 191.879 191.112C192.053 190.827 192.163 190.508 192.2 190.177C192.204 190.023 192.176 189.87 192.117 189.728C192.058 189.585 191.969 189.457 191.857 189.351C191.745 189.246 191.612 189.165 191.466 189.114C191.321 189.063 191.166 189.044 191.013 189.057C190.089 189.155 189.289 190.605 189.124 191.436C189.124 191.488 189.057 192.081 189.036 192.407C188.902 192.123 188.773 191.834 188.629 191.545C188.221 190.714 187.777 189.888 187.338 189.062L186.941 188.298C187.691 188.145 188.413 187.879 189.083 187.509C189.36 187.323 189.594 187.079 189.768 186.794C189.942 186.509 190.051 186.189 190.089 185.857C190.093 185.703 190.065 185.55 190.006 185.408C189.947 185.265 189.858 185.137 189.746 185.031C189.634 184.926 189.501 184.845 189.356 184.794C189.21 184.743 189.056 184.724 188.902 184.737C187.983 184.835 187.183 186.285 187.013 187.116C187.013 187.178 186.925 188.035 186.915 188.252C186.626 187.694 186.342 187.132 186.084 186.569C185.731 185.81 185.428 185.029 185.176 184.231C185.931 184.077 186.658 183.809 187.333 183.437C187.61 183.252 187.844 183.009 188.018 182.724C188.192 182.44 188.302 182.121 188.339 181.79C188.344 181.636 188.315 181.484 188.257 181.341C188.198 181.199 188.11 181.071 187.999 180.965C187.887 180.859 187.755 180.777 187.61 180.726C187.465 180.674 187.311 180.653 187.158 180.665C186.234 180.768 185.434 182.213 185.269 183.044C185.269 183.111 185.171 184.03 185.165 184.2C185.165 184.154 185.134 184.107 185.119 184.061C184.89 183.254 184.733 182.429 184.649 181.594C184.598 181.13 184.577 180.691 184.562 180.257C185.311 180.188 186.046 180.003 186.74 179.71C187.038 179.554 187.298 179.334 187.502 179.067C187.706 178.799 187.849 178.491 187.921 178.162C187.942 178.009 187.93 177.854 187.886 177.706C187.843 177.558 187.769 177.42 187.669 177.303C187.57 177.185 187.446 177.09 187.308 177.023C187.169 176.955 187.018 176.918 186.863 176.913C185.94 176.913 184.98 178.286 184.727 179.075C184.727 179.117 184.618 179.566 184.556 179.896C184.556 179.7 184.556 179.499 184.556 179.313C184.556 178.611 184.603 177.971 184.649 177.403C184.675 177.078 184.706 176.789 184.737 176.515C185.365 176.108 185.929 175.609 186.409 175.034C186.6 174.761 186.73 174.45 186.79 174.122C186.85 173.795 186.838 173.458 186.755 173.135C186.703 172.989 186.621 172.856 186.514 172.744C186.407 172.632 186.278 172.544 186.135 172.486C185.992 172.427 185.838 172.4 185.683 172.405C185.528 172.41 185.377 172.448 185.238 172.516C184.412 172.944 184.205 174.58 184.334 175.416C184.334 175.488 184.654 176.572 184.67 176.562C184.634 176.825 184.598 177.078 184.567 177.414C184.51 177.981 184.453 178.621 184.438 179.328C184.41 180.086 184.427 180.844 184.489 181.599C184.554 182.448 184.695 183.289 184.912 184.113C184.912 184.113 184.912 184.113 184.912 184.138C184.768 183.911 184.34 183.282 184.303 183.24C183.762 182.611 182.342 181.723 181.491 182.084C181.352 182.149 181.229 182.242 181.129 182.357C181.028 182.471 180.953 182.606 180.907 182.752C180.861 182.897 180.847 183.051 180.864 183.202C180.88 183.354 180.929 183.501 181.006 183.633C181.204 183.903 181.459 184.126 181.754 184.287C182.048 184.447 182.374 184.541 182.709 184.562Z" fill="black"/>
<path d="M198.61 180.206C198.61 180.206 198.909 179.127 198.915 179.055C199.033 178.234 198.77 176.583 197.934 176.18C197.794 176.117 197.641 176.084 197.488 176.083C197.334 176.082 197.181 176.114 197.04 176.177C196.9 176.239 196.774 176.33 196.671 176.445C196.567 176.559 196.49 176.694 196.442 176.841C196.366 177.165 196.362 177.503 196.43 177.829C196.499 178.156 196.639 178.463 196.84 178.73C197.354 179.307 197.95 179.804 198.61 180.206Z" fill="black"/>
<path d="M195.261 199.968H188.355L189.047 215.952H194.574L195.261 199.968Z" fill="black"/>
<path d="M204.065 216.421H114.665V233.742H204.065V216.421Z" fill="white" stroke="black" stroke-width="0.516112" stroke-linecap="round" stroke-linejoin="round"/>
<path d="M204.065 216.421H114.665V222.202H204.065V216.421Z" fill="black" stroke="black" stroke-width="0.516112" stroke-linecap="round" stroke-linejoin="round"/>
<path d="M206.698 216.421H112.032V219.502H206.698V216.421Z" fill="white" stroke="black" stroke-width="0.516112" stroke-linecap="round" stroke-linejoin="round"/>
<path d="M173.862 210.563L162.699 182.776C162.676 182.665 162.628 182.56 162.56 182.47C162.491 182.379 162.404 182.305 162.304 182.252C162.203 182.198 162.093 182.168 161.979 182.163C161.866 182.157 161.753 182.176 161.648 182.22C161.543 182.263 161.448 182.328 161.372 182.412C161.295 182.495 161.237 182.595 161.203 182.703C161.169 182.811 161.159 182.926 161.174 183.038C161.189 183.151 161.229 183.258 161.29 183.354L172.448 211.141C172.587 211.496 172.653 211.875 172.644 212.256C172.643 213.045 172.33 213.801 171.773 214.359C171.215 214.917 170.46 215.231 169.672 215.234H160.743V216.783H169.672C170.871 216.781 172.021 216.304 172.869 215.455C173.717 214.606 174.193 213.456 174.193 212.256C174.193 211.676 174.081 211.101 173.862 210.563Z" fill="black"/>
<path d="M165.99 155.285L163.038 154.99L157.755 207.824L160.707 208.12L165.99 155.285Z" fill="white" stroke="black" stroke-width="0.518686" stroke-linecap="round" stroke-linejoin="round"/>
<path d="M150.844 213.572L122.009 214.842V216.292H150.844V213.572Z" fill="white" stroke="black" stroke-width="0.516112" stroke-linecap="round" stroke-linejoin="round"/>
<path d="M69.6286 211.338L66.9242 233.68H112.6L98.8921 227.089C98.8921 227.089 100.265 225.169 100.399 223.931C100.533 222.692 96.7864 215.941 96.4458 215.332L96.1413 213.299C96.1413 213.299 95.4858 203.684 95.8626 201.815C96.2393 199.947 97.1683 195.56 95.3 190.61C93.4317 185.661 88.5906 177.166 88.5906 177.166L74.1394 172.965C74.1394 172.965 67.5126 182.115 68.7254 191.823C69.4601 198.301 69.7618 204.82 69.6286 211.338Z" fill="#0E204E" stroke="black" stroke-width="0.516112" stroke-linecap="round" stroke-linejoin="round"/>
<path d="M112.6 233.68L98.8922 227.089L87.5171 233.68H112.6Z" fill="black" stroke="black" stroke-width="0.516112" stroke-linecap="round" stroke-linejoin="round"/>
<path d="M98.8922 227.089L80.4928 232.446" stroke="black" stroke-width="0.516112" stroke-linecap="round" stroke-linejoin="round"/>
<path d="M83.3779 230.114L79.5328 233.272" stroke="black" stroke-width="0.516112" stroke-linecap="round" stroke-linejoin="round"/>
<path d="M98.9644 144.026C99.5728 145.761 99.9545 147.567 100.1 149.399C100.409 152.718 99.754 154.529 100.585 155.551C101.416 156.573 102.237 156.846 101.751 157.925C101.266 159.004 99.2173 159.726 99.2173 159.726C99.2173 159.726 97.2612 164.124 96.0845 165.507C94.9077 166.89 90.4537 165.507 90.4537 165.507L88.9363 170.229L78.5676 165.213L79.9095 160.382L77.8451 154.065C77.8451 154.065 82.583 140.001 98.9644 144.026Z" fill="white" stroke="black" stroke-width="0.516112" stroke-linecap="round" stroke-linejoin="round"/>
<path d="M90.4589 165.486L88.219 164.284L89.3854 168.087L90.4589 165.486Z" fill="black" stroke="black" stroke-width="0.516112" stroke-linecap="round" stroke-linejoin="round"/>
<path d="M94.2781 159.406C94.2781 159.406 95.4342 160.955 96.936 160.898" stroke="black" stroke-width="0.516112" stroke-linecap="round" stroke-linejoin="round"/>
<path d="M98.8405 153.306C98.7631 154.023 98.4328 154.581 98.1024 154.545C97.7721 154.508 97.5554 153.899 97.6328 153.182C97.7102 152.465 98.0353 151.912 98.3708 151.943C98.7063 151.974 98.9231 152.589 98.8405 153.306Z" fill="black"/>
<path d="M97.1373 150.782C97.1373 150.782 98.3399 149.125 99.496 150.653" stroke="black" stroke-width="0.516112" stroke-linecap="round" stroke-linejoin="round"/>
<path d="M84.441 134.736C84.441 134.736 76.2452 134.076 74.0362 139.103C71.8272 144.129 71.7653 151.071 72.6427 153.507C73.5201 155.943 76.2555 159.603 77.3445 160.655C78.4335 161.708 80.2553 162.462 81.8295 161.775C83.4036 161.089 85.3081 158.101 85.7881 156.181C86.2681 154.261 85.9842 152.444 86.459 152.403C87.5971 152.486 88.7412 152.415 89.8602 152.191C92.1569 151.768 96.7812 149.714 99.2999 146.22C101.818 142.726 101.364 138.834 100.41 137.327C99.4547 135.82 89.2305 131.944 84.441 134.736Z" fill="black" stroke="black" stroke-width="0.516112" stroke-linecap="round" stroke-linejoin="round"/>
<path d="M84.312 133.219C84.312 133.219 84.41 135.015 83.2798 136.114C82.1495 137.213 76.4464 139.536 76.4464 139.536C76.4464 139.536 74.5729 144.036 73.8659 145.373C73.1588 146.71 72.3795 147.004 71.4918 146.534C70.604 146.065 66.5113 143.861 66.7848 143.046C67.0584 142.23 67.9564 141.662 67.9822 140.542C68.008 139.422 67.1977 138.112 67.8429 137.337C68.4831 136.64 69.1731 135.989 69.9073 135.392C69.9073 135.392 68.617 131.505 69.7163 130.865C70.8157 130.225 73.4065 130.592 74.0775 130.473C74.7484 130.354 75.7394 127.077 78.8154 127.304C79.6809 127.346 80.5221 127.605 81.2622 128.056C82.0023 128.506 82.6178 129.135 83.0527 129.885C83.3844 129.813 83.731 129.867 84.0255 130.035C84.32 130.204 84.5416 130.476 84.6474 130.798C84.8264 131.619 84.7075 132.477 84.312 133.219Z" fill="white" stroke="black" stroke-width="0.516112" stroke-linecap="round" stroke-linejoin="round"/>
<path d="M74.0878 130.473L76.3793 130.994" stroke="black" stroke-width="0.516112" stroke-linecap="round" stroke-linejoin="round"/>
<path d="M76.5342 129.508C76.5342 129.508 76.6787 130.834 75.5381 132.78C74.3975 134.726 70.5267 139.49 69.0815 140.749" stroke="black" stroke-width="0.516112" stroke-linecap="round" stroke-linejoin="round"/>
<path d="M69.9382 135.392C70.5081 134.812 71.2157 134.387 71.9947 134.156C72.7738 133.925 73.5987 133.896 74.3923 134.07" stroke="black" stroke-width="0.516112" stroke-linecap="round" stroke-linejoin="round"/>
<path d="M82.6244 130.509C82.6244 130.509 79.1974 134.571 76.7665 137.219C74.3356 139.866 71.1512 141.616 70.8467 143.649" stroke="black" stroke-width="0.516112" stroke-linecap="round" stroke-linejoin="round"/>
<path d="M79.9353 133.807C79.9353 133.807 82.7017 131.557 84.3119 133.224" stroke="black" stroke-width="0.516112" stroke-linecap="round" stroke-linejoin="round"/>
<path d="M89.2306 154.658C89.2306 154.658 87.4242 150.343 85.5249 151.458C83.6256 152.573 84.1675 157.326 85.0655 158.637C85.9636 159.948 87.6719 158.813 87.6719 158.813" fill="white"/>
<path d="M89.2306 154.658C89.2306 154.658 87.4242 150.343 85.5249 151.458C83.6256 152.573 84.1675 157.326 85.0655 158.637C85.9636 159.948 87.6719 158.813 87.6719 158.813" stroke="black" stroke-width="0.516112" stroke-linecap="round" stroke-linejoin="round"/>
<path d="M76.8696 164.16C76.8696 164.16 90.5827 167.798 91.4343 168.903C92.2859 170.007 92.0898 170.967 91.6201 171.612C91.1322 172.538 90.7264 173.506 90.4072 174.503C90.4072 174.503 91.0627 176.567 90.6911 177.398C90.3944 177.88 89.9601 178.263 89.4441 178.497C88.9281 178.73 88.354 178.804 87.7957 178.709C86.7635 178.43 74.5368 174.229 74.0723 173.95C73.6078 173.672 73.4169 171.525 74.351 170.854C75.2852 170.183 74.8155 170.947 75.2852 170.198C75.7548 169.45 74.2581 164.438 76.8696 164.16Z" fill="#0E204E" stroke="black" stroke-width="0.516112" stroke-linecap="round" stroke-linejoin="round"/>
<path d="M118.969 204.478C118.969 204.478 125.761 205.356 126.194 205.284C126.628 205.211 128.971 206.961 130.87 208.132C132.77 209.304 133.497 210.249 134.524 211.276C135.552 212.303 136.935 212.824 136.346 213.247C135.758 213.67 135.474 213.686 134.597 213.392C133.719 213.097 132.697 212.736 132.697 212.736C132.061 213.121 131.313 213.275 130.576 213.175C129.359 212.835 128.165 212.42 127 211.931C125.875 212.049 124.739 211.974 123.64 211.709C122.251 211.276 119.402 208.643 119.402 208.643L117.72 208.788L117.204 204.917L118.969 204.478Z" fill="white" stroke="black" stroke-width="0.516112" stroke-linecap="round" stroke-linejoin="round"/>
<path d="M127.283 209.01C127.697 209.241 128.089 209.509 128.455 209.81C129.549 210.615 133.492 211.276 132.692 212.736" stroke="black" stroke-width="0.516112" stroke-linecap="round" stroke-linejoin="round"/>
<path d="M138.839 209.634C138.839 209.634 138.963 210.811 138.777 211.121C138.591 211.43 137.915 211.43 137.544 210.687C137.291 210.055 137.145 209.385 137.11 208.705L138.839 209.634Z" fill="white" stroke="black" stroke-width="0.516112" stroke-miterlimit="10"/>
<path d="M137.621 209.49C137.464 209.963 137.225 210.405 136.914 210.796C136.61 210.992 136.001 210.692 135.99 209.861C136.042 209.184 136.206 208.519 136.475 207.895L137.621 209.49Z" fill="white" stroke="black" stroke-width="0.516112" stroke-miterlimit="10"/>
<path d="M138.777 208.458C138.777 208.458 140.016 209.572 139.892 210.687C139.768 211.802 138.901 211.554 138.659 210.811C138.416 210.068 138.142 209.201 138.142 209.201L138.777 208.458Z" fill="white" stroke="black" stroke-width="0.516112" stroke-miterlimit="10"/>
<path d="M117.39 200.102C117.39 200.102 124.486 198.796 126.447 198.982C128.409 199.168 133.915 201.5 134.566 201.872C135.216 202.244 139.051 204.969 139.144 205.702C139.161 206.484 139.097 207.266 138.953 208.034C138.953 208.034 140.821 208.411 140.171 209.247C139.52 210.083 138.106 209.903 137.275 209.624C136.444 209.345 133.724 207.56 133.074 207.291C132.424 207.023 130.086 207.57 128.31 207.007C126.535 206.445 123.738 203.833 123.738 203.833L117.937 205.516L117.39 200.102Z" fill="white" stroke="black" stroke-width="0.516112" stroke-miterlimit="10"/>
<path d="M133.523 202.398C134.297 202.59 134.99 203.024 135.5 203.637C136.532 204.747 138.953 208.034 138.953 208.034C136.284 207.611 133.895 205.056 133.895 205.056" fill="white"/>
<path d="M133.523 202.398C134.297 202.59 134.99 203.024 135.5 203.637C136.532 204.747 138.953 208.034 138.953 208.034C136.284 207.611 133.895 205.056 133.895 205.056" stroke="black" stroke-width="0.516112" stroke-miterlimit="10"/>
<path d="M76.6839 181.893C76.6839 181.893 73.9794 187.122 75.471 200.195C76.9625 213.268 82.1804 220.922 85.179 221.015C88.1777 221.107 110.572 214.666 112.817 213.355C115.062 212.045 119.526 210.744 119.815 210.651C120.104 210.558 120.848 207.849 120.192 204.21C119.94 202.603 119.596 201.013 119.16 199.446L110.386 201.036L97.0393 203.276C97.0842 203.017 97.0448 202.75 96.9268 202.515C96.8088 202.28 96.6185 202.089 96.3838 201.97C95.5121 201.574 94.6049 201.261 93.6742 201.036C93.6742 201.036 91.2485 184.52 86.2061 180.216" fill="#0E204E"/>
<path d="M76.6839 181.893C76.6839 181.893 73.9794 187.122 75.471 200.195C76.9625 213.268 82.1804 220.922 85.179 221.015C88.1777 221.107 110.572 214.666 112.817 213.355C115.062 212.045 119.526 210.744 119.815 210.651C120.104 210.558 120.848 207.849 120.192 204.21C119.94 202.603 119.596 201.013 119.16 199.446L110.386 201.036L97.0393 203.276C97.0842 203.017 97.0448 202.75 96.9268 202.515C96.8088 202.28 96.6185 202.089 96.3838 201.97C95.5121 201.574 94.6049 201.261 93.6742 201.036C93.6742 201.036 91.2485 184.52 86.2061 180.216" stroke="black" stroke-width="0.516112" stroke-linecap="round" stroke-linejoin="round"/>
<path d="M93.6794 201.036C93.6794 201.036 86.1184 206.073 83.1301 206.636" stroke="black" stroke-width="0.516112" stroke-linecap="round" stroke-linejoin="round"/>
<path d="M84.1726 211.048C83.5143 211.522 82.8246 211.949 82.1082 212.328" stroke="black" stroke-width="0.516112" stroke-linecap="round" stroke-linejoin="round"/>
<path d="M92.7401 203.183C90.4554 205.71 87.9755 208.053 85.3236 210.192" stroke="black" stroke-width="0.516112" stroke-linecap="round" stroke-linejoin="round"/>
<path d="M93.5968 210.383C93.2915 210.763 92.9453 211.11 92.5646 211.415" stroke="black" stroke-width="0.516112" stroke-linecap="round" stroke-linejoin="round"/>
<path d="M96.4767 204.117C96.0236 205.939 95.3128 207.688 94.3658 209.309" stroke="black" stroke-width="0.516112" stroke-linecap="round" stroke-linejoin="round"/>
<path d="M113.508 208.411C113.508 208.927 113.508 209.443 113.467 209.996" stroke="black" stroke-width="0.516112" stroke-linecap="round" stroke-linejoin="round"/>
<path d="M111.413 201.222C111.413 201.222 112.961 202.486 113.405 206.512" stroke="black" stroke-width="0.516112" stroke-linecap="round" stroke-linejoin="round"/>
<path d="M68.0235 233.742H59.6161C59.6161 233.742 54.1659 212.014 56.3594 195.255C56.4634 194.477 56.8469 193.763 57.4385 193.246C58.0301 192.73 58.7894 192.446 59.5748 192.448C60.001 192.447 60.4231 192.531 60.8168 192.694C61.2104 192.858 61.5678 193.097 61.8682 193.4C62.1686 193.702 62.4061 194.061 62.567 194.456C62.7279 194.85 62.809 195.273 62.8056 195.699C62.7643 201.671 63.3114 215.466 68.0235 233.742Z" fill="black" stroke="black" stroke-width="0.516112" stroke-linecap="round" stroke-linejoin="round"/>
<path d="M0.258057 233.742H243.6" stroke="black" stroke-width="0.516112" stroke-linecap="round" stroke-linejoin="round"/>
</g>
<defs>
<clipPath id="clip0_27_141">
<rect width="246.34" height="234" fill="white"/>
</clipPath>
</defs>
</svg>
