<svg width="34" height="13" viewBox="0 0 34 13" fill="none" xmlns="http://www.w3.org/2000/svg">
<path d="M7.36 2.384C7.30667 2.47467 7.25067 2.54133 7.192 2.584C7.13333 2.62667 7.05867 2.648 6.968 2.648C6.872 2.648 6.76267 2.60533 6.64 2.52C6.51733 2.42933 6.36267 2.33067 6.176 2.224C5.99467 2.112 5.776 2.01333 5.52 1.928C5.264 1.83733 4.95733 1.792 4.6 1.792C4.264 1.792 3.968 1.83733 3.712 1.928C3.46133 2.01333 3.25067 2.13333 3.08 2.288C2.90933 2.43733 2.77867 2.616 2.688 2.824C2.60267 3.02667 2.56 3.248 2.56 3.488C2.56 3.79733 2.63733 4.05333 2.792 4.256C2.952 4.45867 3.16 4.632 3.416 4.776C3.672 4.92 3.96267 5.04533 4.288 5.152C4.61333 5.25867 4.94667 5.37067 5.288 5.488C5.62933 5.6 5.96267 5.73067 6.288 5.88C6.61333 6.02933 6.904 6.21867 7.16 6.448C7.416 6.672 7.62133 6.94933 7.776 7.28C7.936 7.60533 8.016 8.00533 8.016 8.48C8.016 8.98667 7.928 9.46133 7.752 9.904C7.58133 10.3467 7.33067 10.7333 7 11.064C6.66933 11.3947 6.26133 11.656 5.776 11.848C5.296 12.0347 4.74933 12.128 4.136 12.128C3.768 12.128 3.41067 12.0907 3.064 12.016C2.71733 11.9467 2.38933 11.848 2.08 11.72C1.77067 11.5867 1.48 11.4293 1.208 11.248C0.941333 11.0613 0.701333 10.8533 0.488 10.624L0.976 9.808C1.024 9.744 1.08 9.69067 1.144 9.648C1.21333 9.60533 1.29067 9.584 1.376 9.584C1.488 9.584 1.616 9.64267 1.76 9.76C1.90933 9.87733 2.09067 10.008 2.304 10.152C2.52267 10.2907 2.78133 10.4187 3.08 10.536C3.384 10.6533 3.752 10.712 4.184 10.712C4.536 10.712 4.85067 10.6667 5.128 10.576C5.40533 10.48 5.63733 10.3467 5.824 10.176C6.016 10 6.16267 9.78933 6.264 9.544C6.36533 9.29867 6.416 9.02667 6.416 8.728C6.416 8.392 6.33867 8.11733 6.184 7.904C6.02933 7.69067 5.824 7.512 5.568 7.368C5.312 7.224 5.02133 7.10133 4.696 7C4.37067 6.89867 4.03733 6.79467 3.696 6.688C3.35467 6.576 3.02133 6.448 2.696 6.304C2.37067 6.16 2.08 5.97333 1.824 5.744C1.568 5.50933 1.36267 5.21867 1.208 4.872C1.05333 4.52 0.976 4.088 0.976 3.576C0.976 3.16533 1.056 2.768 1.216 2.384C1.376 2 1.608 1.66133 1.912 1.368C2.22133 1.06933 2.6 0.831999 3.048 0.655999C3.496 0.474666 4.008 0.384 4.584 0.384C5.22933 0.384 5.82133 0.488 6.36 0.695999C6.904 0.898666 7.376 1.192 7.776 1.576L7.36 2.384ZM15.1363 7.032C15.1363 6.72267 15.0909 6.43733 15.0003 6.176C14.9149 5.91467 14.7869 5.688 14.6163 5.496C14.4456 5.304 14.2376 5.15467 13.9923 5.048C13.7469 4.94133 13.4643 4.888 13.1443 4.888C12.4883 4.888 11.9709 5.07733 11.5923 5.456C11.2189 5.83467 10.9816 6.36 10.8803 7.032H15.1363ZM16.4243 10.84C16.2323 11.064 16.0109 11.2587 15.7603 11.424C15.5096 11.584 15.2429 11.7147 14.9603 11.816C14.6776 11.9173 14.3843 11.992 14.0803 12.04C13.7816 12.088 13.4856 12.112 13.1923 12.112C12.6323 12.112 12.1123 12.0187 11.6323 11.832C11.1576 11.64 10.7443 11.3627 10.3923 11C10.0456 10.632 9.77358 10.1787 9.57625 9.64C9.38425 9.096 9.28825 8.472 9.28825 7.768C9.28825 7.20267 9.37625 6.67733 9.55225 6.192C9.72825 5.70133 9.97892 5.27467 10.3043 4.912C10.6349 4.54933 11.0376 4.264 11.5123 4.056C11.9869 3.848 12.5203 3.744 13.1123 3.744C13.6083 3.744 14.0643 3.82667 14.4803 3.992C14.9016 4.152 15.2643 4.38667 15.5683 4.696C15.8723 5.00533 16.1096 5.38667 16.2803 5.84C16.4563 6.29333 16.5443 6.81067 16.5443 7.392C16.5443 7.632 16.5176 7.79467 16.4643 7.88C16.4109 7.96 16.3123 8 16.1683 8H10.8403C10.8563 8.48533 10.9256 8.90933 11.0483 9.272C11.1709 9.62933 11.3389 9.928 11.5523 10.168C11.7709 10.408 12.0296 10.5867 12.3283 10.704C12.6269 10.8213 12.9603 10.88 13.3283 10.88C13.6749 10.88 13.9736 10.84 14.2243 10.76C14.4803 10.68 14.6989 10.5947 14.8803 10.504C15.0669 10.408 15.2216 10.32 15.3443 10.24C15.4723 10.16 15.5843 10.12 15.6803 10.12C15.8083 10.12 15.9069 10.168 15.9763 10.264L16.4243 10.84ZM19.685 5C19.861 4.81333 20.045 4.64267 20.237 4.488C20.429 4.33333 20.6317 4.20267 20.845 4.096C21.0637 3.984 21.2957 3.89867 21.541 3.84C21.7917 3.776 22.0583 3.744 22.341 3.744C22.789 3.744 23.181 3.81867 23.517 3.968C23.8583 4.11733 24.1437 4.328 24.373 4.6C24.6023 4.86667 24.7757 5.18933 24.893 5.568C25.0103 5.94667 25.069 6.36533 25.069 6.824V12H23.501V6.824C23.501 6.24267 23.3677 5.792 23.101 5.472C22.8343 5.14667 22.4263 4.984 21.877 4.984C21.477 4.984 21.101 5.08 20.749 5.272C20.4023 5.45867 20.0797 5.71467 19.781 6.04V12H18.221V3.872H19.157C19.3757 3.872 19.5117 3.976 19.565 4.184L19.685 5ZM32.4141 5.84C32.1581 5.504 31.8808 5.26933 31.5821 5.136C31.2888 5.00267 30.9581 4.936 30.5901 4.936C29.8755 4.936 29.3208 5.19467 28.9261 5.712C28.5368 6.224 28.3421 6.97333 28.3421 7.96C28.3421 8.47733 28.3848 8.92 28.4701 9.288C28.5608 9.65067 28.6888 9.94933 28.8541 10.184C29.0248 10.4133 29.2328 10.584 29.4781 10.696C29.7235 10.8027 30.0008 10.856 30.3101 10.856C30.7635 10.856 31.1555 10.7547 31.4861 10.552C31.8168 10.3493 32.1261 10.064 32.4141 9.696V5.84ZM33.9821 0.191999V12H33.0381C32.8195 12 32.6835 11.896 32.6301 11.688L32.4941 10.752C32.1475 11.1627 31.7528 11.4933 31.3101 11.744C30.8728 11.9893 30.3661 12.112 29.7901 12.112C29.3261 12.112 28.9048 12.0213 28.5261 11.84C28.1528 11.6587 27.8328 11.3947 27.5661 11.048C27.2995 10.696 27.0941 10.2613 26.9501 9.744C26.8061 9.22667 26.7341 8.632 26.7341 7.96C26.7341 7.35733 26.8141 6.79733 26.9741 6.28C27.1341 5.76267 27.3661 5.31467 27.6701 4.936C27.9741 4.55733 28.3421 4.26133 28.7741 4.048C29.2061 3.82933 29.6941 3.72 30.2381 3.72C30.7288 3.72 31.1448 3.8 31.4861 3.96C31.8328 4.12 32.1421 4.34667 32.4141 4.64V0.191999H33.9821Z" fill="white"/>
</svg>
