<svg width="259" height="234" viewBox="0 0 259 234" fill="none" xmlns="http://www.w3.org/2000/svg">
<g clip-path="url(#clip0_27_875)">
<path d="M250.354 136.195C243.144 158.049 227.608 182.008 204.739 189.806C170.191 201.596 167.092 229.927 104.406 229.735C95.2515 229.748 86.1231 228.767 77.1805 226.812C72.8084 225.84 68.5026 224.59 64.2894 223.07C27.1449 209.672 6.80894 177.807 3.89617 143.757C0.0748257 98.9702 30.5494 76.3788 50.3936 63.0549C70.2379 49.7309 92.8987 0.283236 154.543 -0.0107134C163.953 -0.0950698 173.341 0.907435 182.521 2.97688C203.45 7.78697 224.989 19.3686 237.928 37.0216C238.895 38.347 239.825 39.6939 240.723 41.0941C258.195 68.2604 260.188 106.394 250.354 136.195Z" fill="#E6EFFD"/>
<path d="M25.611 23.3129H18.2943V30.6295H25.611V23.3129Z" stroke="black" stroke-width="0.534454" stroke-linecap="round" stroke-linejoin="round"/>
<path d="M28.5398 26.9685H60.7406" stroke="black" stroke-width="0.534454" stroke-linecap="round" stroke-linejoin="round"/>
<path d="M25.611 33.5583H18.2943V40.875H25.611V33.5583Z" stroke="black" stroke-width="0.534454" stroke-linecap="round" stroke-linejoin="round"/>
<path d="M28.5398 37.2194H60.7406" stroke="black" stroke-width="0.534454" stroke-linecap="round" stroke-linejoin="round"/>
<path d="M25.611 43.8038H18.2943V51.1205H25.611V43.8038Z" stroke="black" stroke-width="0.534454" stroke-linecap="round" stroke-linejoin="round"/>
<path d="M28.5398 47.4648H60.7406" stroke="black" stroke-width="0.534454" stroke-linecap="round" stroke-linejoin="round"/>
<path d="M25.611 54.0493H18.2943V61.366H25.611V54.0493Z" stroke="black" stroke-width="0.534454" stroke-linecap="round" stroke-linejoin="round"/>
<path d="M28.5398 57.7103H60.7406" stroke="black" stroke-width="0.534454" stroke-linecap="round" stroke-linejoin="round"/>
<path d="M25.611 64.2948H18.2943V71.6115H25.611V64.2948Z" stroke="black" stroke-width="0.534454" stroke-linecap="round" stroke-linejoin="round"/>
<path d="M28.5398 67.9558H60.7406" stroke="black" stroke-width="0.534454" stroke-linecap="round" stroke-linejoin="round"/>
<path d="M25.611 74.5403H18.2943V81.857H25.611V74.5403Z" stroke="black" stroke-width="0.534454" stroke-linecap="round" stroke-linejoin="round"/>
<path d="M28.5398 78.2013H60.7406" stroke="black" stroke-width="0.534454" stroke-linecap="round" stroke-linejoin="round"/>
<path d="M230.643 152.448H225.609V157.482H230.643V152.448Z" stroke="black" stroke-width="0.534454" stroke-linecap="round" stroke-linejoin="round"/>
<path d="M232.658 154.965H254.811" stroke="black" stroke-width="0.534454" stroke-linecap="round" stroke-linejoin="round"/>
<path d="M230.643 159.492H225.609V164.526H230.643V159.492Z" stroke="black" stroke-width="0.534454" stroke-linecap="round" stroke-linejoin="round"/>
<path d="M232.658 162.009H254.811" stroke="black" stroke-width="0.534454" stroke-linecap="round" stroke-linejoin="round"/>
<path d="M230.643 166.541H225.609V171.576H230.643V166.541Z" stroke="black" stroke-width="0.534454" stroke-linecap="round" stroke-linejoin="round"/>
<path d="M232.658 169.058H254.811" stroke="black" stroke-width="0.534454" stroke-linecap="round" stroke-linejoin="round"/>
<path d="M230.643 173.591H225.609V178.625H230.643V173.591Z" stroke="black" stroke-width="0.534454" stroke-linecap="round" stroke-linejoin="round"/>
<path d="M232.658 176.108H254.811" stroke="black" stroke-width="0.534454" stroke-linecap="round" stroke-linejoin="round"/>
<path d="M230.643 180.64H225.609V185.675H230.643V180.64Z" stroke="black" stroke-width="0.534454" stroke-linecap="round" stroke-linejoin="round"/>
<path d="M232.658 183.157H254.811" stroke="black" stroke-width="0.534454" stroke-linecap="round" stroke-linejoin="round"/>
<path d="M230.643 187.69H225.609V192.724H230.643V187.69Z" stroke="black" stroke-width="0.534454" stroke-linecap="round" stroke-linejoin="round"/>
<path d="M232.658 190.202H254.811" stroke="black" stroke-width="0.534454" stroke-linecap="round" stroke-linejoin="round"/>
<path d="M138.883 22.6074H107.19V45.295H138.883V22.6074Z" stroke="black" stroke-width="0.534454" stroke-linecap="round" stroke-linejoin="round"/>
<path d="M107.19 22.6074L123.037 33.9485L138.888 22.6074" stroke="black" stroke-width="0.534454" stroke-linecap="round" stroke-linejoin="round"/>
<path d="M160.849 15.6542H141.427V29.5553H160.849V15.6542Z" stroke="black" stroke-width="0.534454" stroke-linecap="round" stroke-linejoin="round"/>
<path d="M141.427 15.6542L151.138 22.6021L160.849 15.6542" stroke="black" stroke-width="0.534454" stroke-linecap="round" stroke-linejoin="round"/>
<path d="M37.2407 202.296H17.8187V216.197H37.2407V202.296Z" stroke="black" stroke-width="0.534454" stroke-linecap="round" stroke-linejoin="round"/>
<path d="M17.8187 202.296L27.5297 209.249L37.2407 202.296" stroke="black" stroke-width="0.534454" stroke-linecap="round" stroke-linejoin="round"/>
<path d="M6.40277 233.679H254.523" stroke="black" stroke-width="0.534454" stroke-miterlimit="10"/>
<path d="M5.48884 165.681C7.23116 165.397 10.5074 163.174 10.5127 163.174C10.5181 163.174 8.37489 161.459 8.24128 161.368C6.52568 160.299 2.5921 159.283 0.88185 160.748C0.603677 160.998 0.381262 161.305 0.22902 161.647C0.0767783 161.989 -0.00189209 162.359 -0.00189209 162.733C-0.00189209 163.108 0.0767783 163.478 0.22902 163.82C0.381262 164.162 0.603677 164.468 0.88185 164.719C2.04696 165.82 4.00306 165.921 5.48884 165.681Z" fill="black"/>
<path d="M12.8536 174.569C14.3982 173.863 16.8086 171.089 17.001 170.87C18.5851 172.253 20.2599 173.527 22.0141 174.686C23.0296 175.365 24.0771 176.022 25.1353 176.664C24.6009 176.445 24.1359 176.247 24.0664 176.231C22.1371 175.664 18.0699 175.696 16.8032 177.572C16.6024 177.889 16.4703 178.244 16.4155 178.614C16.3608 178.985 16.3845 179.363 16.4853 179.724C16.5861 180.085 16.7617 180.42 17.0006 180.709C17.2395 180.997 17.5364 181.233 17.8721 181.399C19.2724 182.158 21.1911 181.741 22.5539 181.116C23.9168 180.49 26.0493 178.155 26.5944 177.535L27.8183 178.262C29.7851 179.422 31.7465 180.565 33.6385 181.746C34.3066 182.163 34.9479 182.596 35.5946 183.029C35.1243 182.837 34.7288 182.671 34.6647 182.655C32.7353 182.088 28.6681 182.121 27.4014 184.002C27.2006 184.318 27.0685 184.673 27.0137 185.044C26.959 185.414 26.9828 185.792 27.0836 186.153C27.1844 186.514 27.3599 186.85 27.5988 187.138C27.8377 187.427 28.1347 187.662 28.4703 187.829C29.8706 188.582 31.7839 188.165 33.1521 187.54C34.5203 186.915 36.439 184.809 37.0964 184.071C37.7431 184.531 38.3898 184.996 38.9937 185.472C39.3999 185.808 39.8114 186.102 40.2016 186.46L41.356 187.476C42.0722 188.16 42.8151 188.86 43.4938 189.544C43.9695 190.02 44.4184 190.474 44.8674 190.939C44.21 190.517 42.9006 189.715 42.7883 189.662C40.9605 188.812 36.9094 188.24 35.4022 189.892C35.1555 190.173 34.9707 190.504 34.8599 190.862C34.7491 191.219 34.7148 191.596 34.7592 191.968C34.8035 192.34 34.9255 192.699 35.1173 193.02C35.3091 193.342 35.5664 193.62 35.8725 193.836C37.1445 194.792 39.0792 194.675 40.5436 194.263C42.147 193.809 44.8193 191.538 45.1774 191.249C45.9256 192.019 46.6418 192.772 47.3152 193.488C48.7903 195.092 50.0623 196.529 51.1205 197.764L52.3658 196.962C51.2381 195.696 49.8752 194.205 48.2879 192.569C47.5343 191.783 46.7166 190.966 45.8668 190.132C46.5219 189.203 47.1233 188.238 47.6679 187.241C49.314 187.668 52.5902 187.294 53.0124 187.241C53.2102 188.31 53.3919 189.314 53.5469 190.282C53.8836 192.307 54.1348 194.13 54.3272 195.69L55.674 194.825C55.4549 193.408 55.193 191.805 54.867 190.052C54.6693 188.983 54.4341 187.845 54.1882 186.685C54.5891 186.53 57.8867 185.236 59.0464 184.055C60.1153 182.986 61.1415 181.319 60.9117 179.742C60.8683 179.37 60.7473 179.012 60.5564 178.69C60.3656 178.367 60.1092 178.089 59.8038 177.872C59.4984 177.656 59.1509 177.506 58.7838 177.432C58.4167 177.358 58.0382 177.362 57.6729 177.444C55.487 177.979 54.0653 181.811 53.9317 183.82C53.9317 183.938 53.9852 185.231 54.0386 186.049C53.9371 185.573 53.8408 185.113 53.7286 184.622C53.5095 183.66 53.2636 182.698 53.0018 181.672L52.5688 180.175C52.4352 179.673 52.2268 179.16 52.0344 178.641C51.6175 177.46 51.1365 176.284 50.6234 175.103C51.4679 174.911 54.4608 174.184 55.6687 173.281C56.8765 172.377 58.1539 170.892 58.1592 169.304C58.1736 168.93 58.109 168.557 57.9699 168.209C57.8307 167.861 57.6199 167.547 57.3513 167.286C57.0827 167.025 56.7623 166.823 56.4107 166.694C56.0591 166.565 55.6843 166.511 55.3106 166.536C53.0659 166.755 51.0831 170.304 50.6502 172.271C50.6502 172.393 50.4791 173.842 50.4097 174.638C50.0997 173.933 49.7897 173.227 49.4476 172.527C48.4696 170.496 47.4167 168.476 46.3745 166.45C46.0539 165.83 45.7439 165.21 45.4285 164.59C45.7278 164.526 49.3033 163.735 50.6609 162.72C51.8634 161.822 53.1461 160.336 53.1514 158.744C53.165 158.369 53.0998 157.996 52.96 157.649C52.8201 157.301 52.6088 156.987 52.3397 156.726C52.0706 156.466 51.7497 156.265 51.3979 156.136C51.046 156.008 50.6711 155.955 50.2974 155.98C48.0581 156.2 46.0699 159.748 45.6423 161.715C45.6103 161.865 45.3965 163.944 45.3698 164.478C44.6803 163.11 44.0016 161.742 43.3923 160.368C42.5585 158.513 41.8445 156.607 41.2545 154.66C41.3934 154.628 45.1293 153.821 46.5188 152.784C47.7214 151.881 49.004 150.395 49.0094 148.808C49.023 148.434 48.9578 148.061 48.8179 147.713C48.6781 147.366 48.4668 147.052 48.1977 146.791C47.9285 146.53 47.6077 146.329 47.2558 146.201C46.904 146.072 46.5291 146.019 46.1554 146.045C43.916 146.264 41.9279 149.813 41.5003 151.78C41.4682 151.929 41.2384 154.169 41.2277 154.58C41.1957 154.468 41.1476 154.356 41.1155 154.238C40.5827 152.269 40.225 150.257 40.0466 148.225C39.9344 147.108 39.8863 146.029 39.8702 144.976C40.5811 144.901 43.8252 144.506 45.1774 143.709C46.5295 142.913 47.9084 141.609 48.0901 140.027C48.1443 139.657 48.1202 139.279 48.0191 138.919C47.9181 138.558 47.7425 138.223 47.5036 137.935C47.2648 137.647 46.9681 137.412 46.6327 137.246C46.2974 137.079 45.9308 136.985 45.5568 136.97C43.3068 136.938 40.9445 140.246 40.2978 142.154C40.2657 142.261 40.0252 143.351 39.8649 144.153C39.8649 143.677 39.8649 143.191 39.8649 142.737C39.8649 141.032 40.0092 139.471 40.1321 138.092C40.2069 137.307 40.2924 136.601 40.378 135.954C41.0353 135.511 43.6648 133.699 44.4826 132.395C45.3003 131.091 45.9363 129.274 45.3698 127.788C45.2476 127.434 45.0525 127.11 44.797 126.836C44.5416 126.563 44.2315 126.346 43.8868 126.2C43.5422 126.053 43.1707 125.981 42.7964 125.988C42.4221 125.995 42.0534 126.08 41.7141 126.238C39.6992 127.248 39.1273 131.273 39.4373 133.266C39.4373 133.437 40.1909 136.077 40.2283 136.056L40.2657 136.029C40.1695 136.665 40.0787 137.344 39.9878 138.092C39.8328 139.471 39.6778 141.032 39.619 142.742C39.5341 144.586 39.5573 146.433 39.6885 148.274C39.823 150.336 40.1432 152.383 40.6452 154.388C40.6452 154.388 40.6452 154.43 40.6452 154.457C40.2978 153.896 39.2663 152.357 39.1754 152.25C37.8767 150.711 34.4616 148.509 32.3772 149.364C32.0352 149.517 31.7291 149.739 31.4788 150.018C31.2284 150.296 31.0394 150.624 30.924 150.981C30.8086 151.337 30.7694 151.714 30.8089 152.086C30.8484 152.458 30.9657 152.818 31.1533 153.142C31.9015 154.548 33.7294 155.28 35.2151 155.489C36.888 155.751 40.4314 154.767 40.7147 154.687C41.2732 156.715 41.966 158.704 42.7883 160.641C43.264 161.769 43.7771 162.891 44.3062 164.013C43.9855 163.538 43.7023 163.115 43.6542 163.057C42.3554 161.523 38.9349 159.315 36.8506 160.176C36.5115 160.332 36.209 160.558 35.9626 160.839C35.7162 161.12 35.5314 161.449 35.4201 161.806C35.3088 162.162 35.2735 162.538 35.3164 162.909C35.3594 163.28 35.4796 163.638 35.6694 163.96C36.423 165.365 38.2508 166.098 39.7366 166.311C41.2224 166.525 44.2795 165.777 45.0812 165.547C45.2896 165.975 45.4873 166.408 45.6958 166.835C46.6952 168.882 47.7053 170.918 48.6299 172.949C48.9559 173.665 49.2552 174.382 49.5492 175.087C49.2713 174.665 49.0147 174.312 49.0147 174.264C47.7107 172.725 44.2955 170.523 42.2111 171.378C41.8632 171.528 41.551 171.749 41.2952 172.029C41.0395 172.308 40.8461 172.639 40.7279 172.999C40.6096 173.359 40.5692 173.739 40.6093 174.116C40.6494 174.493 40.7691 174.856 40.9605 175.183C41.7141 176.584 43.5419 177.294 45.0277 177.53C46.5135 177.765 49.2713 177.059 50.2279 176.808C50.5112 177.546 50.7945 178.294 51.035 179.026C51.19 179.528 51.3717 179.999 51.4999 180.517L51.9008 182.019C52.1199 182.986 52.3551 183.98 52.5475 184.926C52.6811 185.589 52.804 186.214 52.9269 186.85C52.6063 186.134 51.9596 184.745 51.8901 184.638C50.909 183.162 49.5657 181.962 47.9886 181.153C47.8855 180.986 47.7693 180.827 47.6412 180.678C47.3997 180.391 47.1007 180.159 46.7636 179.995C46.4264 179.832 46.0587 179.741 45.6843 179.729C45.3098 179.717 44.937 179.784 44.59 179.925C44.243 180.066 43.9296 180.279 43.6702 180.549C42.1523 182.217 43.0663 186.177 44.071 187.925C44.1298 188.026 44.8994 189.074 45.3911 189.726C45.0437 189.384 44.707 189.052 44.3222 188.71C43.6114 188.021 42.8739 187.358 42.0882 186.642L40.9017 185.637C40.5116 185.29 40.0573 184.975 39.6351 184.638C38.6303 183.884 37.5828 183.168 36.5032 182.468C37.1071 181.837 39.1754 179.582 39.7099 178.16C40.2443 176.739 40.4688 174.799 39.5977 173.468C39.4027 173.148 39.1427 172.873 38.8348 172.661C38.5268 172.448 38.1776 172.303 37.8098 172.234C37.442 172.165 37.0638 172.174 36.6997 172.26C36.3356 172.347 35.9937 172.509 35.6961 172.736C33.9431 174.157 34.2424 178.214 34.9746 180.09C35.0174 180.207 35.6908 181.495 36.0756 182.195C35.4236 181.779 34.7822 181.362 34.1088 180.961C32.1741 179.812 30.1752 178.705 28.1924 177.594L26.3753 176.562C26.5944 176.343 29.1384 173.714 29.7103 172.121C30.2447 170.705 30.4638 168.759 29.5927 167.428C29.3977 167.109 29.1378 166.834 28.8298 166.622C28.5218 166.409 28.1726 166.264 27.8048 166.194C27.437 166.125 27.0588 166.134 26.6947 166.221C26.3306 166.307 25.9887 166.469 25.6912 166.696C23.9382 168.118 24.2428 172.169 24.9697 174.045C25.0231 174.189 25.9958 176.038 26.2684 176.498C24.9376 175.739 23.5961 174.975 22.3508 174.163C20.6308 173.077 18.983 171.881 17.4178 170.582C17.5194 170.48 20.1916 167.744 20.7742 166.114C21.2766 164.697 21.5278 162.752 20.6566 161.421C20.4616 161.102 20.2017 160.827 19.8937 160.614C19.5857 160.402 19.2365 160.256 18.8687 160.187C18.5009 160.118 18.1227 160.127 17.7586 160.214C17.3945 160.3 17.0526 160.462 16.7551 160.689C15.0021 162.111 15.3067 166.167 16.0336 168.043C16.0924 168.187 17.1346 170.181 17.3537 170.528L17.0704 170.309C15.5378 168.962 14.1283 167.481 12.8589 165.884C12.1428 165.013 11.5121 164.142 10.9135 163.276C11.448 162.816 13.9546 160.694 14.6547 159.289C15.3548 157.883 15.7717 156.029 15.0502 154.612C14.8917 154.273 14.6639 153.972 14.3815 153.727C14.0991 153.481 13.7684 153.298 13.4107 153.189C13.053 153.08 12.6764 153.046 12.3052 153.092C11.9339 153.137 11.5764 153.26 11.2556 153.452C9.35827 154.671 9.21397 158.738 9.72704 160.684C9.75911 160.79 10.16 161.833 10.4699 162.586C10.2027 162.196 9.93548 161.795 9.67894 161.41C8.75968 159.978 8.00076 158.605 7.34338 157.386C6.97461 156.691 6.65393 156.055 6.35998 155.457C6.66462 154.724 7.85645 151.764 7.81904 150.224C7.78163 148.685 7.31131 146.815 6.01793 145.89C5.72094 145.662 5.37924 145.498 5.01503 145.41C4.65082 145.323 4.27222 145.313 3.90382 145.381C3.53541 145.449 3.18543 145.593 2.87658 145.805C2.56773 146.017 2.30692 146.292 2.11108 146.611C0.99407 148.568 2.73639 152.245 4.0939 153.73C4.21148 153.859 6.27447 155.66 6.29051 155.622C6.29219 155.608 6.29219 155.594 6.29051 155.58C6.56308 156.162 6.85703 156.782 7.19908 157.455C7.82973 158.69 8.56193 160.08 9.45447 161.539C10.408 163.119 11.4538 164.641 12.5864 166.098C13.8388 167.741 15.2338 169.27 16.7551 170.667L16.8139 170.715C16.21 170.437 14.5104 169.721 14.3714 169.684C12.4367 169.117 8.37487 169.149 7.10822 171.031C6.90738 171.347 6.77528 171.702 6.72052 172.073C6.66576 172.443 6.68955 172.821 6.79035 173.182C6.89114 173.543 7.06669 173.879 7.30561 174.167C7.54452 174.456 7.84145 174.691 8.17713 174.857C9.57205 175.611 11.4854 175.183 12.8536 174.569Z" fill="black"/>
<path d="M39.5923 144.719C39.6297 144.719 38.7693 142.117 38.6944 141.962C37.8447 140.134 35.135 137.103 32.8956 137.381C32.526 137.439 32.1725 137.573 31.858 137.776C31.5436 137.978 31.2752 138.244 31.0701 138.557C30.8651 138.87 30.728 139.223 30.6678 139.592C30.6075 139.961 30.6254 140.339 30.7204 140.7C31.0731 142.256 32.6498 143.421 34.018 144.041C35.616 144.746 39.587 144.719 39.5923 144.719Z" fill="black"/>
<path d="M199.121 26.7707C200.324 27.9679 203.889 29.272 203.889 29.2773C203.889 29.2827 204.033 26.6639 204.022 26.4982C203.883 24.5741 202.478 20.9345 200.377 20.4214C200.026 20.3459 199.663 20.3454 199.311 20.4198C198.96 20.4941 198.628 20.6418 198.338 20.8532C198.047 21.0645 197.804 21.3347 197.626 21.6462C197.447 21.9577 197.335 22.3034 197.299 22.6608C197.085 24.1733 198.09 25.7553 199.121 26.7707Z" fill="black"/>
<path d="M196.337 37.4866C197.748 38.2937 201.259 38.6143 201.537 38.6357C201.351 40.6449 201.299 42.6643 201.382 44.6804C201.42 45.8562 201.5 47.0373 201.591 48.2185C201.468 47.684 201.355 47.2084 201.329 47.1496C200.687 45.3271 198.373 42.1898 196.209 42.2486C195.85 42.2693 195.5 42.3651 195.181 42.5299C194.863 42.6946 194.582 42.9245 194.358 43.2047C194.133 43.4849 193.971 43.8092 193.88 44.1564C193.789 44.5036 193.772 44.866 193.83 45.2202C194.028 46.738 195.434 47.994 196.679 48.7102C197.924 49.4263 200.955 49.7791 201.73 49.8432C201.772 50.2975 201.804 50.7518 201.847 51.2061C202.05 53.3813 202.259 55.5512 202.382 57.6836C202.435 58.4372 202.456 59.1801 202.478 59.923C202.371 59.4527 202.275 59.0519 202.253 58.9931C201.607 57.1706 199.292 54.0333 197.133 54.0975C196.774 54.1175 196.424 54.2128 196.104 54.3772C195.785 54.5416 195.504 54.7714 195.279 55.0517C195.054 55.332 194.891 55.6564 194.799 56.004C194.708 56.3516 194.691 56.7145 194.75 57.069C194.947 58.5815 196.353 59.8375 197.598 60.5537C198.843 61.2698 201.569 61.5745 202.51 61.6707C202.51 62.4349 202.51 63.1992 202.483 63.9368C202.451 64.4392 202.451 64.9255 202.387 65.4332C202.323 65.941 202.291 66.4273 202.237 66.919C202.109 67.8597 201.981 68.8324 201.831 69.7463C201.73 70.3823 201.623 70.9862 201.516 71.5955C201.473 70.8473 201.366 69.3829 201.339 69.2599C200.981 67.3626 199.169 63.9154 197.021 63.6428C196.664 63.6082 196.303 63.6494 195.963 63.7635C195.622 63.8777 195.31 64.0623 195.045 64.3054C194.781 64.5485 194.571 64.8445 194.429 65.1742C194.287 65.5039 194.216 65.8599 194.22 66.2189C194.183 67.7474 195.375 69.2011 196.503 70.099C197.748 71.0824 201.035 71.9108 201.446 72.0124C201.265 73.0225 201.083 74.0005 200.912 74.9251C200.5 76.9614 200.089 78.7679 199.715 80.2697L201.035 80.8041C201.387 79.2008 201.783 77.3195 202.168 75.1656C202.355 74.1395 202.531 73.0278 202.702 71.9162C203.792 71.9043 204.881 71.8311 205.962 71.697C206.556 73.2149 208.683 75.5558 208.961 75.8551C208.255 76.6033 207.56 77.3141 206.898 77.9929C205.508 79.3878 204.225 80.6064 203.124 81.6325L204.551 82.167C205.535 81.205 206.63 80.0987 207.812 78.8587C208.533 78.1105 209.287 77.2928 210.051 76.443C210.398 76.6728 213.258 78.5167 214.824 78.7572C216.251 78.971 218.127 78.8534 219.222 77.7845C219.487 77.5425 219.698 77.2476 219.842 76.9188C219.986 76.59 220.059 76.2347 220.056 75.8759C220.054 75.5171 219.976 75.1628 219.827 74.836C219.679 74.5093 219.464 74.2173 219.195 73.9792C217.539 72.5896 213.776 73.6157 212.141 74.6472C212.044 74.706 211.072 75.481 210.468 75.978C210.778 75.6306 211.088 75.2993 211.403 74.9091C212.034 74.1983 212.638 73.4714 213.295 72.6911L214.214 71.5153C214.53 71.1252 214.813 70.6816 215.118 70.2594C215.807 69.2706 216.454 68.2391 217.084 67.1809C217.704 67.7154 219.949 69.6501 221.333 70.083C222.718 70.5159 224.583 70.6816 225.823 69.7944C226.116 69.594 226.365 69.3347 226.553 69.0329C226.741 68.7311 226.864 68.3935 226.914 68.0416C226.965 67.6896 226.941 67.331 226.845 66.9887C226.749 66.6464 226.583 66.3278 226.357 66.0532C224.925 64.4498 221.055 64.8721 219.281 65.6417C219.174 65.6898 217.961 66.3846 217.309 66.7801C217.678 66.1387 218.057 65.5081 218.41 64.8453C219.441 62.948 220.425 60.9919 221.413 59.0465C221.718 58.4533 222.023 57.86 222.333 57.2721C222.552 57.4699 225.171 59.8108 226.721 60.2918C228.094 60.7247 229.97 60.8904 231.21 60.0032C231.504 59.8028 231.752 59.5435 231.94 59.2417C232.128 58.94 232.251 58.6023 232.302 58.2504C232.352 57.8984 232.328 57.5399 232.232 57.1975C232.136 56.8552 231.97 56.5366 231.744 56.262C230.317 54.6586 226.443 55.0809 224.674 55.8505C224.54 55.9093 222.803 56.9194 222.37 57.1866C223.049 55.8825 223.733 54.5892 224.46 53.3439C225.437 51.6556 226.521 50.0312 227.704 48.4804C227.806 48.5766 230.526 51.0297 232.113 51.5267C233.492 51.9543 235.363 52.12 236.608 51.2328C236.902 51.0324 237.15 50.7731 237.338 50.4713C237.526 50.1696 237.649 49.8319 237.7 49.48C237.75 49.128 237.726 48.7695 237.63 48.4271C237.534 48.0848 237.368 47.7662 237.142 47.4916C235.715 45.8883 231.841 46.3158 230.066 47.0854C229.927 47.1442 228.062 48.2238 227.736 48.4429C227.806 48.3521 227.864 48.2559 227.939 48.165C229.169 46.6444 230.532 45.2368 232.012 43.9589C232.824 43.2427 233.615 42.6014 234.438 41.9974C234.903 42.5319 237.03 44.814 238.404 45.4179C239.777 46.0219 241.573 46.3639 242.904 45.621C243.223 45.4556 243.503 45.2251 243.728 44.9443C243.952 44.6636 244.115 44.3388 244.205 43.9912C244.296 43.6435 244.313 43.2807 244.254 42.9262C244.196 42.5717 244.063 42.2334 243.866 41.9333C242.626 40.1642 238.724 40.1803 236.881 40.7521C236.779 40.7842 235.812 41.2118 235.079 41.5324C235.448 41.2652 235.822 40.998 236.18 40.7361C237.522 39.7955 238.805 39.0205 239.948 38.3418C240.6 37.957 241.199 37.6256 241.76 37.321C242.471 37.5882 245.352 38.6143 246.827 38.5181C248.302 38.4219 250.076 37.9035 250.915 36.6262C251.122 36.3329 251.264 35.9996 251.334 35.6478C251.403 35.2959 251.398 34.9334 251.318 34.5837C251.239 34.234 251.087 33.9049 250.872 33.6178C250.657 33.3307 250.384 33.092 250.071 32.917C248.152 31.9176 244.7 33.7294 243.326 35.0549C243.208 35.1724 241.557 37.1927 241.594 37.2354H241.637C241.103 37.5187 240.509 37.8233 239.879 38.1761C238.719 38.8281 237.415 39.5817 236.047 40.4956C234.562 41.463 233.134 42.5158 231.771 43.6489C230.241 44.9088 228.828 46.304 227.549 47.8176C227.536 47.8382 227.522 47.8578 227.506 47.8764C227.747 47.2885 228.367 45.6317 228.399 45.4981C228.869 43.6222 228.671 39.7313 226.833 38.5876C226.522 38.4061 226.177 38.2921 225.82 38.2529C225.462 38.2138 225.101 38.2503 224.758 38.3603C224.416 38.4702 224.101 38.651 223.833 38.8909C223.565 39.1308 223.351 39.4245 223.204 39.7527C222.536 41.1209 223.006 42.9594 223.658 44.2314C224.396 45.6798 227.148 47.8871 227.367 48.0635C226.101 49.6332 224.942 51.2867 223.899 53.0125C223.284 54.012 222.696 55.0435 222.124 56.0803C222.317 55.5458 222.482 55.1076 222.498 55.0114C222.963 53.1408 222.766 49.2446 220.932 48.1062C220.622 47.9248 220.277 47.8108 219.919 47.7716C219.562 47.7324 219.2 47.769 218.858 47.8789C218.516 47.9888 218.2 48.1696 217.932 48.4095C217.665 48.6494 217.45 48.9431 217.304 49.2713C216.635 50.6395 217.106 52.4781 217.758 53.7447C218.41 55.0114 220.729 56.9514 221.344 57.4859C221.13 57.8867 220.906 58.2822 220.692 58.6884C219.66 60.6125 218.64 62.5365 217.576 64.3964C217.202 65.0538 216.812 65.6844 216.422 66.3151C216.593 65.8608 216.732 65.476 216.748 65.4172C217.213 63.5413 217.015 59.6451 215.182 58.5067C214.871 58.3253 214.526 58.2112 214.169 58.1721C213.811 58.1329 213.45 58.1694 213.107 58.2794C212.765 58.3893 212.449 58.5701 212.182 58.81C211.914 59.0499 211.7 59.3436 211.553 59.6718C210.885 61.04 211.355 62.8785 212.007 64.1505C212.659 65.4225 214.754 67.1916 215.481 67.7902C215.064 68.4262 214.647 69.0675 214.214 69.6661C213.904 70.067 213.637 70.4731 213.311 70.8633C212.985 71.2534 212.675 71.6329 212.365 72.0177C211.734 72.7285 211.093 73.4714 210.462 74.1555C210.03 74.6312 209.602 75.0748 209.18 75.5291C209.559 74.877 210.275 73.5944 210.324 73.4821C210.926 71.8932 211.11 70.1762 210.858 68.4957C210.932 68.323 210.991 68.1442 211.034 67.9612C211.123 67.6117 211.136 67.2475 211.074 66.8925C211.012 66.5374 210.875 66.1995 210.674 65.9008C210.472 65.6021 210.209 65.3494 209.903 65.1592C209.597 64.9691 209.254 64.8457 208.897 64.7972C206.759 64.5567 204.177 67.4695 203.381 69.2439C203.333 69.3508 202.953 70.5319 202.724 71.2802C202.788 70.8205 202.863 70.3716 202.927 69.8959C203.055 68.9553 203.162 68.0147 203.279 66.9992C203.317 66.5075 203.36 66.0158 203.397 65.5134C203.434 65.011 203.44 64.4873 203.461 63.9688C203.488 62.7663 203.461 61.5424 203.397 60.3132C204.22 60.4308 207.138 60.7942 208.544 60.3933C209.949 59.9925 211.585 59.0946 212.13 57.673C212.271 57.3432 212.341 56.9874 212.335 56.6289C212.33 56.2703 212.248 55.9169 212.097 55.5917C211.946 55.2666 211.728 54.9769 211.457 54.7415C211.187 54.5062 210.87 54.3304 210.527 54.2257C208.442 53.6592 205.455 56.1658 204.402 57.7852C204.338 57.8867 203.712 59.132 203.381 59.8215C203.344 59.0839 203.306 58.3464 203.237 57.6035C203.05 55.4657 202.793 53.2798 202.542 51.1099C202.467 50.4471 202.398 49.7844 202.328 49.1217C202.622 49.1645 206.069 49.6562 207.673 49.2232C209.057 48.8224 210.708 47.9245 211.253 46.5029C211.394 46.1731 211.464 45.8173 211.459 45.4588C211.453 45.1002 211.372 44.7468 211.221 44.4216C211.069 44.0965 210.851 43.8068 210.581 43.5714C210.31 43.3361 209.993 43.1603 209.65 43.0556C207.56 42.4891 204.578 44.9957 203.525 46.6151C203.445 46.738 202.547 48.5338 202.344 48.9988C202.189 47.5397 202.045 46.0807 201.965 44.6376C201.839 42.6925 201.839 40.7412 201.965 38.796C202.104 38.796 205.706 39.3626 207.309 38.9029C208.699 38.5021 210.35 37.6042 210.895 36.1826C211.035 35.8527 211.105 35.4971 211.099 35.1388C211.093 34.7804 211.011 34.4274 210.86 34.1025C210.709 33.7775 210.491 33.4879 210.221 33.2524C209.951 33.0169 209.635 32.8408 209.292 32.7353C207.202 32.1688 204.215 34.6754 203.167 36.2948C203.082 36.4231 202.098 38.3524 201.97 38.7159C201.97 38.6036 201.97 38.4861 201.97 38.3738C202.155 36.4255 202.513 34.4974 203.039 32.6124C203.317 31.5435 203.643 30.5868 203.98 29.6408C204.642 29.8119 207.689 30.5601 209.169 30.3036C210.65 30.047 212.333 29.3469 213.033 27.9947C213.208 27.681 213.315 27.3339 213.348 26.9761C213.38 26.6182 213.337 26.2576 213.221 25.9175C213.105 25.5774 212.919 25.2654 212.675 25.0018C212.431 24.7382 212.134 24.5288 211.804 24.3872C209.794 23.5962 206.55 25.7607 205.326 27.2572C205.257 27.3374 204.674 28.2352 204.257 28.898C204.418 28.4704 204.573 28.0321 204.733 27.626C205.332 26.1028 205.973 24.7452 206.55 23.5534C206.887 22.8747 207.202 22.2654 207.502 21.7042C208.245 21.5278 211.216 20.801 212.392 19.9031C213.568 19.0052 214.759 17.5996 214.754 16.0764C214.766 15.7172 214.701 15.3595 214.566 15.0267C214.43 14.6939 214.225 14.3935 213.966 14.145C213.706 13.8964 213.397 13.7053 213.059 13.5841C212.72 13.4629 212.36 13.4143 212.002 13.4415C209.864 13.666 207.972 17.0812 207.571 18.9731C207.539 19.1335 207.293 21.7523 207.331 21.7416H207.379C207.074 22.2761 206.759 22.8586 206.427 23.5C205.823 24.6865 205.15 26.0333 204.514 27.5458C203.813 29.17 203.207 30.8331 202.697 32.5269C202.147 34.4351 201.766 36.3881 201.558 38.3631C201.561 38.3862 201.561 38.4095 201.558 38.4326C201.436 37.8126 201.024 36.0864 200.992 35.9527C200.351 34.1356 198.036 30.993 195.872 31.0572C195.514 31.0779 195.164 31.1737 194.845 31.3384C194.526 31.5031 194.245 31.733 194.021 32.0132C193.797 32.2935 193.634 32.6177 193.543 32.9649C193.452 33.3121 193.435 33.6746 193.494 34.0287C193.686 35.5145 195.081 36.7598 196.337 37.4866Z" fill="black"/>
<path d="M234.566 41.5699C234.566 41.6019 236.127 39.4748 236.207 39.3251C237.153 37.6416 237.992 33.8363 236.522 32.249C236.271 31.9924 235.968 31.7917 235.634 31.6597C235.3 31.5278 234.942 31.4678 234.583 31.4834C234.224 31.499 233.872 31.59 233.551 31.7505C233.229 31.9109 232.945 32.1372 232.717 32.4147C231.707 33.5584 231.68 35.4397 231.969 36.856C232.295 38.4914 234.561 41.5699 234.566 41.5699Z" fill="black"/>
<path d="M220.12 100.424C220.719 101.675 223.113 103.631 223.113 103.631C223.113 103.631 223.936 101.659 223.973 101.525C224.385 100.007 224.294 96.8217 222.814 95.8543C222.563 95.7008 222.284 95.6016 221.993 95.5634C221.702 95.5251 221.406 95.5486 221.124 95.6323C220.843 95.716 220.583 95.858 220.36 96.0491C220.137 96.2403 219.957 96.4762 219.831 96.7415C219.26 97.8692 219.612 99.3604 220.12 100.424Z" fill="black"/>
<path d="M215.064 107.922C215.935 108.927 218.554 110.124 218.763 110.22C218.074 111.718 217.485 113.258 216.999 114.833C216.716 115.747 216.464 116.682 216.203 117.617C216.251 117.174 216.293 116.773 216.293 116.719C216.293 115.116 215.358 112.096 213.68 111.557C213.398 111.474 213.103 111.452 212.812 111.491C212.521 111.531 212.242 111.631 211.993 111.786C211.743 111.941 211.53 112.147 211.366 112.39C211.201 112.633 211.09 112.908 211.04 113.197C210.778 114.416 211.515 115.768 212.285 116.655C213.055 117.542 215.283 118.627 215.871 118.9C215.78 119.263 215.684 119.621 215.593 119.969C215.155 121.701 214.727 123.427 214.257 125.11C214.091 125.704 213.91 126.281 213.723 126.863C213.771 126.468 213.803 126.131 213.803 126.083C213.803 124.48 212.868 121.46 211.189 120.92C210.908 120.838 210.612 120.815 210.321 120.855C210.031 120.894 209.751 120.995 209.502 121.15C209.253 121.305 209.039 121.511 208.875 121.754C208.711 121.997 208.6 122.272 208.549 122.561C208.287 123.785 209.025 125.132 209.794 126.019C210.564 126.906 212.574 127.884 213.274 128.216C213.071 128.803 212.862 129.391 212.638 129.952C212.477 130.332 212.344 130.706 212.162 131.08C211.98 131.454 211.815 131.818 211.628 132.181C211.27 132.871 210.906 133.587 210.559 134.25C210.308 134.714 210.062 135.153 209.816 135.591C209.987 135.003 210.297 133.843 210.313 133.747C210.553 132.187 210.094 129.033 208.512 128.248C208.246 128.124 207.957 128.058 207.663 128.053C207.37 128.049 207.079 128.106 206.809 128.222C206.539 128.337 206.297 128.508 206.098 128.723C205.898 128.939 205.747 129.194 205.652 129.471C205.209 130.637 205.733 132.08 206.363 133.079C207.053 134.175 209.356 135.709 209.65 135.896C209.239 136.622 208.827 137.328 208.437 137.991C207.566 139.444 206.759 140.722 206.059 141.796L206.935 142.55C207.635 141.427 208.458 140.07 209.34 138.514C209.762 137.777 210.195 136.981 210.634 136.158C211.476 136.444 212.335 136.683 213.204 136.874C213.247 138.204 214.273 140.588 214.385 140.893C213.643 141.272 212.91 141.636 212.221 141.962C210.773 142.662 209.458 143.255 208.325 143.747L209.271 144.564C210.292 144.089 211.441 143.538 212.686 142.902C213.445 142.518 214.246 142.095 215.064 141.646C215.273 141.919 216.967 144.11 218.116 144.725C219.153 145.259 220.633 145.692 221.766 145.168C222.037 145.055 222.28 144.885 222.48 144.671C222.681 144.456 222.834 144.202 222.929 143.925C223.024 143.647 223.06 143.353 223.034 143.06C223.007 142.768 222.92 142.485 222.776 142.229C221.878 140.711 218.698 140.481 217.165 140.829C217.074 140.829 216.096 141.181 215.513 141.406L216.513 140.871C217.191 140.492 217.854 140.096 218.576 139.674L219.602 139.017C219.949 138.803 220.291 138.536 220.639 138.295C221.435 137.718 222.215 137.098 222.99 136.457C223.321 137.05 224.524 139.129 225.475 139.845C226.427 140.561 227.816 141.187 229.013 140.839C229.298 140.768 229.565 140.638 229.796 140.457C230.027 140.275 230.217 140.047 230.354 139.787C230.491 139.528 230.571 139.242 230.59 138.949C230.608 138.656 230.565 138.362 230.462 138.087C229.804 136.446 226.694 135.741 225.117 135.853C225.021 135.853 223.899 136.067 223.289 136.19C223.749 135.799 224.209 135.415 224.663 135.003C225.972 133.822 227.26 132.582 228.548 131.347L229.74 130.23C229.853 130.439 231.237 132.956 232.3 133.747C233.241 134.453 234.641 135.089 235.838 134.741C236.123 134.669 236.389 134.539 236.62 134.357C236.85 134.176 237.04 133.948 237.177 133.688C237.313 133.428 237.394 133.143 237.413 132.85C237.432 132.557 237.389 132.264 237.287 131.989C236.624 130.353 233.519 129.643 231.942 129.755C231.825 129.755 230.211 130.065 229.804 130.161C230.681 129.338 231.563 128.558 232.477 127.767C233.686 126.731 234.96 125.774 236.293 124.902C236.346 124.998 237.778 127.628 238.863 128.44C239.809 129.145 241.204 129.781 242.407 129.434C242.691 129.362 242.956 129.23 243.186 129.049C243.416 128.867 243.606 128.639 243.742 128.379C243.878 128.12 243.958 127.835 243.976 127.542C243.995 127.25 243.952 126.956 243.85 126.682C243.192 125.046 240.109 124.335 238.505 124.448C238.377 124.448 236.645 124.779 236.335 124.864L236.565 124.704C237.924 123.866 239.355 123.151 240.841 122.566C241.659 122.235 242.444 121.962 243.241 121.717C243.46 122.251 244.47 124.587 245.378 125.426C246.287 126.265 247.559 127.029 248.788 126.805C249.079 126.764 249.358 126.662 249.607 126.507C249.856 126.351 250.07 126.145 250.234 125.902C250.398 125.658 250.51 125.383 250.561 125.094C250.612 124.805 250.602 124.508 250.531 124.223C250.055 122.524 247.046 121.481 245.469 121.417C245.384 121.417 244.507 121.476 243.866 121.529L244.935 121.214C246.223 120.856 247.42 120.605 248.484 120.391C249.093 120.274 249.643 120.183 250.156 120.103C250.637 120.498 252.577 122.075 253.737 122.395C254.897 122.716 256.41 122.807 257.398 122.048C257.638 121.879 257.84 121.661 257.99 121.409C258.14 121.156 258.235 120.875 258.269 120.584C258.303 120.292 258.275 119.996 258.186 119.716C258.098 119.436 257.951 119.178 257.756 118.959C256.554 117.671 253.401 118.125 251.974 118.798C251.851 118.857 250.023 119.985 250.05 120.006C249.552 120.076 249.018 120.151 248.446 120.252C247.377 120.439 246.164 120.669 244.865 121C243.461 121.344 242.078 121.769 240.723 122.272C239.205 122.833 237.738 123.525 236.341 124.341L236.293 124.373C236.64 123.988 237.565 122.876 237.629 122.769C238.495 121.449 239.398 118.398 238.297 117.019C238.107 116.795 237.872 116.613 237.607 116.486C237.343 116.359 237.054 116.29 236.761 116.282C236.467 116.274 236.175 116.327 235.904 116.44C235.633 116.552 235.388 116.72 235.186 116.933C234.294 117.804 234.166 119.338 234.321 120.503C234.492 121.823 236.015 124.245 236.132 124.464C234.733 125.332 233.392 126.29 232.119 127.334C231.374 127.943 230.64 128.572 229.917 129.22L230.494 128.52C231.36 127.2 232.263 124.148 231.157 122.769C230.967 122.546 230.733 122.364 230.468 122.237C230.204 122.11 229.916 122.041 229.623 122.033C229.33 122.025 229.039 122.078 228.768 122.191C228.497 122.303 228.253 122.471 228.051 122.684C227.159 123.555 227.031 125.089 227.18 126.254C227.33 127.419 228.591 129.552 228.933 130.107L228.105 130.856C226.785 132.058 225.475 133.266 224.155 134.41C223.69 134.811 223.215 135.19 222.744 135.575C223.001 135.27 223.209 135.008 223.241 134.966C224.107 133.651 225.01 130.599 223.904 129.22C223.715 128.996 223.48 128.814 223.215 128.686C222.95 128.559 222.662 128.489 222.368 128.48C222.074 128.472 221.782 128.527 221.511 128.639C221.239 128.752 220.995 128.921 220.794 129.135C219.906 130.006 219.778 131.54 219.928 132.705C220.077 133.87 221.221 135.794 221.622 136.446C221.125 136.82 220.628 137.2 220.131 137.542C219.789 137.772 219.473 138.012 219.115 138.22L218.073 138.856C217.394 139.231 216.694 139.626 216.026 139.979C215.561 140.23 215.118 140.46 214.669 140.69C215.134 140.294 216.037 139.498 216.101 139.423C216.994 138.361 217.6 137.088 217.859 135.725C217.964 135.611 218.057 135.487 218.137 135.356C218.3 135.112 218.41 134.836 218.459 134.546C218.508 134.257 218.496 133.96 218.423 133.676C218.35 133.391 218.218 133.125 218.035 132.896C217.852 132.666 217.623 132.477 217.362 132.342C215.759 131.572 212.996 133.133 211.906 134.271C211.841 134.34 211.221 135.147 210.837 135.666C211.013 135.324 211.189 135.003 211.371 134.65C211.729 133.961 212.066 133.266 212.44 132.513L212.937 131.396C213.108 131.027 213.247 130.615 213.402 130.225C213.749 129.306 214.059 128.354 214.348 127.392C214.952 127.702 217.111 128.782 218.292 128.846C219.473 128.91 220.965 128.675 221.793 127.724C221.991 127.507 222.14 127.251 222.233 126.973C222.325 126.694 222.357 126.399 222.328 126.107C222.299 125.816 222.209 125.533 222.063 125.278C221.917 125.024 221.72 124.803 221.483 124.629C220.024 123.625 217.047 124.747 215.796 125.698C215.716 125.762 214.898 126.553 214.455 126.992C214.626 126.414 214.797 125.837 214.947 125.244C215.385 123.534 215.775 121.791 216.176 120.054C216.293 119.52 216.422 118.986 216.55 118.451C216.764 118.563 219.302 119.899 220.622 119.974C221.798 120.044 223.295 119.803 224.123 118.852C224.321 118.635 224.471 118.379 224.563 118.101C224.655 117.822 224.688 117.527 224.658 117.236C224.629 116.944 224.539 116.661 224.393 116.406C224.248 116.152 224.05 115.931 223.813 115.757C222.359 114.753 219.377 115.875 218.127 116.826C218.036 116.901 216.855 118.04 216.571 118.344C216.849 117.174 217.133 116.014 217.464 114.881C217.897 113.349 218.433 111.847 219.067 110.386C219.163 110.44 221.809 111.84 223.166 111.92C224.342 111.989 225.839 111.749 226.667 110.798C226.865 110.581 227.014 110.324 227.106 110.046C227.198 109.767 227.23 109.472 227.2 109.18C227.17 108.888 227.079 108.606 226.933 108.351C226.787 108.097 226.589 107.876 226.352 107.703C224.898 106.698 221.916 107.821 220.671 108.772C220.569 108.847 219.302 110.076 219.067 110.311C219.105 110.231 219.137 110.135 219.174 110.055C219.848 108.606 220.649 107.22 221.568 105.913C222.066 105.181 222.584 104.512 223.102 103.876C223.567 104.186 225.71 105.592 226.924 105.795C228.137 105.998 229.596 105.918 230.526 105.063C230.746 104.869 230.923 104.631 231.045 104.364C231.166 104.097 231.231 103.807 231.233 103.514C231.236 103.22 231.177 102.93 231.059 102.661C230.942 102.392 230.769 102.15 230.553 101.952C229.222 100.798 226.133 101.584 224.786 102.401C224.711 102.449 224.016 102.984 223.514 103.379C223.754 103.096 223.995 102.797 224.225 102.53C225.101 101.52 225.967 100.648 226.737 99.8841C227.175 99.4512 227.586 99.0664 227.971 98.7137C228.586 98.7831 231.076 99.029 232.247 98.6549C233.417 98.2807 234.695 97.5218 235.106 96.346C235.211 96.0725 235.258 95.7799 235.243 95.4873C235.228 95.1946 235.152 94.9083 235.02 94.6468C234.887 94.3854 234.701 94.1547 234.474 93.9696C234.247 93.7845 233.983 93.6491 233.701 93.5722C231.98 93.1607 229.607 95.2825 228.784 96.6293C228.714 96.7469 227.816 98.6976 227.848 98.6976H227.886C227.506 99.029 227.105 99.3924 226.678 99.7933C225.887 100.541 225.005 101.397 224.107 102.391C223.126 103.452 222.207 104.569 221.355 105.736C220.394 107.041 219.552 108.429 218.837 109.884V109.937C218.912 109.403 219.073 107.986 219.073 107.874C219.073 106.271 218.143 103.251 216.459 102.711C216.178 102.629 215.882 102.606 215.591 102.646C215.3 102.686 215.021 102.786 214.772 102.941C214.523 103.096 214.309 103.302 214.145 103.545C213.98 103.788 213.869 104.063 213.819 104.352C213.557 105.704 214.295 107.035 215.064 107.922Z" fill="black"/>
<path d="M243.417 121.428C243.417 121.455 245.191 120.236 245.293 120.145C246.479 119.076 248.158 116.404 247.431 114.774C247.306 114.509 247.128 114.273 246.907 114.081C246.685 113.889 246.426 113.746 246.146 113.661C245.866 113.576 245.571 113.55 245.28 113.587C244.99 113.623 244.71 113.72 244.459 113.871C243.39 114.48 242.856 115.923 242.679 117.077C242.508 118.456 243.417 121.423 243.417 121.428Z" fill="black"/>
<path d="M220.366 56.8766H45.9417V224.011H220.366V56.8766Z" fill="black" stroke="black" stroke-width="0.534454" stroke-linecap="round" stroke-linejoin="round"/>
<path d="M223.263 54.6212H48.8384V221.756H223.263V54.6212Z" fill="white" stroke="black" stroke-width="0.534454" stroke-linecap="round" stroke-linejoin="round"/>
<path d="M134.522 62.6914V212.884" stroke="black" stroke-width="0.534454" stroke-linecap="round" stroke-linejoin="round"/>
<path d="M120.418 149.888H63.3969V159.556H120.418V149.888Z" fill="white" stroke="black" stroke-width="0.534454" stroke-linecap="round" stroke-linejoin="round"/>
<path d="M120.418 167.893H63.3969V177.562H120.418V167.893Z" fill="white" stroke="black" stroke-width="0.534454" stroke-linecap="round" stroke-linejoin="round"/>
<path d="M107.719 191.131H76.0902C74.6615 191.131 73.5034 192.29 73.5034 193.718V200.014C73.5034 201.443 74.6615 202.601 76.0902 202.601H107.719C109.148 202.601 110.306 201.443 110.306 200.014V193.718C110.306 192.29 109.148 191.131 107.719 191.131Z" fill="#3382EB" stroke="black" stroke-width="0.534454" stroke-linecap="round" stroke-linejoin="round"/>
<g opacity="0.2">
<path d="M155.28 85.9829H143.907V91.1511H155.28V85.9829Z" fill="black"/>
<path d="M161.64 79.5535H150.267V84.7216H161.64V79.5535Z" fill="black"/>
<path d="M168.561 85.9829H157.188V91.1511H168.561V85.9829Z" fill="black"/>
<path d="M188.357 68.191H176.984V73.3592H188.357V68.191Z" fill="black"/>
<path d="M194.717 61.7668H183.344V66.935H194.717V61.7668Z" fill="black"/>
<path d="M201.644 68.191H190.271V73.3592H201.644V68.191Z" fill="black"/>
<path d="M168.561 102.476H157.188V107.644H168.561V102.476Z" fill="black"/>
<path d="M174.921 96.0521H163.548V101.22H174.921V96.0521Z" fill="black"/>
<path d="M181.848 102.476H170.475V107.644H181.848V102.476Z" fill="black"/>
<path d="M204.124 151.106H192.751V156.274H204.124V151.106Z" fill="black"/>
<path d="M210.484 144.682H199.111V149.85H210.484V144.682Z" fill="black"/>
<path d="M217.41 151.106H206.037V156.274H217.41V151.106Z" fill="black"/>
<path d="M204.124 204.664H192.751V209.832H204.124V204.664Z" fill="black"/>
<path d="M210.484 198.24H199.111V203.408H210.484V198.24Z" fill="black"/>
<path d="M217.41 204.664H206.037V209.832H217.41V204.664Z" fill="black"/>
<path d="M158.278 162.891H146.905V168.059H158.278V162.891Z" fill="black"/>
<path d="M164.638 156.461H153.265V161.63H164.638V156.461Z" fill="black"/>
<path d="M171.565 162.891H160.192V168.059H171.565V162.891Z" fill="black"/>
<path d="M158.278 181.527H146.905V186.696H158.278V181.527Z" fill="black"/>
<path d="M164.638 175.103H153.265V180.271H164.638V175.103Z" fill="black"/>
<path d="M171.565 181.527H160.192V186.696H171.565V181.527Z" fill="black"/>
<path d="M185.06 181.527H173.687V186.696H185.06V181.527Z" fill="black"/>
<path d="M191.42 175.103H180.047V180.271H191.42V175.103Z" fill="black"/>
<path d="M198.341 181.527H186.968V186.696H198.341V181.527Z" fill="black"/>
</g>
<path d="M107.26 78.8854H75.1282V100.242H107.26V78.8854Z" fill="#3382EB" stroke="black" stroke-width="0.534454" stroke-linecap="round" stroke-linejoin="round"/>
<path d="M107.26 78.8854L91.1939 89.5691L75.1282 78.8854H107.26Z" fill="black" stroke="black" stroke-width="0.534454" stroke-linecap="round" stroke-linejoin="round"/>
<path d="M79.3931 81.8356V68.0414H102.968V81.7288L91.1938 89.5692L79.3931 81.8356Z" fill="white" stroke="black" stroke-width="0.534454" stroke-linecap="round" stroke-linejoin="round"/>
<path d="M83.8505 72.8193H98.083" stroke="black" stroke-width="0.534454" stroke-linecap="round" stroke-linejoin="round"/>
<path d="M83.8505 76.4055H98.083" stroke="black" stroke-width="0.534454" stroke-linecap="round" stroke-linejoin="round"/>
<path d="M83.8505 79.9917H98.083" stroke="black" stroke-width="0.534454" stroke-linecap="round" stroke-linejoin="round"/>
<path d="M75.1282 100.248L91.2366 86.8328L107.26 100.248H75.1282Z" fill="#B0CFF7" stroke="black" stroke-width="0.534454" stroke-linecap="round" stroke-linejoin="round"/>
<path d="M60.5429 123.662V121.278C60.8792 121.284 61.2153 121.26 61.5477 121.209C61.7796 121.178 61.9991 121.085 62.1837 120.942C62.3474 120.789 62.4626 120.592 62.515 120.375C62.5888 120.06 62.6229 119.737 62.6166 119.413V106.586H66.005V119.541C66.0256 120.319 65.9136 121.094 65.6737 121.834C65.4753 122.42 65.0604 122.908 64.5139 123.197C63.7863 123.538 62.986 123.694 62.1837 123.651L60.5429 123.662Z" fill="black"/>
<path d="M73.1507 123.459C72.1431 123.51 71.141 123.282 70.254 122.802C69.5467 122.365 69.008 121.702 68.7254 120.92C68.3945 119.98 68.2369 118.988 68.2604 117.991V111.792C68.2368 110.801 68.3943 109.814 68.7254 108.879C69.0044 108.104 69.5449 107.45 70.254 107.03C71.1664 106.609 72.1592 106.391 73.1641 106.391C74.1689 106.391 75.1617 106.609 76.0742 107.03C76.7853 107.449 77.3307 108.1 77.6187 108.874C77.9457 109.807 78.1014 110.792 78.0784 111.781V117.997C78.1009 118.993 77.9452 119.985 77.6187 120.926C77.3335 121.711 76.7885 122.374 76.0742 122.807C75.1772 123.286 74.1664 123.512 73.1507 123.459ZM73.1507 121.011C73.4974 121.042 73.8426 120.937 74.1127 120.717C74.329 120.499 74.4727 120.219 74.5242 119.915C74.5957 119.564 74.6315 119.206 74.6311 118.847V110.969C74.6331 110.61 74.5973 110.251 74.5242 109.9C74.4726 109.6 74.3288 109.323 74.1127 109.109C73.8434 108.887 73.4981 108.78 73.1507 108.81C72.8152 108.784 72.4831 108.892 72.2261 109.109C72.012 109.325 71.8685 109.601 71.8146 109.9C71.7434 110.252 71.7094 110.61 71.713 110.969V118.836C71.7126 119.194 71.743 119.552 71.8039 119.905C71.8518 120.207 71.9918 120.487 72.2047 120.706C72.4683 120.927 72.8077 121.037 73.1507 121.011Z" fill="black"/>
<path d="M80.3765 123.229V106.597H83.7435V123.229H80.3765Z" fill="black"/>
<path d="M86.2929 123.229V106.597H88.6552L92.3483 115.26V106.597H95.1435V123.229H92.8827L89.1896 114.031V123.229H86.2929Z" fill="black"/>
<path d="M107.484 123.459C106.468 123.513 105.457 123.288 104.561 122.807C103.863 122.382 103.341 121.72 103.091 120.942C102.787 119.983 102.645 118.981 102.669 117.975V106.597H106.014V118.446C106.014 118.852 106.046 119.258 106.11 119.659C106.153 120.011 106.293 120.345 106.517 120.621C106.643 120.75 106.795 120.851 106.965 120.914C107.134 120.978 107.315 121.004 107.495 120.99C107.677 121.006 107.861 120.981 108.033 120.917C108.205 120.853 108.361 120.752 108.489 120.621C108.715 120.347 108.854 120.012 108.89 119.659C108.945 119.257 108.974 118.852 108.975 118.446V106.597H112.321V117.997C112.345 119.002 112.202 120.004 111.899 120.963C111.647 121.731 111.129 122.385 110.44 122.807C109.534 123.294 108.511 123.519 107.484 123.459Z" fill="black"/>
<path d="M118.991 123.459C118.1 123.489 117.216 123.294 116.42 122.892C115.731 122.509 115.186 121.91 114.87 121.187C114.486 120.265 114.281 119.279 114.266 118.28L117.179 117.788C117.195 118.366 117.269 118.941 117.398 119.504C117.473 119.891 117.659 120.247 117.933 120.53C118.052 120.642 118.192 120.73 118.345 120.787C118.498 120.845 118.661 120.872 118.825 120.867C118.997 120.888 119.171 120.861 119.328 120.789C119.486 120.718 119.621 120.604 119.718 120.461C119.877 120.171 119.958 119.845 119.953 119.515C119.975 118.89 119.8 118.275 119.45 117.756C119.065 117.231 118.62 116.752 118.125 116.329L116.399 114.833C115.802 114.331 115.292 113.733 114.891 113.064C114.482 112.324 114.28 111.488 114.309 110.643C114.271 110.062 114.358 109.48 114.564 108.936C114.771 108.392 115.092 107.898 115.506 107.489C116.425 106.717 117.605 106.325 118.804 106.394C119.51 106.366 120.213 106.506 120.856 106.8C121.362 107.05 121.792 107.43 122.101 107.901C122.395 108.36 122.603 108.869 122.716 109.403C122.831 109.93 122.903 110.467 122.93 111.006L120.033 111.439C120.006 110.905 119.963 110.488 119.905 110.103C119.865 109.773 119.735 109.461 119.531 109.2C119.426 109.086 119.298 108.998 119.154 108.941C119.01 108.885 118.856 108.862 118.702 108.874C118.529 108.861 118.356 108.895 118.201 108.972C118.046 109.049 117.915 109.167 117.82 109.312C117.629 109.602 117.529 109.943 117.532 110.29C117.51 110.803 117.651 111.309 117.933 111.738C118.251 112.171 118.619 112.566 119.028 112.914L120.712 114.395C121.406 114.993 122.011 115.687 122.507 116.458C123.033 117.318 123.295 118.314 123.261 119.322C123.273 120.069 123.088 120.806 122.727 121.46C122.376 122.082 121.86 122.595 121.235 122.941C120.544 123.303 119.771 123.481 118.991 123.459Z" fill="black"/>
<path d="M73.4606 135.586V126.313H74.3318V135.586H73.4606Z" fill="black"/>
<path d="M77.1217 135.586V126.986H75.3687V126.313H79.687V126.986H77.9928V135.586H77.1217Z" fill="black"/>
<path d="M80.6971 128.932L80.4887 128.627C80.5827 128.596 80.6689 128.545 80.7417 128.477C80.8145 128.41 80.8722 128.328 80.9109 128.237C80.9932 127.982 81.0294 127.714 81.0178 127.446H80.5582V126.313H81.5202V127.275C81.5342 127.655 81.4762 128.034 81.3492 128.392C81.2899 128.526 81.2001 128.645 81.0869 128.739C80.9737 128.832 80.8403 128.899 80.6971 128.932Z" fill="black"/>
<path d="M84.6788 135.698C84.2393 135.715 83.8041 135.607 83.4228 135.388C83.0926 135.173 82.8325 134.867 82.6746 134.506C82.4974 134.085 82.3926 133.637 82.3646 133.181L83.1342 132.951C83.1663 133.302 83.2344 133.65 83.3373 133.988C83.4207 134.272 83.5839 134.526 83.8076 134.72C84.0592 134.914 84.3723 135.011 84.6895 134.992C85.0396 135.014 85.3843 134.899 85.6515 134.672C85.7762 134.535 85.871 134.373 85.9299 134.197C85.9888 134.022 86.0105 133.836 85.9936 133.651C86.0039 133.273 85.8996 132.9 85.6943 132.582C85.4529 132.236 85.1732 131.919 84.8605 131.636L83.2251 130.07C82.9604 129.819 82.7431 129.522 82.5838 129.194C82.4427 128.881 82.3715 128.542 82.3753 128.2C82.3581 127.926 82.4009 127.653 82.5006 127.398C82.6003 127.143 82.7546 126.913 82.9525 126.724C83.3721 126.36 83.9149 126.169 84.4704 126.19C84.7706 126.187 85.0696 126.228 85.3576 126.313C85.6134 126.391 85.8463 126.531 86.0363 126.719C86.2338 126.926 86.3834 127.174 86.4746 127.446C86.5916 127.792 86.6652 128.151 86.6937 128.515L85.9508 128.707C85.9285 128.367 85.8639 128.032 85.7584 127.708C85.6837 127.453 85.528 127.23 85.3148 127.072C85.0409 126.916 84.7283 126.84 84.4133 126.854C84.0983 126.869 83.7938 126.972 83.5351 127.152C83.3981 127.276 83.2942 127.433 83.2326 127.607C83.1711 127.782 83.1538 127.969 83.1823 128.151C83.1787 128.389 83.228 128.625 83.3266 128.841C83.4552 129.09 83.6271 129.315 83.8344 129.504L85.4751 131.048C85.8363 131.391 86.154 131.777 86.4211 132.197C86.6896 132.62 86.8289 133.113 86.822 133.614C86.8374 134.02 86.7452 134.424 86.5547 134.784C86.3809 135.088 86.1205 135.334 85.8065 135.489C85.4514 135.644 85.0657 135.715 84.6788 135.698Z" fill="black"/>
<path d="M90.312 135.586V126.313H93.6416V126.965H91.1991V130.455H93.2461V131.096H91.1991V135.586H90.312Z" fill="black"/>
<path d="M94.7319 135.586V126.313H96.827C97.2992 126.289 97.7697 126.385 98.1952 126.591C98.5192 126.772 98.7718 127.059 98.9114 127.403C99.063 127.808 99.1356 128.238 99.1251 128.67C99.1269 128.997 99.0892 129.324 99.0129 129.643C98.9456 129.93 98.812 130.197 98.6228 130.423C98.4181 130.648 98.1429 130.797 97.8424 130.845L99.2641 135.586H98.4143L97.0782 131.027H95.6245V135.586H94.7319ZM95.6031 130.385H96.7789C97.0917 130.403 97.4036 130.337 97.6821 130.193C97.898 130.063 98.0608 129.86 98.1418 129.621C98.2422 129.314 98.2893 128.993 98.2807 128.67C98.3111 128.222 98.2069 127.775 97.9814 127.387C97.8327 127.227 97.6478 127.106 97.4423 127.032C97.2368 126.959 97.0166 126.936 96.8003 126.965H95.6031V130.385Z" fill="black"/>
<path d="M100.579 135.586V126.313H103.935V126.986H101.461V130.471H103.492V131.107H101.461V134.934H103.957V135.586H100.579Z" fill="black"/>
<path d="M105.138 135.586V126.313H108.494V126.986H106.02V130.471H108.034V131.107H106.02V134.934H108.515V135.586H105.138Z" fill="black"/>
<path d="M109.59 135.586V134.592H110.482V135.586H109.59ZM109.889 133.592L109.6 126.313H110.493L110.188 133.592H109.889Z" fill="black"/>
<path d="M82.6479 157.188C82.3954 157.203 82.1446 157.138 81.9318 157.001C81.7589 156.869 81.6393 156.68 81.5951 156.467C81.5315 156.21 81.5009 155.946 81.5042 155.681V152.843H82.1135V155.708C82.1116 155.876 82.1242 156.044 82.1509 156.21C82.1688 156.342 82.2245 156.467 82.3112 156.568C82.4141 156.659 82.5481 156.707 82.6854 156.702C82.7535 156.707 82.822 156.697 82.8863 156.674C82.9507 156.651 83.0096 156.615 83.0595 156.568C83.1462 156.467 83.2019 156.342 83.2198 156.21C83.2439 156.044 83.2564 155.876 83.2572 155.708V152.843H83.7917V155.681C83.8038 155.949 83.7786 156.217 83.7168 156.477C83.6722 156.689 83.555 156.878 83.3855 157.012C83.166 157.151 82.9065 157.213 82.6479 157.188Z" fill="black"/>
<path d="M85.4377 157.188C85.2216 157.196 85.0079 157.14 84.8231 157.028C84.6611 156.92 84.5332 156.768 84.4543 156.59C84.3648 156.383 84.314 156.162 84.3047 155.938L84.8391 155.799C84.8488 155.947 84.8721 156.093 84.9086 156.237C84.9384 156.365 85.001 156.483 85.0903 156.579C85.1361 156.626 85.1911 156.662 85.2519 156.686C85.3127 156.71 85.3778 156.721 85.4431 156.718C85.5081 156.723 85.5734 156.714 85.6343 156.69C85.6953 156.667 85.7504 156.631 85.7958 156.584C85.8797 156.48 85.9216 156.349 85.9134 156.216C85.9212 156.049 85.8763 155.885 85.7851 155.745C85.6843 155.617 85.5716 155.499 85.4484 155.392L84.7322 154.756C84.6015 154.647 84.4958 154.51 84.4223 154.356C84.3508 154.187 84.3161 154.005 84.3207 153.821C84.3131 153.688 84.3329 153.555 84.3789 153.43C84.4248 153.305 84.496 153.191 84.5879 153.094C84.7907 152.915 85.0555 152.823 85.3255 152.838C85.4758 152.835 85.6256 152.857 85.7691 152.902C85.8923 152.943 86.004 153.013 86.0951 153.105C86.1865 153.205 86.2557 153.324 86.2982 153.452C86.3547 153.609 86.3889 153.773 86.3997 153.939L85.892 154.078C85.8849 153.946 85.8652 153.815 85.8332 153.688C85.8057 153.578 85.7461 153.48 85.6622 153.404C85.5684 153.326 85.4474 153.287 85.3255 153.297C85.1987 153.289 85.0738 153.331 84.9781 153.415C84.935 153.461 84.9019 153.516 84.8807 153.576C84.8596 153.636 84.8509 153.699 84.8552 153.762C84.8509 153.875 84.8729 153.986 84.9193 154.088C84.9755 154.185 85.0478 154.272 85.1331 154.345L85.8599 154.981C86.027 155.126 86.1712 155.295 86.2875 155.483C86.413 155.693 86.476 155.934 86.4692 156.178C86.4721 156.365 86.4261 156.549 86.3356 156.713C86.2532 156.863 86.1288 156.985 85.9775 157.065C85.8104 157.15 85.625 157.192 85.4377 157.188Z" fill="black"/>
<path d="M86.9235 157.14V152.865H88.5803V153.308H87.5114V154.724H88.3719V155.147H87.5114V156.718H88.5803V157.145L86.9235 157.14Z" fill="black"/>
<path d="M89.0613 157.14V152.865H89.9218C90.1641 152.858 90.4053 152.898 90.6326 152.982C90.8091 153.05 90.9552 153.179 91.0442 153.346C91.1426 153.55 91.1885 153.776 91.1778 154.003C91.1804 154.154 91.1624 154.305 91.1243 154.452C91.0955 154.578 91.0389 154.697 90.9587 154.799C90.8766 154.892 90.7715 154.962 90.654 155.002L91.2579 157.14H90.6807L90.1463 155.131H89.6813V157.14H89.0613ZM89.6599 154.703H89.8844C90.0245 154.709 90.1643 154.687 90.2959 154.639C90.3476 154.621 90.3952 154.593 90.4356 154.556C90.476 154.52 90.5085 154.475 90.5311 154.425C90.5864 154.29 90.6119 154.144 90.6059 153.998C90.6212 153.809 90.5723 153.62 90.467 153.463C90.395 153.398 90.3102 153.35 90.2181 153.32C90.1259 153.291 90.0286 153.281 89.9325 153.292H89.6706L89.6599 154.703Z" fill="black"/>
<path d="M91.8192 157.14V152.865H92.2253L93.4385 155.708V152.865H93.9356V157.14H93.5561L92.3269 154.217V157.14H91.8192Z" fill="black"/>
<path d="M94.3738 157.14L95.2824 152.865H95.8596L96.7735 157.14H96.207L96.0093 156.071H95.1381L94.935 157.14H94.3738ZM95.2183 155.633H95.9344L95.571 153.709L95.2183 155.633Z" fill="black"/>
<path d="M97.1957 157.14L97.2706 152.865H97.8585L98.612 156.338L99.3763 152.865H99.9535L100.034 157.14H99.5527L99.5046 154.035L98.7831 157.14H98.4464L97.7249 154.035L97.6821 157.14H97.1957Z" fill="black"/>
<path d="M100.691 157.14V152.865H102.348V153.308H101.279V154.724H102.139V155.147H101.279V156.718H102.348V157.145L100.691 157.14Z" fill="black"/>
<path d="M81.1514 174.831V170.555H82.2203C82.434 170.545 82.6463 170.593 82.835 170.694C82.9893 170.788 83.1077 170.931 83.1717 171.1C83.2466 171.304 83.2828 171.519 83.2786 171.736C83.2848 171.938 83.2446 172.14 83.161 172.324C83.0852 172.485 82.9622 172.619 82.8082 172.709C82.6295 172.805 82.4283 172.851 82.2257 172.842H81.7554V174.831H81.1514ZM81.7447 172.415H82.0226C82.1604 172.419 82.2978 172.399 82.4288 172.356C82.4755 172.338 82.518 172.311 82.5539 172.276C82.5897 172.241 82.6181 172.199 82.6372 172.153C82.6854 172.021 82.7072 171.881 82.7013 171.741C82.7052 171.585 82.6908 171.429 82.6586 171.276C82.6474 171.226 82.6246 171.179 82.5922 171.139C82.5597 171.1 82.5184 171.068 82.4715 171.047C82.3292 170.997 82.1786 170.975 82.0279 170.983H81.7447V172.415Z" fill="black"/>
<path d="M83.2518 174.831L84.1604 170.555H84.7376L85.6515 174.831H85.085L84.8873 173.762H84.0161L83.813 174.831H83.2518ZM84.0963 173.329H84.7857L84.4276 171.399L84.0963 173.329Z" fill="black"/>
<path d="M87.0892 174.879C86.8739 174.885 86.661 174.832 86.4746 174.724C86.3096 174.617 86.1795 174.465 86.1005 174.285C86.0133 174.079 85.9644 173.858 85.9562 173.633L86.4906 173.494C86.5003 173.642 86.5236 173.789 86.5601 173.933C86.591 174.06 86.6535 174.178 86.7418 174.275C86.8394 174.36 86.9647 174.408 87.0946 174.408C87.2244 174.408 87.3498 174.36 87.4473 174.275C87.5312 174.171 87.5731 174.039 87.5649 173.906C87.5747 173.739 87.5276 173.573 87.4313 173.436C87.3327 173.306 87.2218 173.186 87.0999 173.078L86.3891 172.452C86.257 172.341 86.1511 172.203 86.0791 172.046C86.0063 171.878 85.9716 171.695 85.9776 171.512C85.9693 171.379 85.9888 171.245 86.0348 171.12C86.0808 170.995 86.1523 170.881 86.2448 170.785C86.3441 170.694 86.4605 170.624 86.5872 170.579C86.7138 170.535 86.8482 170.515 86.9823 170.523C87.1332 170.519 87.2834 170.543 87.4259 170.592C87.5481 170.632 87.6583 170.702 87.7466 170.795C87.8379 170.895 87.9087 171.011 87.955 171.137C88.009 171.297 88.0431 171.462 88.0566 171.629L87.5488 171.763C87.5397 171.633 87.5182 171.504 87.4847 171.378C87.4579 171.268 87.4004 171.168 87.319 171.089C87.2199 171.016 87.1001 170.977 86.977 170.977C86.8539 170.977 86.7341 171.016 86.6349 171.089C86.5909 171.136 86.5572 171.192 86.536 171.253C86.5148 171.313 86.5067 171.378 86.512 171.442C86.5078 171.553 86.5298 171.662 86.5761 171.763C86.6303 171.863 86.7028 171.952 86.7899 172.025L87.5114 172.655C87.6809 172.81 87.8252 172.99 87.939 173.19C88.0669 173.399 88.1319 173.64 88.1261 173.885C88.129 174.071 88.0829 174.256 87.9924 174.419C87.9086 174.568 87.7845 174.69 87.6344 174.772C87.4642 174.852 87.277 174.888 87.0892 174.879Z" fill="black"/>
<path d="M89.5958 174.879C89.3787 174.886 89.1639 174.832 88.9758 174.724C88.8138 174.616 88.6859 174.464 88.607 174.285C88.518 174.079 88.4673 173.858 88.4574 173.633L88.9919 173.494C89.0015 173.642 89.0248 173.789 89.0613 173.933C89.0944 174.059 89.1566 174.176 89.243 174.275C89.2899 174.321 89.346 174.357 89.4077 174.38C89.4695 174.403 89.5354 174.413 89.6011 174.408C89.6648 174.413 89.7286 174.403 89.7885 174.381C89.8483 174.359 89.9029 174.325 89.9485 174.28C90.0324 174.176 90.0744 174.045 90.0661 173.911C90.0747 173.745 90.0297 173.58 89.9378 173.441C89.8378 173.312 89.7269 173.193 89.6065 173.083L88.885 172.452C88.7529 172.341 88.647 172.203 88.575 172.046C88.5022 171.878 88.4675 171.695 88.4734 171.512C88.4652 171.379 88.4847 171.245 88.5307 171.12C88.5767 170.995 88.6482 170.881 88.7407 170.785C88.84 170.694 88.9564 170.624 89.083 170.579C89.2097 170.535 89.344 170.515 89.4782 170.523C89.629 170.519 89.7793 170.543 89.9218 170.592C90.045 170.633 90.1567 170.703 90.2478 170.795C90.3391 170.894 90.4084 171.01 90.4509 171.137C90.5074 171.296 90.5415 171.461 90.5525 171.629L90.018 171.763C90.0131 171.633 89.9934 171.504 89.9592 171.378C89.9303 171.269 89.8732 171.169 89.7935 171.089C89.6952 171.015 89.5744 170.978 89.4515 170.982C89.325 170.977 89.2009 171.018 89.1041 171.1C89.0611 171.148 89.0281 171.203 89.007 171.264C88.9859 171.325 88.9771 171.389 88.9812 171.453C88.9769 171.563 88.9989 171.673 89.0453 171.773C89.1012 171.872 89.1735 171.961 89.2591 172.035L89.9859 172.666C90.1539 172.822 90.2979 173.002 90.4135 173.2C90.5395 173.41 90.6026 173.651 90.5952 173.895C90.5979 174.081 90.5538 174.265 90.4669 174.43C90.3797 174.578 90.2541 174.7 90.1035 174.782C89.9439 174.853 89.7702 174.886 89.5958 174.879Z" fill="black"/>
<path d="M91.6321 174.831L90.9319 170.555H91.429L91.8886 173.628L92.4658 170.571H92.888L93.4706 173.644L93.9195 170.555H94.4059L93.7165 174.831H93.2835L92.685 171.667L92.0864 174.831H91.6321Z" fill="black"/>
<path d="M95.9772 174.879C95.7361 174.892 95.4965 174.834 95.2877 174.713C95.1116 174.598 94.9797 174.426 94.9136 174.227C94.8391 173.99 94.803 173.743 94.8067 173.494V171.891C94.8011 171.644 94.8391 171.398 94.9189 171.164C94.9867 170.973 95.1165 170.809 95.2877 170.699C95.498 170.583 95.7369 170.527 95.9772 170.539C96.2163 170.528 96.4537 170.585 96.6613 170.705C96.8336 170.813 96.9637 170.977 97.03 171.17C97.1104 171.401 97.1484 171.646 97.1423 171.891V173.494C97.1477 173.743 97.1098 173.991 97.03 174.227C96.9639 174.424 96.8342 174.593 96.6613 174.708C96.4562 174.834 96.2173 174.893 95.9772 174.879ZM95.9772 174.408C96.104 174.418 96.2302 174.384 96.3352 174.312C96.4186 174.242 96.4768 174.146 96.5009 174.04C96.5306 173.903 96.5449 173.763 96.5437 173.623V171.752C96.5453 171.614 96.5309 171.476 96.5009 171.341C96.4781 171.237 96.4194 171.144 96.3352 171.079C96.2302 171.007 96.104 170.973 95.9772 170.983C95.8487 170.974 95.7211 171.008 95.6137 171.079C95.5281 171.143 95.4691 171.236 95.448 171.341C95.418 171.476 95.4037 171.614 95.4053 171.752V173.623C95.404 173.763 95.4184 173.903 95.448 174.04C95.4702 174.147 95.5288 174.243 95.6137 174.312C95.7211 174.383 95.8487 174.417 95.9772 174.408Z" fill="black"/>
<path d="M97.7302 174.831V170.555H98.5907C98.8308 170.548 99.0701 170.586 99.2962 170.667C99.4745 170.737 99.6222 170.867 99.713 171.036C99.8114 171.241 99.8574 171.467 99.8467 171.693C99.8493 171.845 99.8313 171.996 99.7932 172.142C99.7645 172.267 99.7079 172.384 99.6275 172.484C99.5458 172.58 99.4382 172.651 99.3176 172.687L99.9268 174.825H99.3496L98.8152 172.821H98.3502V174.825L97.7302 174.831ZM98.3288 172.399H98.5533C98.6933 172.404 98.8329 172.382 98.9648 172.335C99.0672 172.295 99.1511 172.219 99.2 172.121C99.2531 171.985 99.2768 171.839 99.2695 171.693C99.2839 171.505 99.237 171.318 99.1358 171.159C99.0628 171.096 98.9777 171.049 98.8857 171.021C98.7938 170.992 98.6971 170.983 98.6014 170.993H98.3395L98.3288 172.399Z" fill="black"/>
<path d="M100.472 174.831V170.555H101.402C101.659 170.542 101.916 170.592 102.15 170.699C102.331 170.792 102.472 170.948 102.546 171.137C102.633 171.368 102.675 171.613 102.669 171.859V173.462C102.674 173.722 102.633 173.981 102.546 174.227C102.478 174.425 102.342 174.592 102.161 174.697C101.941 174.814 101.693 174.87 101.445 174.857L100.472 174.831ZM101.065 174.403H101.407C101.57 174.42 101.734 174.376 101.867 174.28C101.967 174.182 102.028 174.051 102.038 173.911C102.038 173.746 102.065 173.553 102.065 173.323V171.934C102.067 171.755 102.052 171.576 102.022 171.399C102.003 171.28 101.937 171.172 101.84 171.1C101.703 171.026 101.547 170.993 101.391 171.004H101.065V174.403Z" fill="black"/>
<path d="M80.9751 200.26C80.6306 200.271 80.2888 200.196 79.981 200.041C79.7127 199.892 79.5006 199.659 79.3771 199.378C79.2265 199.019 79.1467 198.634 79.1419 198.245L80.2749 198.058C80.2805 198.281 80.3074 198.503 80.3551 198.721C80.3877 198.871 80.4596 199.009 80.5636 199.122C80.658 199.209 80.7823 199.257 80.9109 199.255C80.978 199.263 81.0461 199.253 81.1075 199.224C81.1688 199.196 81.2211 199.151 81.2583 199.095C81.322 198.983 81.3535 198.855 81.3492 198.726C81.3575 198.484 81.2903 198.245 81.1568 198.042C80.9987 197.845 80.8195 197.666 80.6223 197.508L79.9757 196.909C79.7431 196.713 79.5444 196.48 79.3878 196.219C79.2298 195.932 79.1523 195.607 79.1633 195.279C79.1482 195.053 79.182 194.827 79.2622 194.616C79.3425 194.405 79.4673 194.214 79.6283 194.055C79.9857 193.754 80.4445 193.601 80.9109 193.627C81.1853 193.618 81.4581 193.672 81.7073 193.788C81.9043 193.883 82.0708 194.031 82.1883 194.215C82.3062 194.392 82.388 194.59 82.4288 194.798C82.4756 195.003 82.5042 195.213 82.5143 195.423L81.3866 195.589C81.3866 195.391 81.3866 195.22 81.3385 195.054C81.321 194.926 81.2713 194.805 81.1942 194.702C81.1517 194.659 81.1007 194.626 81.0445 194.605C80.9882 194.584 80.9281 194.575 80.8682 194.579C80.8011 194.574 80.7339 194.587 80.6737 194.617C80.6135 194.647 80.5625 194.693 80.5261 194.75C80.4516 194.862 80.4125 194.994 80.4139 195.129C80.4127 195.319 80.4666 195.504 80.5689 195.664C80.6949 195.831 80.8382 195.986 80.9965 196.123L81.6538 196.695C81.9215 196.929 82.1554 197.199 82.3486 197.497C82.5544 197.832 82.6567 198.221 82.6426 198.614C82.6474 198.9 82.5754 199.182 82.4341 199.432C82.2989 199.674 82.0991 199.874 81.8569 200.009C81.5901 200.168 81.286 200.255 80.9751 200.26Z" fill="white"/>
<path d="M83.2411 200.169V193.708H84.5506V200.169H83.2411Z" fill="white"/>
<path d="M87.1908 200.265C86.8253 200.284 86.4629 200.189 86.1539 199.993C85.8943 199.797 85.7065 199.521 85.6195 199.207C85.5042 198.826 85.4483 198.429 85.4538 198.031V195.867C85.4461 195.463 85.5039 195.06 85.6248 194.675C85.723 194.357 85.929 194.083 86.2074 193.9C86.553 193.702 86.9481 193.608 87.3458 193.627C87.7158 193.612 88.0836 193.691 88.4147 193.857C88.6785 194.003 88.8842 194.235 88.9972 194.515C89.1223 194.834 89.1822 195.176 89.1736 195.519V195.893H87.8856V195.439C87.8869 195.287 87.8762 195.135 87.8535 194.985C87.8395 194.87 87.7889 194.764 87.7092 194.68C87.6031 194.597 87.4695 194.557 87.3351 194.568C87.1942 194.56 87.0559 194.608 86.9503 194.702C86.8699 194.802 86.8182 194.922 86.8006 195.049C86.7788 195.199 86.768 195.351 86.7686 195.503V198.368C86.7668 198.531 86.7829 198.694 86.8167 198.854C86.8395 198.983 86.9032 199.101 86.9984 199.191C87.1087 199.271 87.2416 199.314 87.3778 199.314C87.5141 199.314 87.6469 199.271 87.7573 199.191C87.8535 199.097 87.9187 198.976 87.9444 198.844C87.983 198.681 88.0009 198.514 87.9978 198.347V197.63H87.3672V196.834H89.1896V200.153H88.3238L88.2437 199.57C88.1629 199.764 88.0319 199.932 87.8642 200.057C87.6679 200.197 87.4318 200.27 87.1908 200.265Z" fill="white"/>
<path d="M90.1302 200.169V193.708H91.0495L92.4872 197.075V193.708H93.5561V200.169H92.6796L91.2419 196.594V200.169H90.1302Z" fill="white"/>
<path d="M98.3395 200.26C97.9442 200.282 97.5504 200.195 97.2011 200.009C96.9303 199.842 96.7276 199.584 96.6292 199.282C96.5096 198.909 96.4536 198.519 96.4635 198.127V193.708H97.7676V198.309C97.7673 198.466 97.778 198.624 97.7997 198.779C97.8189 198.918 97.8742 199.049 97.96 199.159C98.0669 199.249 98.2023 199.298 98.3421 199.298C98.482 199.298 98.6173 199.249 98.7243 199.159C98.8143 199.051 98.8701 198.919 98.8846 198.779C98.9063 198.624 98.917 198.466 98.9167 198.309V193.708H100.215V198.127C100.225 198.519 100.169 198.909 100.05 199.282C99.9514 199.583 99.751 199.84 99.4832 200.009C99.1316 200.194 98.7364 200.281 98.3395 200.26Z" fill="white"/>
<path d="M101.135 200.169V193.708H103.182C103.513 193.694 103.841 193.77 104.133 193.927C104.376 194.075 104.563 194.298 104.667 194.563C104.798 194.881 104.86 195.223 104.849 195.567C104.865 195.938 104.784 196.306 104.614 196.636C104.465 196.88 104.239 197.068 103.973 197.171C103.675 197.287 103.357 197.343 103.037 197.336H102.439V200.137L101.135 200.169ZM102.449 196.428H102.914C103.066 196.435 103.217 196.404 103.353 196.337C103.406 196.305 103.452 196.262 103.489 196.212C103.526 196.161 103.552 196.104 103.566 196.043C103.609 195.877 103.629 195.706 103.625 195.535C103.628 195.368 103.612 195.202 103.577 195.038C103.556 194.914 103.487 194.803 103.385 194.728C103.24 194.642 103.072 194.603 102.904 194.616H102.449V196.428Z" fill="white"/>
<path d="M170.127 141.513C170.127 141.513 168.369 151.101 168.102 153.939C167.835 156.777 167.567 168.321 169.588 176.151C170.795 180.852 172.466 185.423 174.574 189.795C174.574 189.795 175.921 195.332 176.712 196.818C177.503 198.304 184.274 209.784 184.274 209.784C184.274 209.784 183.868 214.508 183.601 215.321C183.334 216.133 182.382 221.125 182.655 222.611C182.928 224.097 183.328 225.043 182.922 226.934C182.516 228.826 181.976 230.713 182.922 232.338C183.868 233.963 186.166 234.091 186.84 233.145C187.445 232.368 187.889 231.478 188.144 230.527C188.399 229.576 188.461 228.583 188.326 227.608C187.919 224.936 186.567 221.398 186.84 219.912C187.115 218.743 187.522 217.61 188.053 216.534C188.053 216.534 193.189 227.068 193.456 227.88C193.724 228.693 194.269 232.065 194.525 233.145C194.782 234.224 196.284 232.739 196.823 232.076C197.363 231.413 199.389 228.565 198.961 226.673C198.534 224.781 197.358 221.408 197.358 221.408L199.373 224.08C199.412 224.143 199.473 224.189 199.544 224.209C199.615 224.229 199.691 224.222 199.758 224.19C199.824 224.157 199.876 224.101 199.903 224.033C199.931 223.964 199.932 223.888 199.907 223.819C199.528 222.52 199.015 220.799 198.838 220.473C198.566 219.938 198.432 218.175 197.353 216.694C196.273 215.214 193.301 216.555 193.301 216.555L191.003 209.265C191.003 209.265 195.193 195.493 194.381 190.896C193.569 186.3 193.168 182.933 193.435 181.987C193.702 181.041 198.838 166.792 198.838 163.815C198.838 160.839 198.972 153.688 197.353 149.77C196.25 147.174 194.987 144.65 193.569 142.213L170.127 141.513Z" fill="white" stroke="black" stroke-width="0.534454" stroke-miterlimit="10"/>
<path d="M192.868 214.984L191.057 209.244C191.057 209.244 195.247 195.471 194.434 190.875C193.622 186.279 193.221 182.912 193.488 181.966C193.756 181.02 198.416 166.734 198.892 163.794C199.735 159.066 199.22 154.196 197.406 149.749C196.304 147.153 195.04 144.629 193.622 142.191L170.106 141.513C170.106 141.513 168.348 151.101 168.08 153.939C167.813 156.777 167.546 168.321 169.566 176.151C170.781 180.853 172.458 185.424 174.574 189.795C174.574 189.795 175.921 195.332 176.712 196.818C177.503 198.304 184.274 209.784 184.274 209.784C184.274 209.784 184.039 212.499 183.809 214.166C184.743 214.847 185.83 215.289 186.973 215.454L188.042 216.523C188.042 216.523 191.142 217.886 192.868 214.984Z" fill="black" stroke="black" stroke-width="0.534454" stroke-miterlimit="10"/>
<path d="M189.378 203.584C188.732 201.094 187.919 198.01 187.412 196.278C186.466 193.04 183.494 184.798 183.494 184.798L181.062 160.155L176.471 157.183" stroke="white" stroke-width="0.534454" stroke-linecap="round" stroke-linejoin="round"/>
<path d="M190.383 207.486L189.875 205.514" stroke="white" stroke-width="0.534454" stroke-linecap="round" stroke-linejoin="round"/>
<path d="M185.797 154.34C184.493 156.387 183.04 158.888 182.43 160.716" stroke="white" stroke-width="0.534454" stroke-linecap="round" stroke-linejoin="round"/>
<path d="M188.224 150.7C188.224 150.7 187.689 151.459 186.909 152.603" stroke="white" stroke-width="0.534454" stroke-linecap="round" stroke-linejoin="round"/>
<path d="M198.892 220.452C198.619 219.917 198.485 218.153 197.406 216.673C197.246 216.467 197.042 216.299 196.809 216.18C196.576 216.062 196.32 215.997 196.059 215.989C196.978 218.314 196.123 220.174 196.593 221.937C197.128 223.963 197.539 225.716 196.732 227.202C195.925 228.688 193.894 229.5 193.894 229.5H193.857C194.108 230.804 194.392 232.445 194.568 233.14C194.84 234.208 196.326 232.733 196.866 232.071C197.406 231.408 199.431 228.559 199.004 226.667C198.576 224.775 197.4 221.403 197.4 221.403L199.741 224.492C199.769 224.528 199.809 224.553 199.853 224.563C199.897 224.573 199.944 224.568 199.985 224.548C200.025 224.528 200.058 224.494 200.077 224.453C200.096 224.412 200.1 224.365 200.089 224.321C199.693 223.006 199.079 220.826 198.892 220.452Z" fill="black" stroke="black" stroke-width="0.534454" stroke-miterlimit="10"/>
<path d="M188.39 227.902C188.192 228.543 187.935 229.334 187.684 230.04C187.15 231.526 185.386 231.643 184.173 230.312C183.41 229.349 182.982 228.163 182.954 226.935C182.548 228.827 182.008 230.713 182.954 232.338C183.9 233.963 186.198 234.091 186.872 233.145C188.028 231.655 188.571 229.779 188.39 227.902Z" fill="black" stroke="black" stroke-width="0.534454" stroke-miterlimit="10"/>
<path d="M168.112 108.307C168.112 108.307 166.06 109.023 166.146 109.291C166.231 109.558 162.869 126.393 162.869 126.393C162.869 126.393 160.48 132.593 160.732 134.805C160.983 137.018 162.869 139.674 164.98 139.674C165.665 139.689 166.341 139.515 166.934 139.172C167.526 138.829 168.014 138.33 168.342 137.729C168.786 137.109 170.293 134.185 170.293 134.185C170.293 134.185 169.759 139.765 169.582 140.294C169.406 140.823 168.513 142.24 168.962 142.683C169.644 143.262 170.424 143.712 171.266 144.014C175.719 144.932 180.265 145.318 184.809 145.163C190.832 144.81 194.461 143.218 194.461 143.218C194.66 142.554 194.897 141.903 195.172 141.267C195.348 141 195.706 140.561 195.706 140.561C195.706 140.561 201.371 139.942 201.724 139.583C202.077 139.225 203.055 137.729 202.964 135.335C202.873 132.94 203.76 112.23 203.322 111.786C202.525 111.22 201.683 110.72 200.805 110.29L190.549 104.555L175.253 106.565L168.112 108.307Z" fill="#3382EB" stroke="black" stroke-width="0.534454" stroke-linecap="round" stroke-linejoin="round"/>
<path d="M168.219 112.716C168.219 112.716 170.074 116.11 170.533 118.275" stroke="black" stroke-width="0.534454" stroke-miterlimit="10"/>
<path d="M164.254 127.702C164.254 127.702 166.675 128.007 167.599 129.306" stroke="black" stroke-width="0.534454" stroke-linecap="round" stroke-linejoin="round"/>
<path d="M166.878 127.547C166.878 127.547 168.064 128.162 168.321 128.729" stroke="black" stroke-width="0.534454" stroke-linecap="round" stroke-linejoin="round"/>
<path d="M161.897 130.893C161.897 130.893 162.869 128.948 164.377 128.681C165.884 128.413 168.006 129.83 168.006 129.83L169.245 129.386L170.849 132.662L170.314 134.169" stroke="black" stroke-width="0.534454" stroke-linecap="round" stroke-linejoin="round"/>
<path d="M199.276 113.801C199.276 113.801 197.946 116.81 197.523 117.794" stroke="black" stroke-width="0.534454" stroke-linecap="round" stroke-linejoin="round"/>
<path d="M195.717 140.54L190.565 135.677" stroke="black" stroke-width="0.534454" stroke-linecap="round" stroke-linejoin="round"/>
<path d="M193.697 139.824L188.534 137.152" stroke="black" stroke-width="0.534454" stroke-linecap="round" stroke-linejoin="round"/>
<path d="M173.788 144.249L187.428 142.774" stroke="black" stroke-width="0.534454" stroke-linecap="round" stroke-linejoin="round"/>
<path d="M185.13 111.99C185.13 111.99 183.558 127.382 183.467 128.21" stroke="black" stroke-width="0.534454" stroke-linecap="round" stroke-linejoin="round"/>
<path d="M182.634 134.201L182.174 139.268" stroke="black" stroke-width="0.534454" stroke-linecap="round" stroke-linejoin="round"/>
<path d="M191.516 101.985L190.159 105.416L185.685 110.53L181.688 105.255L182.019 98.6014L187.043 103.182L191.516 101.985Z" fill="white" stroke="black" stroke-width="0.534454" stroke-miterlimit="10"/>
<path d="M187.449 80.8949C187.449 80.8949 179.576 83.7436 178.491 85.9829C177.574 88.1005 176.87 90.3045 176.391 92.5621C176.391 92.8346 172.65 94.3311 171.912 95.4802C171.175 96.6292 171.976 100.028 171.912 100.98C171.848 101.931 168.385 103.016 168.043 105.116C167.811 106.176 167.835 107.275 168.112 108.323L174.152 107.372C174.152 107.372 178.085 108.932 180.191 108.12C182.297 107.308 182.495 103.235 182.361 101.878C182.227 100.52 182.019 98.6174 182.019 98.6174L184.803 90.7396L191.11 88.8369L195.113 92.5781L191.436 102.241C191.436 102.241 190.276 104.587 190.479 105.197C190.682 105.806 192.537 106.42 192.537 106.42L200.816 110.29C201.027 109.657 201.097 108.986 201.019 108.323C200.885 107.254 199.116 104.929 199.116 104.251C199.116 103.572 201.425 100.926 200.34 98.5533C199.255 96.1803 198.101 94.8869 197.491 93.6684C196.882 92.4498 198.026 90.1356 196.813 87.1534C195.599 84.1711 191.586 81.5897 190.501 80.9804C189.416 80.3712 187.449 80.8949 187.449 80.8949Z" fill="black" stroke="black" stroke-width="0.534454" stroke-miterlimit="10"/>
<path d="M190.297 86.3892C190.297 86.3892 184.194 89.1042 183.718 90.3922C183.243 91.6803 181.955 97.6555 182.019 98.6014C182.083 99.5474 186.161 104.438 186.973 104.577C187.786 104.716 191.97 102.289 192.719 101.744C193.467 101.199 195.925 93.0378 195.861 91.7497C195.797 90.4617 190.976 86.464 190.297 86.3892Z" fill="white" stroke="black" stroke-width="0.534454" stroke-miterlimit="10"/>
<path d="M183.66 91.4504C187.818 90.3388 190.303 86.3892 190.303 86.3892C190.303 86.3892 193.365 91.8673 196.139 92.7011" stroke="black" stroke-width="0.534454" stroke-miterlimit="10"/>
<path d="M190.298 86.3892C190.298 86.3892 184.21 91.4504 182.131 91.8673" stroke="black" stroke-width="0.534454" stroke-miterlimit="10"/>
<path d="M190.431 98.5372C190.165 98.7435 189.859 98.8924 189.532 98.9742C189.206 99.0561 188.866 99.0693 188.534 99.0129" stroke="black" stroke-width="0.534454" stroke-linecap="round" stroke-linejoin="round"/>
<path d="M186.225 99.4833C186.695 100.021 187.33 100.386 188.031 100.522C188.732 100.658 189.458 100.555 190.094 100.232" stroke="black" stroke-width="0.534454" stroke-linecap="round" stroke-linejoin="round"/>
<path d="M188.534 92.9736C188.534 92.9736 186.84 91.8192 185.21 92.5621" stroke="black" stroke-width="0.534454" stroke-linecap="round" stroke-linejoin="round"/>
<path d="M191.676 93.3799C191.676 93.3799 193.574 92.6316 194.456 93.5135" stroke="black" stroke-width="0.534454" stroke-linecap="round" stroke-linejoin="round"/>
<path d="M187.31 95.0152C187.267 95.4267 186.973 95.7313 186.658 95.6993C186.487 95.655 186.34 95.5462 186.247 95.3958C186.154 95.2454 186.123 95.0649 186.161 94.8923C186.209 94.4861 186.498 94.1814 186.818 94.2135C186.988 94.2578 187.134 94.3659 187.225 94.5154C187.317 94.6648 187.347 94.8439 187.31 95.0152Z" fill="black"/>
<path d="M192.671 95.8169C192.685 95.9077 192.678 96.0006 192.651 96.0884C192.624 96.1762 192.577 96.2566 192.513 96.3232C192.45 96.3899 192.372 96.441 192.286 96.4727C192.2 96.5044 192.107 96.5159 192.016 96.5061C191.924 96.4963 191.836 96.4656 191.759 96.4163C191.681 96.3671 191.616 96.3006 191.568 96.2221C191.52 96.1435 191.491 96.0551 191.483 95.9635C191.475 95.8719 191.488 95.7797 191.521 95.694C191.564 95.2825 191.858 94.9778 192.173 95.0099C192.345 95.0542 192.492 95.1629 192.584 95.3134C192.677 95.4638 192.708 95.6442 192.671 95.8169Z" fill="black"/>
<path d="M179.453 108.216L181.848 112.449L184.884 109.413L181.688 105.255L179.453 108.216Z" fill="#3382EB" stroke="black" stroke-width="0.534454" stroke-linecap="round" stroke-linejoin="round"/>
<path d="M186.802 109.574L188.961 112.69L192.537 106.404L190.559 104.539L186.802 109.574Z" fill="#3382EB" stroke="black" stroke-width="0.534454" stroke-linecap="round" stroke-linejoin="round"/>
<path d="M176.69 130.685H171.998L171.41 119.819H177.278L176.69 130.685Z" fill="white" stroke="black" stroke-width="0.534454" stroke-miterlimit="10"/>
<path d="M177.797 118.889H170.79V120.535H177.797V118.889Z" fill="black" stroke="black" stroke-width="0.534454" stroke-miterlimit="10"/>
<path d="M176.92 118.12H171.768V118.895H176.92V118.12Z" fill="black" stroke="black" stroke-width="0.534454" stroke-miterlimit="10"/>
<path d="M171.186 131.663C171.186 131.689 171.186 131.716 171.186 131.727C171.045 132.131 170.79 132.485 170.451 132.747C170.112 133.008 169.704 133.164 169.278 133.197C169.046 133.22 168.811 133.196 168.59 133.124C168.368 133.052 168.163 132.935 167.989 132.78C167.67 132.432 167.481 131.985 167.455 131.513C167.367 131.077 167.391 130.627 167.523 130.203C167.656 129.778 167.893 129.395 168.214 129.087C168.438 128.819 169.283 128.13 169.347 127.788L169.823 124.047C169.823 124.047 174.483 122.978 174.884 123.037C174.967 123.049 175.046 123.08 175.114 123.128C175.183 123.176 175.239 123.24 175.279 123.313C175.318 123.387 175.34 123.469 175.342 123.553C175.344 123.637 175.326 123.72 175.29 123.796C175.189 124.1 174.483 124.25 174.328 124.298C174.173 124.346 171.896 124.907 171.896 124.907L171.089 125.869C171.482 125.673 171.887 125.504 172.303 125.362C172.458 125.362 174.975 125.009 175.29 124.961C175.382 124.957 175.473 124.976 175.555 125.018C175.637 125.059 175.706 125.121 175.757 125.197C175.808 125.274 175.839 125.362 175.846 125.453C175.853 125.545 175.836 125.636 175.798 125.72C175.595 126.126 175.445 126.222 175.29 126.222C175.135 126.222 172.618 126.682 172.618 126.682L171.202 127.895C171.202 127.895 173.126 127.286 173.339 127.286C173.553 127.286 175.312 127.237 175.365 127.542C175.405 127.696 175.385 127.86 175.31 128.001C175.235 128.141 175.109 128.248 174.959 128.301C174.606 128.403 173.238 128.606 173.238 128.606L171.715 129.413H173.184C173.184 129.413 174.606 129.872 174.905 129.947C175.205 130.022 175.44 130.15 175.007 130.605C174.574 131.059 171.453 130.695 171.453 130.695C171.453 130.695 171.239 131.417 171.186 131.663Z" fill="white" stroke="black" stroke-width="0.534454" stroke-miterlimit="10"/>
<path d="M195.749 129.482L194.744 130.824C194.744 130.824 194.744 138.84 195.06 139.509C195.375 140.177 197.828 142.026 199.148 142.026C200.468 142.026 203.055 139.006 203.178 138.504C203.301 138.001 199.907 128.242 199.971 127.991C200.035 127.74 199.661 127.425 199.218 127.425C198.774 127.425 195.749 129.482 195.749 129.482Z" fill="#3382EB" stroke="black" stroke-width="0.534454" stroke-linecap="round" stroke-linejoin="round"/>
<path d="M199.239 124.709L199.399 128.098C199.399 128.098 199.212 129.482 198.33 130.049C197.695 130.407 196.981 130.602 196.251 130.615L195.685 129.482L194.808 128.6L199.239 124.709Z" fill="white" stroke="black" stroke-width="0.534454" stroke-miterlimit="10"/>
<path d="M200.254 120.103L193.878 118.772L189.886 129.418L195.279 130.401L200.254 120.103Z" fill="black" stroke="black" stroke-width="0.534454" stroke-miterlimit="10"/>
<path d="M199.383 122.807C199.383 122.807 195.108 122.999 195.06 123.341C195.011 123.683 195.156 124.1 195.3 124.148C195.444 124.196 199.239 124.72 199.239 124.72C199.239 124.72 200.308 124.48 200.233 123.625C200.235 123.514 200.215 123.404 200.173 123.301C200.13 123.199 200.067 123.106 199.987 123.029C199.908 122.953 199.813 122.893 199.709 122.855C199.605 122.817 199.494 122.8 199.383 122.807Z" fill="white" stroke="black" stroke-width="0.534454" stroke-miterlimit="10"/>
<path d="M196.962 124.469C196.962 124.469 193.221 124.041 193.023 124.282C192.826 124.522 192.644 124.848 193.21 125.089C194.615 125.557 196.042 125.953 197.486 126.275C197.746 126.261 198 126.189 198.23 126.067C198.459 125.944 198.66 125.773 198.817 125.565C198.887 125.452 198.932 125.325 198.949 125.193C198.965 125.061 198.953 124.927 198.913 124.8L196.962 124.469Z" fill="white" stroke="black" stroke-width="0.534454" stroke-miterlimit="10"/>
<path d="M195.017 125.704C195.017 125.704 192.168 125.137 192.024 125.42C191.88 125.704 191.837 126.179 192.12 126.372C192.403 126.564 196.203 127.601 196.438 127.697C196.674 127.793 197.245 127.51 197.433 127.131C197.544 126.859 197.561 126.558 197.481 126.275L195.017 125.704Z" fill="white" stroke="black" stroke-width="0.534454" stroke-miterlimit="10"/>
<path d="M195.108 127.366C195.108 127.366 192.97 126.938 192.879 127.179C192.788 127.419 192.735 127.938 193.162 128.076C193.59 128.215 196.059 129.215 196.487 128.932C196.914 128.648 196.77 127.889 196.77 127.889L195.108 127.366Z" fill="white" stroke="black" stroke-width="0.534454" stroke-miterlimit="10"/>
<path d="M207.86 64.9094H227.244C228.115 64.9094 228.949 65.2552 229.565 65.8706C230.18 66.486 230.526 67.3207 230.526 68.191V81.3279C230.526 82.1982 230.18 83.0328 229.565 83.6483C228.949 84.2637 228.115 84.6094 227.244 84.6094H215.861L210.655 91.9421V84.6094H207.86C207.428 84.6101 207.001 84.5257 206.602 84.3611C206.204 84.1965 205.841 83.9549 205.536 83.6502C205.231 83.3454 204.988 82.9834 204.823 82.5849C204.658 82.1864 204.573 81.7592 204.573 81.3279V68.191C204.573 67.7596 204.658 67.3324 204.823 66.9339C204.988 66.5355 205.231 66.1735 205.536 65.8687C205.841 65.5639 206.204 65.3223 206.602 65.1577C207.001 64.9931 207.428 64.9087 207.86 64.9094Z" fill="black" stroke="black" stroke-width="0.534454" stroke-linecap="round" stroke-linejoin="round"/>
<path d="M216.229 81.8837C215.858 81.8671 215.496 81.7654 215.171 81.5866C214.846 81.4077 214.566 81.1564 214.353 80.8522L210.831 75.8016C210.476 75.2783 210.341 74.6361 210.456 74.014C210.571 73.392 210.926 72.8402 211.445 72.4782C211.963 72.1162 212.604 71.9731 213.227 72.08C213.851 72.1869 214.407 72.5351 214.776 73.0492L216.486 75.5023L223.434 67.0366C223.634 66.7909 223.882 66.5872 224.161 66.4371C224.441 66.2869 224.747 66.1933 225.062 66.1616C225.378 66.1298 225.697 66.1605 226.001 66.252C226.304 66.3434 226.587 66.4938 226.833 66.6945C227.078 66.8952 227.282 67.1424 227.432 67.4218C227.582 67.7013 227.676 68.0076 227.708 68.3232C227.74 68.6389 227.709 68.9577 227.617 69.2614C227.526 69.5652 227.376 69.848 227.175 70.0936L218.185 81.0072C217.959 81.2814 217.675 81.5022 217.354 81.6537C217.032 81.8052 216.681 81.8838 216.325 81.8837H216.229Z" fill="#3382EB"/>
<path d="M225.299 66.6891C225.733 66.6873 226.153 66.8388 226.485 67.1167C226.676 67.2719 226.833 67.4631 226.95 67.6794C227.066 67.8957 227.138 68.1328 227.162 68.3771C227.187 68.6214 227.163 68.8681 227.091 69.103C227.02 69.338 226.903 69.5566 226.747 69.7462L217.774 80.6598C217.598 80.8736 217.377 81.0459 217.126 81.1642C216.876 81.2825 216.602 81.3438 216.325 81.3439H216.261C215.973 81.332 215.691 81.2534 215.438 81.1143C215.185 80.9752 214.967 80.7794 214.802 80.5422L211.28 75.4916C211.13 75.2906 211.022 75.0616 210.962 74.818C210.903 74.5744 210.893 74.3213 210.933 74.0737C210.973 73.8261 211.062 73.5891 211.196 73.3768C211.329 73.1645 211.504 72.9812 211.71 72.8378C211.915 72.6944 212.148 72.5939 212.393 72.5421C212.639 72.4904 212.892 72.4886 213.138 72.5367C213.384 72.5848 213.618 72.682 213.826 72.8223C214.034 72.9627 214.211 73.1434 214.348 73.3538L216.486 76.3841L223.893 67.3786C224.067 67.164 224.287 66.9911 224.537 66.8727C224.787 66.7544 225.06 66.6934 225.336 66.6945M225.336 65.6256C224.902 65.6243 224.473 65.7195 224.08 65.9043C223.687 66.0892 223.341 66.3591 223.065 66.6945L216.555 74.6098L215.251 72.7392C214.786 72.1521 214.114 71.7647 213.373 71.6562C212.632 71.5476 211.877 71.7261 211.263 72.1552C210.649 72.5844 210.222 73.2317 210.07 73.965C209.917 74.6983 210.05 75.4623 210.441 76.1009L213.963 81.1568C214.224 81.5277 214.566 81.8338 214.963 82.0516C215.361 82.2693 215.803 82.3929 216.256 82.4128H216.374C216.808 82.4134 217.236 82.3178 217.629 82.133C218.022 81.9482 218.369 81.6787 218.645 81.3439L227.57 70.4303C227.925 70.0001 228.151 69.4777 228.22 68.9242C228.289 68.3707 228.199 67.8089 227.961 67.3046C227.723 66.8002 227.346 66.374 226.875 66.0757C226.403 65.7775 225.857 65.6195 225.299 65.6202L225.336 65.6256Z" fill="#0063E6"/>
</g>
<defs>
<clipPath id="clip0_27_875">
<rect width="258.291" height="234" fill="white"/>
</clipPath>
</defs>
</svg>
